<svg width="100" height="100" viewBox="0 0 100 100" fill="none" xmlns="http://www.w3.org/2000/svg">
<circle cx="50" cy="50" r="50" fill="#5984F3"/>
<circle cx="50" cy="50" r="40" fill="#FDFDFF"/>
<g clip-path="url(#clip0)">
<path d="M66.0415 69.2207V73.3332C66.0415 73.7936 65.6686 74.1665 65.2082 74.1665H34.7916C34.3312 74.1665 33.9583 73.7936 33.9583 73.3332V69.2207C33.9583 64.9249 37.4728 61.5176 41.7687 61.476C43.1892 61.4608 44.4764 60.7616 45.2655 59.6353C46.1282 58.4028 46.0416 57.2927 46.0416 56.4583L46.0572 56.4197C42.3176 54.8718 39.6874 51.1874 39.6874 46.8885C39.6874 46.8885 39.6874 46.7708 39.6874 46.5624C38.8064 46.5624 38.0527 46.1524 37.5812 45.5145C37.5812 45.5135 37.5801 45.5135 37.5801 45.5124C37.2991 45.1573 37.0832 44.5915 37.0832 44.0062V33.8541C37.0832 32.301 38.3426 31.0416 39.8957 31.0416C41.152 27.9029 44.1916 25.8333 47.5884 25.8333C52.5453 25.8333 55.731 25.7962 55.9967 25.9292C56.0592 25.9386 56.6337 26.0409 56.679 26.0635C57.503 26.2529 58.4145 26.673 58.4561 26.7146C61.1634 28.0771 63.0207 30.8812 63.0207 34.1187V43.8541C63.0207 45.3499 61.8082 46.5624 60.3124 46.5624V46.8885C60.3124 51.1874 57.6822 54.8718 53.9426 56.4197L53.9582 56.4583C53.9582 57.2689 53.8646 58.3929 54.7343 59.6353C55.5212 60.7586 56.8066 61.4608 58.2311 61.476C62.5269 61.5176 66.0415 64.9249 66.0415 69.2207Z" fill="#FFDFBA"/>
<path d="M63.0208 34.1187V43.8541C63.0208 45.35 61.8083 46.5624 60.3125 46.5624V40.7948C60.3125 40.3541 59.9698 39.9895 59.5302 39.9635C54.6459 39.6723 49.7553 38.1862 45.3511 35.4031C44.8719 35.1 44.2417 35.35 44.0959 35.8979C43.8781 36.7218 43.3886 37.777 42.2917 38.4375C41.2828 39.0448 40.5019 38.9248 40.2084 39.0458C39.9011 39.1687 39.6875 39.4687 39.6875 39.8166V46.5624C38.8065 46.5624 38.0528 46.1524 37.5813 45.5145C37.5813 45.5135 37.5802 45.5135 37.5802 45.5124C37.3935 45.2765 37.2071 44.8886 37.1302 44.4916C37.0634 44.151 37.0834 44.9196 37.0834 33.8541C37.0834 32.301 38.3427 31.0416 39.8959 31.0416C41.1457 27.919 44.1763 25.8333 47.5886 25.8333C52.5454 25.8333 55.7311 25.7962 55.9969 25.9292C56.8051 26.0517 57.6018 26.3062 58.2375 26.6083C58.2499 26.6145 58.4481 26.7064 58.4562 26.7146C61.1635 28.0771 63.0208 30.8812 63.0208 34.1187V34.1187Z" fill="#42434D"/>
<path d="M66.0415 69.2207V73.3332C66.0415 73.7936 65.6686 74.1666 65.2082 74.1666H34.7916C34.3312 74.1666 33.9583 73.7936 33.9583 73.3332V69.2207C33.9583 64.9249 37.4728 61.5176 41.7687 61.476C43.1892 61.4609 44.4764 60.7616 45.2655 59.6353C48.8866 63.6593 48.0535 62.7335 49.3801 64.2083C49.7113 64.576 50.2884 64.576 50.6197 64.2083C51.8092 62.8858 50.8381 63.9649 54.7343 59.6353C55.5212 60.7586 56.8066 61.4609 58.2311 61.476C62.5269 61.5176 66.0415 64.9249 66.0415 69.2207V69.2207Z" fill="#D6F4FC"/>
<path d="M56.5707 61.128C56.5578 61.1555 55.5297 65.8326 55.5363 65.8028C55.4006 66.4181 54.6219 66.6163 54.2087 66.1405C51.4736 62.991 51.8467 63.4017 51.5697 63.1519L54.7343 59.6352C55.1926 60.2895 55.828 60.8093 56.5707 61.128V61.128Z" fill="#E8F8FC"/>
<path d="M45.2657 59.6353L48.3552 63.0687L45.7924 66.1056C45.3828 66.5911 44.5945 66.3965 44.4578 65.7762C44.4513 65.7465 43.4422 61.1554 43.4292 61.1279C44.1719 60.8093 44.8073 60.2895 45.2657 59.6353V59.6353Z" fill="#E8F8FC"/>
<path d="M60.3125 46.8885C60.3125 52.586 55.6929 57.201 50 57.201C44.3073 57.201 39.6875 52.5862 39.6875 46.8885C39.6875 46.7217 39.6875 39.6174 39.6875 39.8171C39.6875 39.3739 40.0339 39.0104 40.4762 38.9852C42.1638 38.889 43.5847 37.8319 44.0962 35.8976C44.2411 35.3497 44.8719 35.1001 45.351 35.4028C49.6134 38.0954 54.4699 39.6614 59.5302 39.9634C59.9701 39.9897 60.3125 40.3542 60.3125 40.795V46.8885Z" fill="#FFEBD2"/>
<path d="M57.9052 28.9583H50.7135C47.5313 28.9583 44.6479 30.7792 43.2677 33.6104C43.1104 33.9333 42.8063 34.1521 42.4542 34.2239C41.1729 34.4864 40.2083 35.6198 40.2083 36.9791V39.0458C39.9011 39.1687 39.6875 39.4687 39.6875 39.8166V44.7635C39.6875 45.9338 38.1621 46.3928 37.5334 45.4489C37.3902 45.2583 37.2071 44.8664 37.1511 44.5864C37.057 44.1822 37.0834 44.9644 37.0834 33.8541C37.0834 32.301 38.3427 31.0417 39.8958 31.0417C41.1572 27.8903 44.207 25.8333 47.5885 25.8333C52.512 25.8333 55.7307 25.796 55.9969 25.9292C56.9961 26.0806 57.9129 26.4486 58.0469 26.5229C58.0796 26.5367 58.4407 26.6991 58.4562 26.7146C59.5781 27.2812 59.1646 28.9646 57.9052 28.9583V28.9583Z" fill="#4D4E59"/>
<path d="M54.076 58.1687C51.5097 59.2429 48.6894 59.3263 45.924 58.1687C46.0652 57.5826 46.0417 57.2031 46.0417 56.4583L46.0573 56.4197C48.5658 57.461 51.4293 57.4631 53.9427 56.4197L53.9583 56.4583C53.9583 57.2034 53.9349 57.5828 54.076 58.1687Z" fill="#FFD6A6"/>
<path d="M43.9707 63.5676C39.8478 63.7551 36.5624 67.1582 36.5624 71.327V74.1666H34.7916C34.3314 74.1666 33.9583 73.7934 33.9583 73.3332V69.2272C33.9583 64.9299 37.4742 61.52 41.7714 61.4758C42.359 61.4697 42.9193 61.3464 43.4291 61.1281C43.4421 61.1556 43.9643 63.5379 43.9707 63.5676V63.5676Z" fill="#E8F8FC"/>
<path d="M56.0291 63.5676C60.152 63.7551 63.4374 67.1582 63.4374 71.327V74.1666H65.2082C65.6684 74.1666 66.0415 73.7934 66.0415 73.3332V69.2272C66.0415 64.9299 62.5256 61.52 58.2284 61.4758C57.6408 61.4697 57.0805 61.3464 56.5707 61.1281C56.5578 61.1556 56.0356 63.5379 56.0291 63.5676V63.5676Z" fill="#BDEFFC"/>
<path d="M45.3313 64.0103C45.4865 64.7155 45.6521 65.4666 45.7927 66.1051C45.3831 66.5906 44.5948 66.3967 44.4582 65.7763C44.0576 63.9573 43.4379 61.1466 43.4292 61.128C44.1719 60.8093 44.8073 60.2895 45.2657 59.6353L46.1552 60.6249C45.3906 61.577 45.0667 62.8114 45.3313 64.0103V64.0103Z" fill="#F1FAFC"/>
<path d="M47.7254 37.696C47.5423 39.1724 46.8948 40.4968 45.8148 41.2994C43.8919 42.7288 42.8125 45.0283 42.8125 47.4242V50.0135C42.8125 51.5581 40.8465 51.8383 40.3576 50.5526C39.9247 49.414 39.6875 48.1789 39.6875 46.8885V39.817C39.6875 39.3739 40.0339 39.0104 40.4762 38.9852C42.1685 38.8887 43.586 37.8275 44.0963 35.8974C44.2411 35.3499 44.8709 35.0998 45.3498 35.4022C45.8764 35.7349 46.4495 36.0736 47.0684 36.4086C47.5328 36.6602 47.7904 37.1719 47.7254 37.696V37.696Z" fill="#FFF3E4"/>
<path d="M51.5698 63.152L53.125 74.1666H46.875L48.3552 63.0687L49.3806 64.2077C49.7117 64.5754 50.2882 64.5754 50.6193 64.2077L51.5698 63.152Z" fill="#FE4F60"/>
<path d="M49.4437 64.278L48.125 74.1666H46.875L48.3552 63.0687L49.4437 64.278Z" fill="#E84857"/>
<path d="M58.2736 60.6428C57.0463 60.6428 55.9328 60.0178 55.2951 58.9709C55.0556 58.5777 54.5428 58.4532 54.1499 58.6926C53.7569 58.932 53.6323 59.4448 53.8717 59.8378C54.3153 60.566 54.9157 61.1539 55.6146 61.5746L54.751 65.4941L52.6688 63.0965C53.0468 62.6619 52.9556 62.1542 52.63 61.8711C52.2829 61.5692 51.7564 61.6058 51.4543 61.9531L49.9891 63.638L46.2983 59.5371C46.6124 58.934 46.8028 58.2719 46.8572 57.5819C54.0003 59.6846 61.1458 54.2935 61.1458 46.888V40C61.1458 39.5398 60.7727 39.1666 60.3124 39.1666C59.8522 39.1666 59.4791 39.5398 59.4791 40V46.888C59.4791 52.1147 55.2268 56.3671 50 56.3671C44.7731 56.3671 40.5208 52.1148 40.5208 46.888V39.8158C42.5524 39.7005 44.2804 38.425 44.8962 36.1133C48.366 38.3354 52.2554 39.7751 56.337 40.3464C56.7945 40.4102 57.2143 40.0911 57.2779 39.6366C57.3416 39.1809 57.0239 38.7597 56.5682 38.6958C52.4119 38.114 48.3561 36.5585 44.7523 34.0073C44.2013 33.6171 43.4341 34.014 43.4375 34.6928C43.4376 34.7135 43.4298 36.7803 41.8621 37.7234C40.8707 38.3199 39.868 38.1273 39.6955 38.1254C39.2696 38.1213 38.9086 38.4409 38.8601 38.8625C38.8509 38.9431 38.8542 38.6686 38.8542 45.5308C38.2975 45.242 37.9167 44.6675 37.9167 44.0062V33.8541C37.9167 32.7628 38.8045 31.875 39.8958 31.875C40.2365 31.875 40.543 31.6675 40.6696 31.3511C41.8079 28.5054 44.5237 26.6667 47.5887 26.6667H54.7353C58.8445 26.6667 62.1874 30.0097 62.1874 34.1188V44.0062C62.1874 44.4664 62.5606 44.8395 63.0208 44.8395C63.481 44.8395 63.8541 44.4664 63.8541 44.0062V34.1188C63.8541 29.0907 59.7635 25 54.7353 25H47.5887C44.0137 25 40.8265 27.0448 39.3299 30.2522C37.5874 30.525 36.25 32.0363 36.25 33.8541V44.0062C36.25 45.6005 37.3654 46.9404 38.8626 47.3001C39.0181 51.5562 41.5709 55.2108 45.2083 56.9499V57.1697C45.2083 58.0982 44.8462 58.9705 44.1888 59.6261C43.0229 60.7887 41.5536 60.6428 41.7261 60.6428C36.9724 60.6428 33.125 64.4897 33.125 69.244V74.1666C33.125 74.6268 33.4981 74.9999 33.9583 74.9999C34.4185 74.9999 34.7917 74.6268 34.7917 74.1666V69.244C34.7917 65.4112 37.8932 62.3094 41.7263 62.3095C42.091 62.3095 42.4551 62.2708 42.8151 62.1938L43.9779 67.4709C44.1251 68.1391 44.9728 68.3538 45.4209 67.8379L47.0627 65.9475L46.0482 74.0632C45.9911 74.5199 46.3152 74.9364 46.7717 74.9934C47.2292 75.0504 47.645 74.7259 47.7021 74.2699L48.8744 64.8906C48.9275 64.9495 49.3907 65.469 49.4501 65.5214C49.794 65.8233 50.318 65.7926 50.6238 65.4477C50.7886 65.2591 50.3624 65.749 51.1236 64.8736L52.2981 74.2698C52.3551 74.7258 52.7707 75.0504 53.2284 74.9933C53.6851 74.9363 54.009 74.5198 53.9519 74.0631L52.9375 65.9474L54.5792 67.8378C55.028 68.3546 55.8753 68.1378 56.0222 67.4707L57.1851 62.1935C57.5381 62.2685 57.902 62.3093 58.2737 62.3093C62.1064 62.3094 65.2083 65.4109 65.2083 69.244V74.1666C65.2083 74.6268 65.5814 74.9999 66.0416 74.9999C66.5018 74.9999 66.8749 74.6268 66.8749 74.1666V69.244C66.8749 64.4901 63.028 60.6426 58.2736 60.6428V60.6428ZM45.2489 65.4941L44.3851 61.5735C44.7028 61.3816 45.0008 61.1532 45.2755 60.8919L47.2959 63.1369L45.2489 65.4941Z" fill="black"/>
</g>
<defs>
<clipPath id="clip0">
<rect width="50" height="50" fill="white" transform="translate(25 25)"/>
</clipPath>
</defs>
</svg>
