<svg width="323" height="192" viewBox="0 0 323 192" fill="none" xmlns="http://www.w3.org/2000/svg">
<g clip-path="url(#clip0)">
<path d="M68.2452 -0.000185904C59.4698 -0.0181304 50.7746 1.98891 42.641 5.90984C42.3135 6.06958 41.9847 6.23008 41.6561 6.39422C29.2952 12.602 18.7487 23.0137 11.3385 36.3243C3.9283 49.635 -0.0159996 65.2526 -7.40346e-05 81.2197V169.845C0.000812276 170.781 0.313619 171.679 0.869721 172.34C1.42582 173.002 2.17981 173.374 2.96625 173.376L3.02515 173.382C60.1984 185.738 115.781 192 168.273 192C169.06 192 169.846 191.998 170.632 191.996C222.231 191.809 272.474 185.547 319.964 173.384L320.034 173.376C320.82 173.374 321.574 173.002 322.13 172.34C322.686 171.679 322.999 170.781 323 169.845V3.53011C322.999 2.59415 322.686 1.69682 322.13 1.03499C321.574 0.373163 320.82 0.000891815 320.034 -0.000161963L68.2452 -0.000185904Z" fill="#6C63FF"/>
<path d="M245.809 70.6811C245.295 70.6911 244.805 70.9413 244.444 71.3776C244.084 71.8139 243.882 72.4014 243.882 73.0134C243.882 73.6254 244.084 74.2129 244.444 74.6492C244.805 75.0855 245.295 75.3357 245.809 75.3457H294.947C295.204 75.3511 295.46 75.296 295.7 75.1836C295.94 75.0712 296.158 74.9037 296.343 74.6906C296.529 74.4776 296.677 74.2232 296.779 73.942C296.882 73.6607 296.937 73.3582 296.941 73.0517C296.945 72.7452 296.899 72.4407 296.804 72.1557C296.709 71.8706 296.568 71.6106 296.389 71.3904C296.21 71.1702 295.996 70.9942 295.759 70.8725C295.523 70.7508 295.269 70.6858 295.011 70.6811C294.99 70.6806 294.968 70.6806 294.947 70.6811H245.809Z" fill="#3F3D56"/>
<path d="M306.09 70.0316C306.054 70.0742 306.026 70.1248 306.006 70.1805C305.987 70.2362 305.977 70.2959 305.977 70.3561C305.977 70.4164 305.987 70.4761 306.006 70.5318C306.026 70.5875 306.054 70.6381 306.09 70.6807L307.745 72.6509H303.663C303.561 72.6509 303.463 72.6993 303.391 72.7853C303.318 72.8714 303.278 72.9881 303.278 73.1099C303.278 73.2316 303.318 73.3483 303.391 73.4344C303.463 73.5205 303.561 73.5688 303.663 73.5688H307.745L306.09 75.5391C306.054 75.5817 306.026 75.6323 306.006 75.688C305.987 75.7436 305.977 75.8033 305.977 75.8636C305.977 75.9239 305.987 75.9835 306.006 76.0392C306.026 76.0949 306.054 76.1455 306.09 76.1881C306.126 76.2307 306.168 76.2646 306.215 76.2876C306.262 76.3107 306.312 76.3225 306.363 76.3225C306.413 76.3225 306.463 76.3107 306.51 76.2876C306.557 76.2646 306.6 76.2307 306.635 76.1881L308.949 73.4344C309.022 73.3483 309.062 73.2316 309.062 73.1099C309.062 72.9881 309.022 72.8714 308.949 72.7853L306.635 70.0316C306.6 69.989 306.557 69.9552 306.51 69.9321C306.463 69.909 306.413 69.8972 306.363 69.8972C306.312 69.8972 306.262 69.909 306.215 69.9321C306.168 69.9552 306.126 69.989 306.09 70.0316Z" fill="white"/>
<path d="M234.645 70.0316C234.681 70.0742 234.71 70.1248 234.729 70.1805C234.748 70.2362 234.758 70.2959 234.758 70.3561C234.758 70.4164 234.748 70.4761 234.729 70.5318C234.71 70.5875 234.681 70.6381 234.645 70.6807L232.99 72.6509H237.072C237.123 72.6507 237.173 72.6625 237.22 72.6855C237.267 72.7084 237.31 72.7422 237.346 72.7849C237.382 72.8275 237.41 72.8782 237.43 72.9339C237.449 72.9897 237.459 73.0495 237.459 73.1099C237.459 73.1702 237.449 73.23 237.43 73.2858C237.41 73.3416 237.382 73.3922 237.346 73.4349C237.31 73.4775 237.267 73.5113 237.22 73.5343C237.173 73.5573 237.123 73.569 237.072 73.5688H232.99L234.645 75.5391C234.718 75.6251 234.758 75.7419 234.758 75.8636C234.758 75.9853 234.718 76.102 234.645 76.1881C234.573 76.2742 234.475 76.3225 234.373 76.3225C234.27 76.3225 234.172 76.2742 234.1 76.1881L231.786 73.4344C231.714 73.3483 231.673 73.2316 231.673 73.1099C231.673 72.9881 231.714 72.8714 231.786 72.7853L234.1 70.0316C234.136 69.989 234.178 69.9552 234.225 69.9321C234.272 69.909 234.322 69.8972 234.373 69.8972C234.423 69.8972 234.474 69.909 234.52 69.9321C234.567 69.9552 234.61 69.989 234.645 70.0316Z" fill="white"/>
<g opacity="0.4">
<path opacity="0.4" d="M247.794 22.272C248.957 22.272 249.9 21.1498 249.9 19.7656C249.9 18.3813 248.957 17.2591 247.794 17.2591C246.631 17.2591 245.688 18.3813 245.688 19.7656C245.688 21.1498 246.631 22.272 247.794 22.272Z" fill="white"/>
<path opacity="0.4" d="M256.569 22.272C257.732 22.272 258.675 21.1498 258.675 19.7656C258.675 18.3813 257.732 17.2591 256.569 17.2591C255.406 17.2591 254.463 18.3813 254.463 19.7656C254.463 21.1498 255.406 22.272 256.569 22.272Z" fill="white"/>
<path opacity="0.4" d="M265.344 22.272C266.507 22.272 267.45 21.1498 267.45 19.7656C267.45 18.3813 266.507 17.2591 265.344 17.2591C264.181 17.2591 263.238 18.3813 263.238 19.7656C263.238 21.1498 264.181 22.272 265.344 22.272Z" fill="white"/>
<path opacity="0.4" d="M274.119 22.272C275.283 22.272 276.226 21.1498 276.226 19.7656C276.226 18.3813 275.283 17.2591 274.119 17.2591C272.956 17.2591 272.013 18.3813 272.013 19.7656C272.013 21.1498 272.956 22.272 274.119 22.272Z" fill="white"/>
<path opacity="0.4" d="M282.895 22.272C284.058 22.272 285.001 21.1498 285.001 19.7656C285.001 18.3813 284.058 17.2591 282.895 17.2591C281.732 17.2591 280.789 18.3813 280.789 19.7656C280.789 21.1498 281.732 22.272 282.895 22.272Z" fill="white"/>
<path opacity="0.4" d="M291.67 22.272C292.833 22.272 293.776 21.1498 293.776 19.7656C293.776 18.3813 292.833 17.2591 291.67 17.2591C290.507 17.2591 289.564 18.3813 289.564 19.7656C289.564 21.1498 290.507 22.272 291.67 22.272Z" fill="white"/>
<path opacity="0.4" d="M300.445 22.272C301.608 22.272 302.551 21.1498 302.551 19.7656C302.551 18.3813 301.608 17.2591 300.445 17.2591C299.282 17.2591 298.339 18.3813 298.339 19.7656C298.339 21.1498 299.282 22.272 300.445 22.272Z" fill="white"/>
<path opacity="0.4" d="M247.794 30.2091C248.957 30.2091 249.9 29.087 249.9 27.7027C249.9 26.3184 248.957 25.1962 247.794 25.1962C246.631 25.1962 245.688 26.3184 245.688 27.7027C245.688 29.087 246.631 30.2091 247.794 30.2091Z" fill="white"/>
<path opacity="0.4" d="M256.569 30.2091C257.732 30.2091 258.675 29.087 258.675 27.7027C258.675 26.3184 257.732 25.1962 256.569 25.1962C255.406 25.1962 254.463 26.3184 254.463 27.7027C254.463 29.087 255.406 30.2091 256.569 30.2091Z" fill="white"/>
<path opacity="0.4" d="M265.344 30.2091C266.507 30.2091 267.45 29.087 267.45 27.7027C267.45 26.3184 266.507 25.1962 265.344 25.1962C264.181 25.1962 263.238 26.3184 263.238 27.7027C263.238 29.087 264.181 30.2091 265.344 30.2091Z" fill="white"/>
<path opacity="0.4" d="M274.119 30.2091C275.283 30.2091 276.226 29.087 276.226 27.7027C276.226 26.3184 275.283 25.1962 274.119 25.1962C272.956 25.1962 272.013 26.3184 272.013 27.7027C272.013 29.087 272.956 30.2091 274.119 30.2091Z" fill="white"/>
<path opacity="0.4" d="M282.895 30.2091C284.058 30.2091 285.001 29.087 285.001 27.7027C285.001 26.3184 284.058 25.1962 282.895 25.1962C281.732 25.1962 280.789 26.3184 280.789 27.7027C280.789 29.087 281.732 30.2091 282.895 30.2091Z" fill="white"/>
<path opacity="0.4" d="M291.67 30.2091C292.833 30.2091 293.776 29.087 293.776 27.7027C293.776 26.3184 292.833 25.1962 291.67 25.1962C290.507 25.1962 289.564 26.3184 289.564 27.7027C289.564 29.087 290.507 30.2091 291.67 30.2091Z" fill="white"/>
<path opacity="0.4" d="M300.445 30.2091C301.608 30.2091 302.551 29.087 302.551 27.7027C302.551 26.3184 301.608 25.1962 300.445 25.1962C299.282 25.1962 298.339 26.3184 298.339 27.7027C298.339 29.087 299.282 30.2091 300.445 30.2091Z" fill="white"/>
<path opacity="0.4" d="M247.794 38.1462C248.957 38.1462 249.9 37.0241 249.9 35.6398C249.9 34.2555 248.957 33.1333 247.794 33.1333C246.631 33.1333 245.688 34.2555 245.688 35.6398C245.688 37.0241 246.631 38.1462 247.794 38.1462Z" fill="white"/>
<path opacity="0.4" d="M256.569 38.1462C257.732 38.1462 258.675 37.0241 258.675 35.6398C258.675 34.2555 257.732 33.1333 256.569 33.1333C255.406 33.1333 254.463 34.2555 254.463 35.6398C254.463 37.0241 255.406 38.1462 256.569 38.1462Z" fill="white"/>
<path opacity="0.4" d="M265.344 38.1462C266.507 38.1462 267.45 37.0241 267.45 35.6398C267.45 34.2555 266.507 33.1333 265.344 33.1333C264.181 33.1333 263.238 34.2555 263.238 35.6398C263.238 37.0241 264.181 38.1462 265.344 38.1462Z" fill="white"/>
<path opacity="0.4" d="M274.119 38.1462C275.283 38.1462 276.226 37.0241 276.226 35.6398C276.226 34.2555 275.283 33.1333 274.119 33.1333C272.956 33.1333 272.013 34.2555 272.013 35.6398C272.013 37.0241 272.956 38.1462 274.119 38.1462Z" fill="white"/>
<path opacity="0.4" d="M282.895 38.1462C284.058 38.1462 285.001 37.0241 285.001 35.6398C285.001 34.2555 284.058 33.1333 282.895 33.1333C281.732 33.1333 280.789 34.2555 280.789 35.6398C280.789 37.0241 281.732 38.1462 282.895 38.1462Z" fill="white"/>
<path opacity="0.4" d="M291.67 38.1462C292.833 38.1462 293.776 37.0241 293.776 35.6398C293.776 34.2555 292.833 33.1333 291.67 33.1333C290.507 33.1333 289.564 34.2555 289.564 35.6398C289.564 37.0241 290.507 38.1462 291.67 38.1462Z" fill="white"/>
<path opacity="0.4" d="M300.445 38.1462C301.608 38.1462 302.551 37.0241 302.551 35.6398C302.551 34.2555 301.608 33.1333 300.445 33.1333C299.282 33.1333 298.339 34.2555 298.339 35.6398C298.339 37.0241 299.282 38.1462 300.445 38.1462Z" fill="white"/>
<path opacity="0.4" d="M247.794 46.0834C248.957 46.0834 249.9 44.9612 249.9 43.5769C249.9 42.1926 248.957 41.0704 247.794 41.0704C246.631 41.0704 245.688 42.1926 245.688 43.5769C245.688 44.9612 246.631 46.0834 247.794 46.0834Z" fill="white"/>
<path opacity="0.4" d="M256.569 46.0834C257.732 46.0834 258.675 44.9612 258.675 43.5769C258.675 42.1926 257.732 41.0704 256.569 41.0704C255.406 41.0704 254.463 42.1926 254.463 43.5769C254.463 44.9612 255.406 46.0834 256.569 46.0834Z" fill="white"/>
<path opacity="0.4" d="M247.794 54.0204C248.957 54.0204 249.9 52.8983 249.9 51.514C249.9 50.1297 248.957 49.0075 247.794 49.0075C246.631 49.0075 245.688 50.1297 245.688 51.514C245.688 52.8983 246.631 54.0204 247.794 54.0204Z" fill="white"/>
<path opacity="0.4" d="M256.569 54.0204C257.732 54.0204 258.675 52.8983 258.675 51.514C258.675 50.1297 257.732 49.0075 256.569 49.0075C255.406 49.0075 254.463 50.1297 254.463 51.514C254.463 52.8983 255.406 54.0204 256.569 54.0204Z" fill="white"/>
<path opacity="0.4" d="M265.344 54.0204C266.507 54.0204 267.45 52.8983 267.45 51.514C267.45 50.1297 266.507 49.0075 265.344 49.0075C264.181 49.0075 263.238 50.1297 263.238 51.514C263.238 52.8983 264.181 54.0204 265.344 54.0204Z" fill="white"/>
<path opacity="0.4" d="M265.344 46.0834C266.507 46.0834 267.45 44.9612 267.45 43.5769C267.45 42.1926 266.507 41.0704 265.344 41.0704C264.181 41.0704 263.238 42.1926 263.238 43.5769C263.238 44.9612 264.181 46.0834 265.344 46.0834Z" fill="white"/>
<path opacity="0.4" d="M274.119 46.0834C275.283 46.0834 276.226 44.9612 276.226 43.5769C276.226 42.1926 275.283 41.0704 274.119 41.0704C272.956 41.0704 272.013 42.1926 272.013 43.5769C272.013 44.9612 272.956 46.0834 274.119 46.0834Z" fill="white"/>
<path opacity="0.4" d="M282.895 46.0834C284.058 46.0834 285.001 44.9612 285.001 43.5769C285.001 42.1926 284.058 41.0704 282.895 41.0704C281.732 41.0704 280.789 42.1926 280.789 43.5769C280.789 44.9612 281.732 46.0834 282.895 46.0834Z" fill="white"/>
<path opacity="0.4" d="M291.67 46.0834C292.833 46.0834 293.776 44.9612 293.776 43.5769C293.776 42.1926 292.833 41.0704 291.67 41.0704C290.507 41.0704 289.564 42.1926 289.564 43.5769C289.564 44.9612 290.507 46.0834 291.67 46.0834Z" fill="white"/>
<path opacity="0.4" d="M300.445 46.0834C301.608 46.0834 302.551 44.9612 302.551 43.5769C302.551 42.1926 301.608 41.0704 300.445 41.0704C299.282 41.0704 298.339 42.1926 298.339 43.5769C298.339 44.9612 299.282 46.0834 300.445 46.0834Z" fill="white"/>
</g>
<path d="M217.582 147.275C215.283 147.275 213.035 146.463 211.124 144.943C209.212 143.423 207.722 141.262 206.842 138.734C205.962 136.206 205.732 133.424 206.18 130.74C206.629 128.056 207.736 125.591 209.362 123.656C210.988 121.721 213.059 120.403 215.314 119.869C217.569 119.335 219.907 119.609 222.031 120.657C224.156 121.704 225.971 123.477 227.249 125.752C228.526 128.028 229.208 130.703 229.208 133.439C229.204 137.107 227.978 140.624 225.799 143.218C223.62 145.812 220.665 147.271 217.582 147.275ZM217.582 120.388C215.413 120.388 213.293 121.153 211.49 122.587C209.686 124.021 208.281 126.06 207.451 128.445C206.621 130.829 206.404 133.454 206.827 135.985C207.25 138.517 208.294 140.842 209.828 142.668C211.362 144.493 213.316 145.736 215.443 146.239C217.57 146.743 219.775 146.485 221.779 145.497C223.783 144.509 225.496 142.836 226.701 140.69C227.906 138.544 228.549 136.02 228.549 133.439C228.545 129.979 227.389 126.661 225.333 124.215C223.277 121.768 220.49 120.392 217.582 120.388Z" fill="#3F3D56"/>
<path d="M222.04 132.113H218.697V128.135C218.697 127.783 218.58 127.446 218.371 127.197C218.162 126.948 217.878 126.808 217.583 126.808C217.287 126.808 217.004 126.948 216.795 127.197C216.586 127.446 216.468 127.783 216.468 128.135V132.113H213.125C212.83 132.113 212.547 132.253 212.338 132.501C212.129 132.75 212.011 133.087 212.011 133.439C212.011 133.791 212.129 134.128 212.338 134.377C212.547 134.625 212.83 134.765 213.125 134.765H216.468V138.744C216.468 139.095 216.586 139.433 216.795 139.681C217.004 139.93 217.287 140.07 217.583 140.07C217.878 140.07 218.162 139.93 218.371 139.681C218.58 139.433 218.697 139.095 218.697 138.744V134.765H222.04C222.335 134.765 222.619 134.625 222.828 134.377C223.037 134.128 223.154 133.791 223.154 133.439C223.154 133.087 223.037 132.75 222.828 132.501C222.619 132.253 222.335 132.113 222.04 132.113Z" fill="white"/>
<g opacity="0.4">
<path opacity="0.4" d="M17.8057 148.973C18.7202 148.973 19.4616 148.091 19.4616 147.003C19.4616 145.914 18.7202 145.032 17.8057 145.032C16.8912 145.032 16.1499 145.914 16.1499 147.003C16.1499 148.091 16.8912 148.973 17.8057 148.973Z" fill="white"/>
<path opacity="0.4" d="M17.8057 140.762C18.7202 140.762 19.4616 139.88 19.4616 138.792C19.4616 137.703 18.7202 136.821 17.8057 136.821C16.8912 136.821 16.1499 137.703 16.1499 138.792C16.1499 139.88 16.8912 140.762 17.8057 140.762Z" fill="white"/>
<path opacity="0.4" d="M17.8057 132.551C18.7202 132.551 19.4616 131.669 19.4616 130.581C19.4616 129.492 18.7202 128.61 17.8057 128.61C16.8912 128.61 16.1499 129.492 16.1499 130.581C16.1499 131.669 16.8912 132.551 17.8057 132.551Z" fill="white"/>
<path opacity="0.4" d="M17.8057 124.34C18.7202 124.34 19.4616 123.458 19.4616 122.37C19.4616 121.281 18.7202 120.399 17.8057 120.399C16.8912 120.399 16.1499 121.281 16.1499 122.37C16.1499 123.458 16.8912 124.34 17.8057 124.34Z" fill="white"/>
<path opacity="0.4" d="M17.8057 116.129C18.7202 116.129 19.4616 115.247 19.4616 114.159C19.4616 113.07 18.7202 112.188 17.8057 112.188C16.8912 112.188 16.1499 113.07 16.1499 114.159C16.1499 115.247 16.8912 116.129 17.8057 116.129Z" fill="white"/>
<path opacity="0.4" d="M17.8057 107.918C18.7202 107.918 19.4616 107.036 19.4616 105.948C19.4616 104.859 18.7202 103.977 17.8057 103.977C16.8912 103.977 16.1499 104.859 16.1499 105.948C16.1499 107.036 16.8912 107.918 17.8057 107.918Z" fill="white"/>
<path opacity="0.4" d="M17.8057 99.7074C18.7202 99.7074 19.4616 98.8251 19.4616 97.7367C19.4616 96.6484 18.7202 95.7661 17.8057 95.7661C16.8912 95.7661 16.1499 96.6484 16.1499 97.7367C16.1499 98.8251 16.8912 99.7074 17.8057 99.7074Z" fill="white"/>
<path opacity="0.4" d="M23.0493 148.973C23.9638 148.973 24.7051 148.091 24.7051 147.003C24.7051 145.914 23.9638 145.032 23.0493 145.032C22.1348 145.032 21.3934 145.914 21.3934 147.003C21.3934 148.091 22.1348 148.973 23.0493 148.973Z" fill="white"/>
<path opacity="0.4" d="M23.0493 140.762C23.9638 140.762 24.7051 139.88 24.7051 138.792C24.7051 137.703 23.9638 136.821 23.0493 136.821C22.1348 136.821 21.3934 137.703 21.3934 138.792C21.3934 139.88 22.1348 140.762 23.0493 140.762Z" fill="white"/>
<path opacity="0.4" d="M23.0493 132.551C23.9638 132.551 24.7051 131.669 24.7051 130.581C24.7051 129.492 23.9638 128.61 23.0493 128.61C22.1348 128.61 21.3934 129.492 21.3934 130.581C21.3934 131.669 22.1348 132.551 23.0493 132.551Z" fill="white"/>
<path opacity="0.4" d="M23.0493 124.34C23.9638 124.34 24.7051 123.458 24.7051 122.37C24.7051 121.281 23.9638 120.399 23.0493 120.399C22.1348 120.399 21.3934 121.281 21.3934 122.37C21.3934 123.458 22.1348 124.34 23.0493 124.34Z" fill="white"/>
<path opacity="0.4" d="M23.0493 116.129C23.9638 116.129 24.7051 115.247 24.7051 114.159C24.7051 113.07 23.9638 112.188 23.0493 112.188C22.1348 112.188 21.3934 113.07 21.3934 114.159C21.3934 115.247 22.1348 116.129 23.0493 116.129Z" fill="white"/>
<path opacity="0.4" d="M23.0493 107.918C23.9638 107.918 24.7051 107.036 24.7051 105.948C24.7051 104.859 23.9638 103.977 23.0493 103.977C22.1348 103.977 21.3934 104.859 21.3934 105.948C21.3934 107.036 22.1348 107.918 23.0493 107.918Z" fill="white"/>
<path opacity="0.4" d="M23.0493 99.7074C23.9638 99.7074 24.7051 98.8251 24.7051 97.7367C24.7051 96.6484 23.9638 95.7661 23.0493 95.7661C22.1348 95.7661 21.3934 96.6484 21.3934 97.7367C21.3934 98.8251 22.1348 99.7074 23.0493 99.7074Z" fill="white"/>
<path opacity="0.4" d="M28.2927 148.973C29.2072 148.973 29.9485 148.091 29.9485 147.003C29.9485 145.914 29.2072 145.032 28.2927 145.032C27.3782 145.032 26.6368 145.914 26.6368 147.003C26.6368 148.091 27.3782 148.973 28.2927 148.973Z" fill="white"/>
<path opacity="0.4" d="M28.2927 140.762C29.2072 140.762 29.9485 139.88 29.9485 138.792C29.9485 137.703 29.2072 136.821 28.2927 136.821C27.3782 136.821 26.6368 137.703 26.6368 138.792C26.6368 139.88 27.3782 140.762 28.2927 140.762Z" fill="white"/>
<path opacity="0.4" d="M28.2927 132.551C29.2072 132.551 29.9485 131.669 29.9485 130.581C29.9485 129.492 29.2072 128.61 28.2927 128.61C27.3782 128.61 26.6368 129.492 26.6368 130.581C26.6368 131.669 27.3782 132.551 28.2927 132.551Z" fill="white"/>
<path opacity="0.4" d="M28.2927 124.34C29.2072 124.34 29.9485 123.458 29.9485 122.37C29.9485 121.281 29.2072 120.399 28.2927 120.399C27.3782 120.399 26.6368 121.281 26.6368 122.37C26.6368 123.458 27.3782 124.34 28.2927 124.34Z" fill="white"/>
<path opacity="0.4" d="M28.2927 116.129C29.2072 116.129 29.9485 115.247 29.9485 114.159C29.9485 113.07 29.2072 112.188 28.2927 112.188C27.3782 112.188 26.6368 113.07 26.6368 114.159C26.6368 115.247 27.3782 116.129 28.2927 116.129Z" fill="white"/>
<path opacity="0.4" d="M28.2927 107.918C29.2072 107.918 29.9485 107.036 29.9485 105.948C29.9485 104.859 29.2072 103.977 28.2927 103.977C27.3782 103.977 26.6368 104.859 26.6368 105.948C26.6368 107.036 27.3782 107.918 28.2927 107.918Z" fill="white"/>
<path opacity="0.4" d="M28.2927 99.7074C29.2072 99.7074 29.9485 98.8251 29.9485 97.7367C29.9485 96.6484 29.2072 95.7661 28.2927 95.7661C27.3782 95.7661 26.6368 96.6484 26.6368 97.7367C26.6368 98.8251 27.3782 99.7074 28.2927 99.7074Z" fill="white"/>
<path opacity="0.4" d="M33.5362 148.973C34.4507 148.973 35.192 148.091 35.192 147.003C35.192 145.914 34.4507 145.032 33.5362 145.032C32.6217 145.032 31.8804 145.914 31.8804 147.003C31.8804 148.091 32.6217 148.973 33.5362 148.973Z" fill="white"/>
<path opacity="0.4" d="M33.5362 140.762C34.4507 140.762 35.192 139.88 35.192 138.792C35.192 137.703 34.4507 136.821 33.5362 136.821C32.6217 136.821 31.8804 137.703 31.8804 138.792C31.8804 139.88 32.6217 140.762 33.5362 140.762Z" fill="white"/>
<path opacity="0.4" d="M38.7797 148.973C39.6942 148.973 40.4356 148.091 40.4356 147.003C40.4356 145.914 39.6942 145.032 38.7797 145.032C37.8652 145.032 37.1239 145.914 37.1239 147.003C37.1239 148.091 37.8652 148.973 38.7797 148.973Z" fill="white"/>
<path opacity="0.4" d="M38.7797 140.762C39.6942 140.762 40.4356 139.88 40.4356 138.792C40.4356 137.703 39.6942 136.821 38.7797 136.821C37.8652 136.821 37.1239 137.703 37.1239 138.792C37.1239 139.88 37.8652 140.762 38.7797 140.762Z" fill="white"/>
<path opacity="0.4" d="M38.7797 132.551C39.6942 132.551 40.4356 131.669 40.4356 130.581C40.4356 129.492 39.6942 128.61 38.7797 128.61C37.8652 128.61 37.1239 129.492 37.1239 130.581C37.1239 131.669 37.8652 132.551 38.7797 132.551Z" fill="white"/>
<path opacity="0.4" d="M33.5362 132.551C34.4507 132.551 35.192 131.669 35.192 130.581C35.192 129.492 34.4507 128.61 33.5362 128.61C32.6217 128.61 31.8804 129.492 31.8804 130.581C31.8804 131.669 32.6217 132.551 33.5362 132.551Z" fill="white"/>
<path opacity="0.4" d="M33.5362 124.34C34.4507 124.34 35.192 123.458 35.192 122.37C35.192 121.281 34.4507 120.399 33.5362 120.399C32.6217 120.399 31.8804 121.281 31.8804 122.37C31.8804 123.458 32.6217 124.34 33.5362 124.34Z" fill="white"/>
<path opacity="0.4" d="M33.5362 116.129C34.4507 116.129 35.192 115.247 35.192 114.159C35.192 113.07 34.4507 112.188 33.5362 112.188C32.6217 112.188 31.8804 113.07 31.8804 114.159C31.8804 115.247 32.6217 116.129 33.5362 116.129Z" fill="white"/>
<path opacity="0.4" d="M33.5362 107.918C34.4507 107.918 35.192 107.036 35.192 105.948C35.192 104.859 34.4507 103.977 33.5362 103.977C32.6217 103.977 31.8804 104.859 31.8804 105.948C31.8804 107.036 32.6217 107.918 33.5362 107.918Z" fill="white"/>
<path opacity="0.4" d="M33.5362 99.7074C34.4507 99.7074 35.192 98.8251 35.192 97.7367C35.192 96.6484 34.4507 95.7661 33.5362 95.7661C32.6217 95.7661 31.8804 96.6484 31.8804 97.7367C31.8804 98.8251 32.6217 99.7074 33.5362 99.7074Z" fill="white"/>
</g>
<path d="M163.942 12.9452H53.9432C53.4029 12.9459 52.8849 13.2016 52.5029 13.6562C52.1209 14.1109 51.9061 14.7273 51.9055 15.3703V127.313C51.9061 127.956 52.1209 128.572 52.5029 129.027C52.8849 129.481 53.4029 129.737 53.9432 129.738H163.942C164.482 129.737 165 129.481 165.382 129.027C165.764 128.572 165.979 127.956 165.979 127.313V15.3702C165.979 14.7273 165.764 14.1108 165.382 13.6562C165 13.2016 164.482 12.9459 163.942 12.9452ZM165.163 127.313C165.163 127.698 165.034 128.068 164.805 128.342C164.576 128.615 164.266 128.769 163.942 128.77H53.9432C53.6188 128.77 53.308 128.616 53.079 128.342C52.85 128.069 52.7216 127.699 52.7221 127.313V15.3702C52.7216 14.9842 52.85 14.6138 53.079 14.3404C53.308 14.067 53.6188 13.9131 53.9432 13.9125H163.942C164.266 13.9139 164.576 14.068 164.805 14.3413C165.034 14.6145 165.163 14.9845 165.163 15.3702V127.313Z" fill="#3F3D56"/>
<path d="M79.3335 109.833C79.3335 110.006 79.3297 110.178 79.3221 110.346C79.2112 112.873 78.2898 115.252 76.748 116.994C75.2062 118.735 73.1617 119.706 71.036 119.706C68.9104 119.706 66.8658 118.735 65.324 116.994C63.7823 115.252 62.8609 112.873 62.75 110.346C62.7423 110.178 62.7385 110.006 62.7385 109.833C62.7378 108.536 62.952 107.251 63.3686 106.052C63.7853 104.854 64.3964 103.764 65.167 102.847C65.9375 101.929 66.8525 101.201 67.8595 100.704C68.8665 100.208 69.9459 99.952 71.036 99.952C72.1261 99.952 73.2055 100.208 74.2126 100.704C75.2196 101.201 76.1345 101.929 76.9051 102.847C77.6757 103.764 78.2867 104.854 78.7034 106.052C79.1201 107.251 79.3342 108.536 79.3335 109.833Z" fill="white"/>
<path d="M155.394 103.248H90.1973C89.8308 103.249 89.4795 103.423 89.2205 103.731C88.9616 104.04 88.8162 104.458 88.8162 104.895C88.8162 105.331 88.9616 105.749 89.2205 106.058C89.4795 106.366 89.8308 106.54 90.1973 106.541H155.394C155.761 106.54 156.112 106.366 156.371 106.058C156.63 105.749 156.776 105.331 156.776 104.895C156.776 104.458 156.63 104.04 156.371 103.731C156.112 103.423 155.761 103.249 155.394 103.248Z" fill="#3F3D56"/>
<path d="M118.251 113.126H90.1972C89.8309 113.126 89.4795 113.299 89.2205 113.607C88.9614 113.915 88.8159 114.334 88.8159 114.77C88.8159 115.206 88.9614 115.624 89.2205 115.932C89.4795 116.24 89.8309 116.414 90.1972 116.414H118.251C118.618 116.414 118.969 116.24 119.228 115.932C119.487 115.624 119.632 115.206 119.632 114.77C119.632 114.334 119.487 113.915 119.228 113.607C118.969 113.299 118.618 113.126 118.251 113.126Z" fill="white"/>
<path d="M190.075 91.6228H80.0769C79.3298 91.6217 78.6136 91.268 78.0854 90.6393C77.5572 90.0106 77.2601 89.1582 77.2593 88.2691V30.819C77.2601 29.93 77.5572 29.0776 78.0854 28.4489C78.6137 27.8202 79.3299 27.4666 80.0769 27.4655H190.075C190.822 27.4666 191.538 27.8202 192.066 28.4489C192.595 29.0776 192.892 29.93 192.893 30.819V88.2691C192.892 89.1582 192.595 90.0106 192.066 90.6393C191.538 91.268 190.822 91.6217 190.075 91.6228ZM80.0769 28.6423C79.592 28.643 79.1271 28.8725 78.7843 29.2806C78.4414 29.6887 78.2486 30.2419 78.2481 30.819V88.2691C78.2486 88.8462 78.4414 89.3995 78.7843 89.8076C79.1271 90.2157 79.592 90.4453 80.0769 90.446H190.075C190.56 90.4453 191.025 90.2157 191.368 89.8076C191.71 89.3995 191.903 88.8462 191.904 88.2691V30.819C191.903 30.2419 191.71 29.6887 191.368 29.2806C191.025 28.8725 190.56 28.643 190.075 28.6423H80.0769Z" fill="white"/>
<path d="M102.478 48.4194C102.111 48.4194 101.76 48.5928 101.5 48.9015C101.241 49.2102 101.095 49.6288 101.095 50.0653C101.095 50.5018 101.241 50.9204 101.5 51.2291C101.76 51.5378 102.111 51.7112 102.478 51.7112H167.674C168.041 51.7112 168.392 51.5378 168.652 51.2291C168.911 50.9204 169.057 50.5018 169.057 50.0653C169.057 49.6288 168.911 49.2102 168.652 48.9015C168.392 48.5928 168.041 48.4194 167.674 48.4194H102.478Z" fill="white"/>
<path d="M102.478 57.9561C102.111 57.9561 101.76 58.1295 101.5 58.4382C101.241 58.7468 101.095 59.1655 101.095 59.602C101.095 60.0385 101.241 60.4571 101.5 60.7658C101.76 61.0744 102.111 61.2478 102.478 61.2478H167.674C168.04 61.2472 168.391 61.0735 168.65 60.7649C168.909 60.4563 169.055 60.038 169.055 59.602C169.055 59.1659 168.909 58.7477 168.65 58.4391C168.391 58.1305 168.04 57.9568 167.674 57.9561H102.478Z" fill="white"/>
<path d="M102.478 67.3771C102.111 67.3771 101.76 67.5505 101.5 67.8592C101.241 68.1679 101.095 68.5865 101.095 69.023C101.095 69.4595 101.241 69.8781 101.5 70.1868C101.76 70.4954 102.111 70.6688 102.478 70.6688H130.532C130.898 70.6682 131.25 70.4945 131.508 70.1859C131.767 69.8773 131.913 69.4591 131.913 69.023C131.913 68.5869 131.767 68.1687 131.508 67.8601C131.25 67.5515 130.898 67.3778 130.532 67.3771H102.478Z" fill="white"/>
<path d="M208.211 115.963L197.163 97.4063L200.74 98.2933C200.803 98.309 200.869 98.3097 200.933 98.2953C200.996 98.2809 201.057 98.2517 201.112 98.2093C201.166 98.1669 201.213 98.1122 201.249 98.0483C201.286 97.9844 201.312 97.9125 201.325 97.8368C201.338 97.7611 201.339 97.6831 201.327 97.6071C201.314 97.5311 201.29 97.4587 201.254 97.3941C201.219 97.3294 201.173 97.2737 201.119 97.2302C201.065 97.1866 201.005 97.1561 200.941 97.1403L195.612 95.8199L194.892 102.241C194.883 102.318 194.887 102.396 194.904 102.471C194.921 102.546 194.95 102.616 194.989 102.678C195.028 102.739 195.078 102.791 195.134 102.83C195.19 102.869 195.253 102.894 195.317 102.904C195.382 102.915 195.447 102.91 195.51 102.89C195.573 102.87 195.632 102.835 195.684 102.788C195.735 102.741 195.779 102.682 195.811 102.615C195.844 102.548 195.865 102.474 195.873 102.397L196.355 98.0847L207.404 116.643C207.442 116.706 207.489 116.76 207.544 116.801C207.599 116.842 207.661 116.87 207.725 116.883C207.789 116.896 207.854 116.894 207.917 116.877C207.981 116.859 208.041 116.828 208.093 116.783C208.146 116.738 208.191 116.682 208.226 116.616C208.261 116.551 208.284 116.478 208.295 116.402C208.306 116.326 208.304 116.248 208.29 116.172C208.275 116.097 208.248 116.026 208.211 115.963V115.963Z" fill="white"/>
<path d="M148.206 169.971H69.6786C69.293 169.971 68.9234 169.788 68.6508 169.464C68.3782 169.139 68.2248 168.699 68.2244 168.24V145.058C68.2248 144.599 68.3782 144.159 68.6508 143.835C68.9234 143.51 69.293 143.328 69.6786 143.327H148.206C148.592 143.328 148.961 143.51 149.234 143.835C149.507 144.159 149.66 144.599 149.66 145.058V168.24C149.66 168.699 149.507 169.139 149.234 169.464C148.961 169.788 148.592 169.971 148.206 169.971ZM69.6786 144.019C69.4472 144.02 69.2255 144.129 69.0619 144.324C68.8983 144.519 68.8063 144.782 68.806 145.058V168.24C68.8063 168.516 68.8983 168.78 69.0619 168.974C69.2255 169.169 69.4472 169.279 69.6786 169.279H148.206C148.438 169.279 148.659 169.169 148.823 168.974C148.986 168.78 149.078 168.516 149.079 168.24V145.058C149.078 144.782 148.986 144.519 148.823 144.324C148.659 144.129 148.438 144.02 148.206 144.019H69.6786Z" fill="#3F3D56"/>
<path d="M81.8802 162.809C85.1518 162.809 87.8039 159.653 87.8039 155.76C87.8039 151.866 85.1518 148.71 81.8802 148.71C78.6087 148.71 75.9565 151.866 75.9565 155.76C75.9565 159.653 78.6087 162.809 81.8802 162.809Z" fill="white"/>
<path d="M95.5611 151.06C95.4313 151.059 95.3027 151.09 95.1827 151.148C95.0627 151.207 94.9537 151.294 94.8618 151.403C94.77 151.512 94.6971 151.642 94.6473 151.785C94.5976 151.927 94.572 152.08 94.572 152.235C94.572 152.389 94.5976 152.542 94.6473 152.685C94.6971 152.827 94.77 152.957 94.8618 153.066C94.9537 153.175 95.0627 153.262 95.1827 153.321C95.3027 153.38 95.4313 153.41 95.5611 153.41H142.104C142.366 153.41 142.617 153.286 142.803 153.065C142.988 152.845 143.092 152.546 143.092 152.235C143.092 151.923 142.988 151.624 142.803 151.404C142.617 151.183 142.366 151.06 142.104 151.06H95.5611Z" fill="white"/>
<path d="M95.5611 158.11C95.4313 158.109 95.3027 158.139 95.1827 158.198C95.0627 158.257 94.9537 158.344 94.8618 158.453C94.77 158.562 94.6971 158.692 94.6473 158.834C94.5976 158.977 94.572 159.13 94.572 159.285C94.572 159.439 94.5976 159.592 94.6473 159.735C94.6971 159.877 94.77 160.007 94.8618 160.116C94.9537 160.225 95.0627 160.312 95.1827 160.371C95.3027 160.43 95.4313 160.46 95.5611 160.46H115.589C115.851 160.46 116.102 160.336 116.287 160.115C116.472 159.895 116.576 159.596 116.576 159.285C116.576 158.973 116.472 158.674 116.287 158.454C116.102 158.233 115.851 158.11 115.589 158.11H95.5611Z" fill="white"/>
<path d="M251.816 87.3766H286.718C287.103 87.3771 287.473 87.5596 287.745 87.8841C288.018 88.2085 288.171 88.6484 288.172 89.1072V132.366C288.171 132.825 288.018 133.265 287.745 133.589C287.473 133.913 287.103 134.096 286.718 134.097H251.816C251.431 134.096 251.061 133.913 250.788 133.589C250.516 133.265 250.363 132.825 250.362 132.366V89.1072C250.363 88.6484 250.516 88.2085 250.788 87.8841C251.061 87.5596 251.431 87.3771 251.816 87.3766ZM286.718 133.404C286.949 133.404 287.171 133.294 287.334 133.1C287.498 132.905 287.59 132.641 287.59 132.366V89.1072C287.59 88.8319 287.498 88.568 287.334 88.3733C287.171 88.1786 286.949 88.0691 286.718 88.0688H251.816C251.585 88.0691 251.363 88.1786 251.2 88.3733C251.036 88.568 250.944 88.8319 250.944 89.1072V132.366C250.944 132.641 251.036 132.905 251.2 133.1C251.363 133.294 251.585 133.404 251.816 133.404H286.718Z" fill="#3F3D56"/>
<path d="M279.281 125.176C279.542 125.176 279.794 125.052 279.979 124.832C280.164 124.611 280.268 124.312 280.268 124.001C280.268 123.689 280.164 123.39 279.979 123.17C279.794 122.95 279.542 122.826 279.281 122.826H259.253C258.991 122.826 258.74 122.95 258.555 123.17C258.37 123.39 258.266 123.689 258.266 124.001C258.266 124.312 258.37 124.611 258.555 124.832C258.74 125.052 258.991 125.176 259.253 125.176H279.281Z" fill="white"/>
<path d="M279.281 118.253C279.411 118.253 279.539 118.223 279.659 118.164C279.779 118.105 279.888 118.019 279.98 117.91C280.072 117.801 280.145 117.671 280.195 117.528C280.244 117.386 280.27 117.233 280.27 117.078C280.27 116.924 280.244 116.771 280.195 116.628C280.145 116.485 280.072 116.356 279.98 116.247C279.888 116.137 279.779 116.051 279.659 115.992C279.539 115.933 279.411 115.903 279.281 115.903H259.253C259.123 115.903 258.995 115.933 258.875 115.992C258.755 116.051 258.646 116.137 258.554 116.247C258.462 116.356 258.389 116.485 258.339 116.628C258.29 116.771 258.264 116.924 258.264 117.078C258.264 117.233 258.29 117.386 258.339 117.528C258.389 117.671 258.462 117.801 258.554 117.91C258.646 118.019 258.755 118.105 258.875 118.164C258.995 118.223 259.123 118.253 259.253 118.253H279.281Z" fill="white"/>
<path d="M269.267 96.2972C270.496 96.2972 271.697 96.731 272.719 97.5437C273.741 98.3564 274.538 99.5115 275.008 100.863C275.479 102.214 275.602 103.701 275.362 105.136C275.122 106.571 274.53 107.889 273.661 108.923C272.792 109.957 271.685 110.662 270.479 110.947C269.274 111.232 268.024 111.086 266.889 110.526C265.753 109.966 264.782 109.018 264.1 107.802C263.417 106.586 263.052 105.156 263.052 103.693C263.054 101.732 263.709 99.8525 264.874 98.4659C266.04 97.0794 267.619 96.2995 269.267 96.2972Z" fill="white"/>
</g>
<defs>
<clipPath id="clip0">
<rect width="323" height="192" fill="white"/>
</clipPath>
</defs>
</svg>
