<svg width="833" height="62" viewBox="0 0 833 62" fill="none" xmlns="http://www.w3.org/2000/svg">
<path d="M14.056 10.264C14.056 13.16 13.264 15.344 11.68 16.816C10.112 18.272 7.92 19 5.104 19H0.328V1.864H5.608C7.336 1.864 8.832 2.184 10.096 2.824C11.36 3.464 12.336 4.408 13.024 5.656C13.712 6.888 14.056 8.424 14.056 10.264ZM11.776 10.336C11.776 8.048 11.208 6.376 10.072 5.32C8.952 4.248 7.36 3.712 5.296 3.712H2.488V17.152H4.816C9.456 17.152 11.776 14.88 11.776 10.336ZM22.5393 5.896C23.6433 5.896 24.5873 6.136 25.3713 6.616C26.1713 7.096 26.7793 7.776 27.1953 8.656C27.6273 9.52 27.8433 10.536 27.8433 11.704V12.976H19.0353C19.0673 14.432 19.4353 15.544 20.1393 16.312C20.8593 17.064 21.8593 17.44 23.1393 17.44C23.9553 17.44 24.6753 17.368 25.2993 17.224C25.9393 17.064 26.5953 16.84 27.2673 16.552V18.4C26.6113 18.688 25.9633 18.896 25.3233 19.024C24.6833 19.168 23.9233 19.24 23.0433 19.24C21.8273 19.24 20.7473 18.992 19.8033 18.496C18.8753 18 18.1473 17.264 17.6193 16.288C17.1073 15.296 16.8513 14.088 16.8513 12.664C16.8513 11.256 17.0833 10.048 17.5473 9.04C18.0273 8.032 18.6913 7.256 19.5393 6.712C20.4033 6.168 21.4033 5.896 22.5393 5.896ZM22.5153 7.624C21.5073 7.624 20.7073 7.952 20.1153 8.608C19.5393 9.248 19.1953 10.144 19.0833 11.296H25.6353C25.6193 10.208 25.3633 9.328 24.8673 8.656C24.3713 7.968 23.5873 7.624 22.5153 7.624ZM33.4814 19L28.6094 6.136H30.8654L33.6014 13.72C33.7294 14.072 33.8654 14.464 34.0094 14.896C34.1534 15.328 34.2814 15.744 34.3934 16.144C34.5054 16.528 34.5854 16.856 34.6334 17.128H34.7294C34.7934 16.856 34.8814 16.52 34.9934 16.12C35.1214 15.72 35.2574 15.304 35.4014 14.872C35.5614 14.44 35.6974 14.056 35.8094 13.72L38.5454 6.136H40.8014L35.9054 19H33.4814ZM43.1249 1.864H48.0209C50.1649 1.864 51.7809 2.184 52.8689 2.824C53.9729 3.448 54.5249 4.544 54.5249 6.112C54.5249 7.12 54.2449 7.96 53.6849 8.632C53.1249 9.288 52.3169 9.712 51.2609 9.904V10.024C51.9809 10.136 52.6289 10.344 53.2049 10.648C53.7969 10.952 54.2609 11.384 54.5969 11.944C54.9329 12.504 55.1009 13.232 55.1009 14.128C55.1009 15.68 54.5649 16.88 53.4929 17.728C52.4369 18.576 50.9889 19 49.1489 19H43.1249V1.864ZM45.2849 9.16H48.4529C49.9249 9.16 50.9329 8.928 51.4769 8.464C52.0209 7.984 52.2929 7.28 52.2929 6.352C52.2929 5.408 51.9569 4.736 51.2849 4.336C50.6289 3.92 49.5729 3.712 48.1169 3.712H45.2849V9.16ZM45.2849 10.96V17.176H48.7409C50.2609 17.176 51.3169 16.88 51.9089 16.288C52.5009 15.696 52.7969 14.92 52.7969 13.96C52.7969 13.064 52.4849 12.344 51.8609 11.8C51.2529 11.24 50.1569 10.96 48.5729 10.96H45.2849ZM64.4463 5.896C64.6863 5.896 64.9423 5.912 65.2143 5.944C65.5023 5.96 65.7503 5.992 65.9583 6.04L65.6943 7.984C65.4863 7.936 65.2543 7.896 64.9983 7.864C64.7583 7.832 64.5263 7.816 64.3023 7.816C63.6463 7.816 63.0303 8 62.4543 8.368C61.8783 8.72 61.4143 9.224 61.0623 9.88C60.7263 10.52 60.5583 11.272 60.5583 12.136V19H58.4463V6.136H60.1743L60.4143 8.488H60.5103C60.9263 7.784 61.4623 7.176 62.1183 6.664C62.7743 6.152 63.5503 5.896 64.4463 5.896ZM72.7636 5.92C74.3316 5.92 75.4916 6.264 76.2436 6.952C76.9956 7.64 77.3716 8.736 77.3716 10.24V19H75.8356L75.4276 17.176H75.3316C74.7716 17.88 74.1796 18.4 73.5556 18.736C72.9476 19.072 72.0996 19.24 71.0116 19.24C69.8436 19.24 68.8756 18.936 68.1076 18.328C67.3396 17.704 66.9556 16.736 66.9556 15.424C66.9556 14.144 67.4596 13.16 68.4676 12.472C69.4756 11.768 71.0276 11.384 73.1236 11.32L75.3076 11.248V10.48C75.3076 9.408 75.0756 8.664 74.6116 8.248C74.1476 7.832 73.4916 7.624 72.6436 7.624C71.9716 7.624 71.3316 7.728 70.7236 7.936C70.1156 8.128 69.5476 8.352 69.0196 8.608L68.3716 7.024C68.9316 6.72 69.5956 6.464 70.3636 6.256C71.1316 6.032 71.9316 5.92 72.7636 5.92ZM75.2836 12.712L73.3876 12.784C71.7876 12.848 70.6756 13.104 70.0516 13.552C69.4436 14 69.1396 14.632 69.1396 15.448C69.1396 16.168 69.3556 16.696 69.7876 17.032C70.2356 17.368 70.8036 17.536 71.4916 17.536C72.5796 17.536 73.4836 17.24 74.2036 16.648C74.9236 16.04 75.2836 15.112 75.2836 13.864V12.712ZM82.4247 1.312C82.7447 1.312 83.0247 1.424 83.2647 1.648C83.5207 1.856 83.6487 2.192 83.6487 2.656C83.6487 3.104 83.5207 3.44 83.2647 3.664C83.0247 3.888 82.7447 4 82.4247 4C82.0727 4 81.7767 3.888 81.5367 3.664C81.2967 3.44 81.1767 3.104 81.1767 2.656C81.1767 2.192 81.2967 1.856 81.5367 1.648C81.7767 1.424 82.0727 1.312 82.4247 1.312ZM83.4567 6.136V19H81.3447V6.136H83.4567ZM93.7242 5.896C95.2602 5.896 96.4202 6.272 97.2042 7.024C97.9882 7.76 98.3802 8.96 98.3802 10.624V19H96.2922V10.768C96.2922 8.704 95.3322 7.672 93.4122 7.672C91.9882 7.672 91.0042 8.072 90.4602 8.872C89.9162 9.672 89.6442 10.824 89.6442 12.328V19H87.5322V6.136H89.2362L89.5482 7.888H89.6682C90.0842 7.216 90.6602 6.72 91.3962 6.4C92.1322 6.064 92.9082 5.896 93.7242 5.896ZM110.744 15.448C110.744 16.696 110.28 17.64 109.352 18.28C108.424 18.92 107.176 19.24 105.608 19.24C104.712 19.24 103.936 19.168 103.28 19.024C102.64 18.88 102.072 18.68 101.576 18.424V16.504C102.088 16.76 102.704 17 103.424 17.224C104.16 17.432 104.904 17.536 105.656 17.536C106.728 17.536 107.504 17.368 107.984 17.032C108.464 16.68 108.704 16.216 108.704 15.64C108.704 15.32 108.616 15.032 108.44 14.776C108.264 14.52 107.944 14.264 107.48 14.008C107.032 13.752 106.384 13.464 105.536 13.144C104.704 12.824 103.992 12.504 103.4 12.184C102.808 11.864 102.352 11.48 102.032 11.032C101.712 10.584 101.552 10.008 101.552 9.304C101.552 8.216 101.992 7.376 102.872 6.784C103.768 6.192 104.936 5.896 106.376 5.896C107.16 5.896 107.888 5.976 108.56 6.136C109.248 6.28 109.888 6.488 110.48 6.76L109.76 8.44C109.216 8.216 108.648 8.024 108.056 7.864C107.464 7.704 106.856 7.624 106.232 7.624C105.368 7.624 104.704 7.768 104.24 8.056C103.792 8.328 103.568 8.704 103.568 9.184C103.568 9.536 103.672 9.84 103.88 10.096C104.088 10.336 104.432 10.576 104.912 10.816C105.408 11.04 106.064 11.312 106.88 11.632C107.696 11.936 108.392 12.248 108.968 12.568C109.544 12.888 109.984 13.28 110.288 13.744C110.592 14.192 110.744 14.76 110.744 15.448ZM123.861 14.416C123.861 15.936 123.309 17.12 122.205 17.968C121.101 18.816 119.613 19.24 117.741 19.24C116.781 19.24 115.893 19.168 115.077 19.024C114.261 18.88 113.581 18.68 113.037 18.424V16.36C113.613 16.616 114.325 16.848 115.173 17.056C116.037 17.264 116.925 17.368 117.837 17.368C119.117 17.368 120.077 17.12 120.717 16.624C121.373 16.128 121.701 15.456 121.701 14.608C121.701 14.048 121.581 13.576 121.341 13.192C121.101 12.808 120.685 12.456 120.093 12.136C119.517 11.8 118.709 11.448 117.669 11.08C116.213 10.552 115.109 9.904 114.357 9.136C113.621 8.368 113.253 7.32 113.253 5.992C113.253 5.08 113.485 4.304 113.949 3.664C114.413 3.008 115.053 2.504 115.869 2.152C116.701 1.8 117.653 1.624 118.725 1.624C119.669 1.624 120.533 1.712 121.317 1.888C122.101 2.064 122.813 2.296 123.453 2.584L122.781 4.432C122.189 4.176 121.541 3.96 120.837 3.784C120.149 3.608 119.429 3.52 118.677 3.52C117.605 3.52 116.797 3.752 116.253 4.216C115.709 4.664 115.437 5.264 115.437 6.016C115.437 6.592 115.557 7.072 115.797 7.456C116.037 7.84 116.429 8.184 116.973 8.488C117.517 8.792 118.253 9.12 119.181 9.472C120.189 9.84 121.037 10.24 121.725 10.672C122.429 11.088 122.957 11.592 123.309 12.184C123.677 12.776 123.861 13.52 123.861 14.416ZM131.32 17.512C131.64 17.512 131.968 17.488 132.304 17.44C132.64 17.376 132.912 17.312 133.12 17.248V18.856C132.896 18.968 132.576 19.056 132.16 19.12C131.744 19.2 131.344 19.24 130.96 19.24C130.288 19.24 129.664 19.128 129.088 18.904C128.528 18.664 128.072 18.256 127.72 17.68C127.368 17.104 127.192 16.296 127.192 15.256V7.768H125.368V6.76L127.216 5.92L128.056 3.184H129.304V6.136H133.024V7.768H129.304V15.208C129.304 15.992 129.488 16.576 129.856 16.96C130.24 17.328 130.728 17.512 131.32 17.512ZM146.448 6.136V19H144.72L144.408 17.296H144.312C143.896 17.968 143.32 18.464 142.584 18.784C141.848 19.088 141.064 19.24 140.232 19.24C138.68 19.24 137.512 18.872 136.728 18.136C135.944 17.384 135.552 16.192 135.552 14.56V6.136H137.688V14.416C137.688 16.464 138.64 17.488 140.544 17.488C141.968 17.488 142.952 17.088 143.496 16.288C144.056 15.488 144.336 14.336 144.336 12.832V6.136H146.448ZM155.092 19.24C153.492 19.24 152.212 18.688 151.252 17.584C150.292 16.464 149.812 14.8 149.812 12.592C149.812 10.384 150.292 8.72 151.252 7.6C152.228 6.464 153.516 5.896 155.116 5.896C156.108 5.896 156.916 6.08 157.54 6.448C158.18 6.816 158.7 7.264 159.1 7.792H159.244C159.228 7.584 159.196 7.28 159.148 6.88C159.116 6.464 159.1 6.136 159.1 5.896V0.759999H161.212V19H159.508L159.196 17.272H159.1C158.716 17.816 158.204 18.28 157.564 18.664C156.924 19.048 156.1 19.24 155.092 19.24ZM155.428 17.488C156.788 17.488 157.74 17.12 158.284 16.384C158.844 15.632 159.124 14.504 159.124 13V12.616C159.124 11.016 158.86 9.792 158.332 8.944C157.804 8.08 156.828 7.648 155.404 7.648C154.268 7.648 153.412 8.104 152.836 9.016C152.276 9.912 151.996 11.12 151.996 12.64C151.996 14.176 152.276 15.368 152.836 16.216C153.412 17.064 154.276 17.488 155.428 17.488ZM166.378 1.312C166.698 1.312 166.978 1.424 167.218 1.648C167.474 1.856 167.602 2.192 167.602 2.656C167.602 3.104 167.474 3.44 167.218 3.664C166.978 3.888 166.698 4 166.378 4C166.026 4 165.73 3.888 165.49 3.664C165.25 3.44 165.13 3.104 165.13 2.656C165.13 2.192 165.25 1.856 165.49 1.648C165.73 1.424 166.026 1.312 166.378 1.312ZM167.41 6.136V19H165.298V6.136H167.41ZM182.669 12.544C182.669 14.672 182.125 16.32 181.037 17.488C179.965 18.656 178.509 19.24 176.669 19.24C175.533 19.24 174.517 18.984 173.621 18.472C172.741 17.944 172.045 17.184 171.533 16.192C171.021 15.184 170.765 13.968 170.765 12.544C170.765 10.416 171.301 8.776 172.373 7.624C173.445 6.472 174.901 5.896 176.741 5.896C177.909 5.896 178.933 6.16 179.813 6.688C180.709 7.2 181.405 7.952 181.901 8.944C182.413 9.92 182.669 11.12 182.669 12.544ZM172.949 12.544C172.949 14.064 173.245 15.272 173.837 16.168C174.445 17.048 175.405 17.488 176.717 17.488C178.013 17.488 178.965 17.048 179.573 16.168C180.181 15.272 180.485 14.064 180.485 12.544C180.485 11.024 180.181 9.832 179.573 8.968C178.965 8.104 178.005 7.672 176.693 7.672C175.381 7.672 174.429 8.104 173.837 8.968C173.245 9.832 172.949 11.024 172.949 12.544ZM197.123 5.92C198.691 5.92 199.851 6.264 200.603 6.952C201.355 7.64 201.731 8.736 201.731 10.24V19H200.195L199.787 17.176H199.691C199.131 17.88 198.539 18.4 197.915 18.736C197.307 19.072 196.459 19.24 195.371 19.24C194.203 19.24 193.235 18.936 192.467 18.328C191.699 17.704 191.315 16.736 191.315 15.424C191.315 14.144 191.819 13.16 192.827 12.472C193.835 11.768 195.387 11.384 197.483 11.32L199.667 11.248V10.48C199.667 9.408 199.435 8.664 198.971 8.248C198.507 7.832 197.851 7.624 197.003 7.624C196.331 7.624 195.691 7.728 195.083 7.936C194.475 8.128 193.907 8.352 193.379 8.608L192.731 7.024C193.291 6.72 193.955 6.464 194.723 6.256C195.491 6.032 196.291 5.92 197.123 5.92ZM199.643 12.712L197.747 12.784C196.147 12.848 195.035 13.104 194.411 13.552C193.803 14 193.499 14.632 193.499 15.448C193.499 16.168 193.715 16.696 194.147 17.032C194.595 17.368 195.163 17.536 195.851 17.536C196.939 17.536 197.843 17.24 198.563 16.648C199.283 16.04 199.643 15.112 199.643 13.864V12.712ZM210.264 19.24C208.664 19.24 207.384 18.688 206.424 17.584C205.464 16.464 204.984 14.8 204.984 12.592C204.984 10.384 205.464 8.72 206.424 7.6C207.4 6.464 208.688 5.896 210.288 5.896C211.28 5.896 212.088 6.08 212.712 6.448C213.352 6.816 213.872 7.264 214.272 7.792H214.416C214.4 7.584 214.368 7.28 214.32 6.88C214.288 6.464 214.272 6.136 214.272 5.896V0.759999H216.384V19H214.68L214.368 17.272H214.272C213.888 17.816 213.376 18.28 212.736 18.664C212.096 19.048 211.272 19.24 210.264 19.24ZM210.6 17.488C211.96 17.488 212.912 17.12 213.456 16.384C214.016 15.632 214.296 14.504 214.296 13V12.616C214.296 11.016 214.032 9.792 213.504 8.944C212.976 8.08 212 7.648 210.576 7.648C209.44 7.648 208.584 8.104 208.008 9.016C207.448 9.912 207.168 11.12 207.168 12.64C207.168 14.176 207.448 15.368 208.008 16.216C208.584 17.064 209.448 17.488 210.6 17.488ZM225.342 5.92C226.91 5.92 228.07 6.264 228.822 6.952C229.574 7.64 229.95 8.736 229.95 10.24V19H228.414L228.006 17.176H227.91C227.35 17.88 226.758 18.4 226.134 18.736C225.526 19.072 224.678 19.24 223.59 19.24C222.422 19.24 221.454 18.936 220.686 18.328C219.918 17.704 219.534 16.736 219.534 15.424C219.534 14.144 220.038 13.16 221.046 12.472C222.054 11.768 223.606 11.384 225.702 11.32L227.886 11.248V10.48C227.886 9.408 227.654 8.664 227.19 8.248C226.726 7.832 226.07 7.624 225.222 7.624C224.55 7.624 223.91 7.728 223.302 7.936C222.694 8.128 222.126 8.352 221.598 8.608L220.95 7.024C221.51 6.72 222.174 6.464 222.942 6.256C223.71 6.032 224.51 5.92 225.342 5.92ZM227.862 12.712L225.966 12.784C224.366 12.848 223.254 13.104 222.63 13.552C222.022 14 221.718 14.632 221.718 15.448C221.718 16.168 221.934 16.696 222.366 17.032C222.814 17.368 223.382 17.536 224.07 17.536C225.158 17.536 226.062 17.24 226.782 16.648C227.502 16.04 227.862 15.112 227.862 13.864V12.712ZM236.035 19H233.923V0.759999H236.035V19ZM244.982 5.92C246.55 5.92 247.71 6.264 248.462 6.952C249.214 7.64 249.59 8.736 249.59 10.24V19H248.054L247.646 17.176H247.55C246.99 17.88 246.398 18.4 245.774 18.736C245.166 19.072 244.318 19.24 243.23 19.24C242.062 19.24 241.094 18.936 240.326 18.328C239.558 17.704 239.174 16.736 239.174 15.424C239.174 14.144 239.678 13.16 240.686 12.472C241.694 11.768 243.246 11.384 245.342 11.32L247.526 11.248V10.48C247.526 9.408 247.294 8.664 246.83 8.248C246.366 7.832 245.71 7.624 244.862 7.624C244.19 7.624 243.55 7.728 242.942 7.936C242.334 8.128 241.766 8.352 241.238 8.608L240.59 7.024C241.15 6.72 241.814 6.464 242.582 6.256C243.35 6.032 244.15 5.92 244.982 5.92ZM247.502 12.712L245.606 12.784C244.006 12.848 242.894 13.104 242.27 13.552C241.662 14 241.358 14.632 241.358 15.448C241.358 16.168 241.574 16.696 242.006 17.032C242.454 17.368 243.022 17.536 243.71 17.536C244.798 17.536 245.702 17.24 246.422 16.648C247.142 16.04 247.502 15.112 247.502 13.864V12.712ZM255.675 0.759999V6.112C255.675 6.752 255.635 7.352 255.555 7.912H255.699C256.115 7.256 256.675 6.76 257.379 6.424C258.099 6.088 258.875 5.92 259.707 5.92C261.275 5.92 262.451 6.296 263.235 7.048C264.019 7.784 264.411 8.976 264.411 10.624V19H262.323V10.768C262.323 8.704 261.363 7.672 259.443 7.672C258.003 7.672 257.011 8.08 256.467 8.896C255.939 9.696 255.675 10.848 255.675 12.352V19H253.563V0.759999H255.675ZM278.93 17.512C279.25 17.512 279.578 17.488 279.914 17.44C280.25 17.376 280.522 17.312 280.73 17.248V18.856C280.506 18.968 280.186 19.056 279.77 19.12C279.354 19.2 278.954 19.24 278.57 19.24C277.898 19.24 277.274 19.128 276.698 18.904C276.138 18.664 275.682 18.256 275.33 17.68C274.978 17.104 274.802 16.296 274.802 15.256V7.768H272.978V6.76L274.826 5.92L275.666 3.184H276.914V6.136H280.634V7.768H276.914V15.208C276.914 15.992 277.098 16.576 277.466 16.96C277.85 17.328 278.338 17.512 278.93 17.512ZM294.058 6.136V19H292.33L292.018 17.296H291.922C291.506 17.968 290.93 18.464 290.194 18.784C289.458 19.088 288.674 19.24 287.842 19.24C286.29 19.24 285.122 18.872 284.338 18.136C283.554 17.384 283.162 16.192 283.162 14.56V6.136H285.298V14.416C285.298 16.464 286.25 17.488 288.154 17.488C289.578 17.488 290.562 17.088 291.106 16.288C291.666 15.488 291.946 14.336 291.946 12.832V6.136H294.058ZM297.974 2.656C297.974 2.192 298.094 1.856 298.334 1.648C298.574 1.424 298.87 1.312 299.222 1.312C299.542 1.312 299.822 1.424 300.062 1.648C300.318 1.856 300.446 2.192 300.446 2.656C300.446 3.104 300.318 3.44 300.062 3.664C299.822 3.888 299.542 4 299.222 4C298.87 4 298.574 3.888 298.334 3.664C298.094 3.44 297.974 3.104 297.974 2.656ZM296.63 24.76C296.23 24.76 295.878 24.728 295.574 24.664C295.27 24.616 295.006 24.552 294.782 24.472V22.768C295.022 22.832 295.27 22.888 295.526 22.936C295.782 22.984 296.062 23.008 296.366 23.008C296.878 23.008 297.302 22.864 297.638 22.576C297.974 22.304 298.142 21.776 298.142 20.992V6.136H300.254V20.92C300.254 22.12 299.966 23.056 299.39 23.728C298.814 24.416 297.894 24.76 296.63 24.76ZM315.081 6.136V19H313.353L313.041 17.296H312.945C312.529 17.968 311.953 18.464 311.217 18.784C310.481 19.088 309.697 19.24 308.865 19.24C307.313 19.24 306.145 18.872 305.361 18.136C304.577 17.384 304.185 16.192 304.185 14.56V6.136H306.321V14.416C306.321 16.464 307.273 17.488 309.177 17.488C310.601 17.488 311.585 17.088 312.129 16.288C312.689 15.488 312.969 14.336 312.969 12.832V6.136H315.081ZM324.037 5.92C325.605 5.92 326.765 6.264 327.517 6.952C328.269 7.64 328.645 8.736 328.645 10.24V19H327.109L326.701 17.176H326.605C326.045 17.88 325.453 18.4 324.829 18.736C324.221 19.072 323.373 19.24 322.285 19.24C321.117 19.24 320.149 18.936 319.381 18.328C318.613 17.704 318.229 16.736 318.229 15.424C318.229 14.144 318.733 13.16 319.741 12.472C320.749 11.768 322.301 11.384 324.397 11.32L326.581 11.248V10.48C326.581 9.408 326.349 8.664 325.885 8.248C325.421 7.832 324.765 7.624 323.917 7.624C323.245 7.624 322.605 7.728 321.997 7.936C321.389 8.128 320.821 8.352 320.293 8.608L319.645 7.024C320.205 6.72 320.869 6.464 321.637 6.256C322.405 6.032 323.205 5.92 324.037 5.92ZM326.557 12.712L324.661 12.784C323.061 12.848 321.949 13.104 321.325 13.552C320.717 14 320.413 14.632 320.413 15.448C320.413 16.168 320.629 16.696 321.061 17.032C321.509 17.368 322.077 17.536 322.765 17.536C323.853 17.536 324.757 17.24 325.477 16.648C326.197 16.04 326.557 15.112 326.557 13.864V12.712ZM338.81 5.896C340.346 5.896 341.506 6.272 342.29 7.024C343.074 7.76 343.466 8.96 343.466 10.624V19H341.378V10.768C341.378 8.704 340.418 7.672 338.498 7.672C337.074 7.672 336.09 8.072 335.546 8.872C335.002 9.672 334.73 10.824 334.73 12.328V19H332.618V6.136H334.322L334.634 7.888H334.754C335.17 7.216 335.746 6.72 336.482 6.4C337.218 6.064 337.994 5.896 338.81 5.896ZM364.44 6.136V19H362.712L362.4 17.296H362.304C361.888 17.968 361.312 18.464 360.576 18.784C359.84 19.088 359.056 19.24 358.224 19.24C356.672 19.24 355.504 18.872 354.72 18.136C353.936 17.384 353.544 16.192 353.544 14.56V6.136H355.68V14.416C355.68 16.464 356.632 17.488 358.536 17.488C359.96 17.488 360.944 17.088 361.488 16.288C362.048 15.488 362.328 14.336 362.328 12.832V6.136H364.44ZM372.82 17.512C373.14 17.512 373.468 17.488 373.804 17.44C374.14 17.376 374.412 17.312 374.62 17.248V18.856C374.396 18.968 374.076 19.056 373.66 19.12C373.244 19.2 372.844 19.24 372.46 19.24C371.788 19.24 371.164 19.128 370.588 18.904C370.028 18.664 369.572 18.256 369.22 17.68C368.868 17.104 368.692 16.296 368.692 15.256V7.768H366.868V6.76L368.716 5.92L369.556 3.184H370.804V6.136H374.524V7.768H370.804V15.208C370.804 15.992 370.988 16.576 371.356 16.96C371.74 17.328 372.228 17.512 372.82 17.512ZM382.068 5.92C383.636 5.92 384.796 6.264 385.548 6.952C386.3 7.64 386.676 8.736 386.676 10.24V19H385.14L384.732 17.176H384.636C384.076 17.88 383.484 18.4 382.86 18.736C382.252 19.072 381.404 19.24 380.316 19.24C379.148 19.24 378.18 18.936 377.412 18.328C376.644 17.704 376.26 16.736 376.26 15.424C376.26 14.144 376.764 13.16 377.772 12.472C378.78 11.768 380.332 11.384 382.428 11.32L384.612 11.248V10.48C384.612 9.408 384.38 8.664 383.916 8.248C383.452 7.832 382.796 7.624 381.948 7.624C381.276 7.624 380.636 7.728 380.028 7.936C379.42 8.128 378.852 8.352 378.324 8.608L377.676 7.024C378.236 6.72 378.9 6.464 379.668 6.256C380.436 6.032 381.236 5.92 382.068 5.92ZM384.588 12.712L382.692 12.784C381.092 12.848 379.98 13.104 379.356 13.552C378.748 14 378.444 14.632 378.444 15.448C378.444 16.168 378.66 16.696 379.092 17.032C379.54 17.368 380.108 17.536 380.796 17.536C381.884 17.536 382.788 17.24 383.508 16.648C384.228 16.04 384.588 15.112 384.588 13.864V12.712ZM404.761 5.896C406.217 5.896 407.305 6.272 408.025 7.024C408.745 7.76 409.105 8.96 409.105 10.624V19H407.017V10.72C407.017 8.688 406.145 7.672 404.401 7.672C403.153 7.672 402.257 8.032 401.713 8.752C401.185 9.472 400.921 10.52 400.921 11.896V19H398.833V10.72C398.833 8.688 397.953 7.672 396.193 7.672C394.897 7.672 394.001 8.072 393.505 8.872C393.009 9.672 392.761 10.824 392.761 12.328V19H390.649V6.136H392.353L392.665 7.888H392.785C393.185 7.216 393.721 6.72 394.393 6.4C395.081 6.064 395.809 5.896 396.577 5.896C398.593 5.896 399.905 6.616 400.513 8.056H400.633C401.065 7.32 401.649 6.776 402.385 6.424C403.137 6.072 403.929 5.896 404.761 5.896ZM417.951 5.92C419.519 5.92 420.679 6.264 421.431 6.952C422.183 7.64 422.559 8.736 422.559 10.24V19H421.023L420.615 17.176H420.519C419.959 17.88 419.367 18.4 418.743 18.736C418.135 19.072 417.287 19.24 416.199 19.24C415.031 19.24 414.063 18.936 413.295 18.328C412.527 17.704 412.143 16.736 412.143 15.424C412.143 14.144 412.647 13.16 413.655 12.472C414.663 11.768 416.215 11.384 418.311 11.32L420.495 11.248V10.48C420.495 9.408 420.263 8.664 419.799 8.248C419.335 7.832 418.679 7.624 417.831 7.624C417.159 7.624 416.519 7.728 415.911 7.936C415.303 8.128 414.735 8.352 414.207 8.608L413.559 7.024C414.119 6.72 414.783 6.464 415.551 6.256C416.319 6.032 417.119 5.92 417.951 5.92ZM420.471 12.712L418.575 12.784C416.975 12.848 415.863 13.104 415.239 13.552C414.631 14 414.327 14.632 414.327 15.448C414.327 16.168 414.543 16.696 414.975 17.032C415.423 17.368 415.991 17.536 416.679 17.536C417.767 17.536 418.671 17.24 419.391 16.648C420.111 16.04 420.471 15.112 420.471 13.864V12.712ZM443.519 6.136V19H441.791L441.479 17.296H441.383C440.967 17.968 440.391 18.464 439.655 18.784C438.919 19.088 438.135 19.24 437.303 19.24C435.751 19.24 434.583 18.872 433.799 18.136C433.015 17.384 432.623 16.192 432.623 14.56V6.136H434.759V14.416C434.759 16.464 435.711 17.488 437.615 17.488C439.039 17.488 440.023 17.088 440.567 16.288C441.127 15.488 441.407 14.336 441.407 12.832V6.136H443.519ZM453.795 5.896C455.331 5.896 456.491 6.272 457.275 7.024C458.059 7.76 458.451 8.96 458.451 10.624V19H456.363V10.768C456.363 8.704 455.403 7.672 453.483 7.672C452.059 7.672 451.075 8.072 450.531 8.872C449.987 9.672 449.715 10.824 449.715 12.328V19H447.603V6.136H449.307L449.619 7.888H449.739C450.155 7.216 450.731 6.72 451.467 6.4C452.203 6.064 452.979 5.896 453.795 5.896ZM466.734 17.512C467.054 17.512 467.382 17.488 467.718 17.44C468.054 17.376 468.326 17.312 468.534 17.248V18.856C468.31 18.968 467.99 19.056 467.574 19.12C467.158 19.2 466.758 19.24 466.374 19.24C465.702 19.24 465.078 19.128 464.502 18.904C463.942 18.664 463.486 18.256 463.134 17.68C462.782 17.104 462.606 16.296 462.606 15.256V7.768H460.782V6.76L462.63 5.92L463.47 3.184H464.718V6.136H468.438V7.768H464.718V15.208C464.718 15.992 464.902 16.576 465.27 16.96C465.654 17.328 466.142 17.512 466.734 17.512ZM481.862 6.136V19H480.134L479.822 17.296H479.726C479.31 17.968 478.734 18.464 477.998 18.784C477.262 19.088 476.478 19.24 475.646 19.24C474.094 19.24 472.926 18.872 472.142 18.136C471.358 17.384 470.966 16.192 470.966 14.56V6.136H473.102V14.416C473.102 16.464 474.054 17.488 475.958 17.488C477.382 17.488 478.366 17.088 478.91 16.288C479.47 15.488 479.75 14.336 479.75 12.832V6.136H481.862ZM488.034 0.759999V10.288C488.034 10.544 488.018 10.88 487.986 11.296C487.97 11.712 487.954 12.072 487.938 12.376H488.034C488.13 12.248 488.274 12.064 488.466 11.824C488.658 11.584 488.85 11.344 489.042 11.104C489.25 10.848 489.426 10.64 489.57 10.48L493.674 6.136H496.146L490.938 11.632L496.506 19H493.962L489.498 13L488.034 14.272V19H485.946V0.759999H488.034ZM519.113 5.896C520.569 5.896 521.657 6.272 522.377 7.024C523.097 7.76 523.457 8.96 523.457 10.624V19H521.369V10.72C521.369 8.688 520.497 7.672 518.753 7.672C517.505 7.672 516.609 8.032 516.065 8.752C515.537 9.472 515.273 10.52 515.273 11.896V19H513.185V10.72C513.185 8.688 512.305 7.672 510.545 7.672C509.249 7.672 508.353 8.072 507.857 8.872C507.361 9.672 507.113 10.824 507.113 12.328V19H505.001V6.136H506.705L507.017 7.888H507.137C507.537 7.216 508.073 6.72 508.745 6.4C509.433 6.064 510.161 5.896 510.929 5.896C512.945 5.896 514.257 6.616 514.865 8.056H514.985C515.417 7.32 516.001 6.776 516.737 6.424C517.489 6.072 518.281 5.896 519.113 5.896ZM532.399 5.896C533.503 5.896 534.447 6.136 535.231 6.616C536.031 7.096 536.639 7.776 537.055 8.656C537.487 9.52 537.703 10.536 537.703 11.704V12.976H528.895C528.927 14.432 529.295 15.544 529.999 16.312C530.719 17.064 531.719 17.44 532.999 17.44C533.815 17.44 534.535 17.368 535.159 17.224C535.799 17.064 536.455 16.84 537.127 16.552V18.4C536.471 18.688 535.823 18.896 535.183 19.024C534.543 19.168 533.783 19.24 532.903 19.24C531.687 19.24 530.607 18.992 529.663 18.496C528.735 18 528.007 17.264 527.479 16.288C526.967 15.296 526.711 14.088 526.711 12.664C526.711 11.256 526.943 10.048 527.407 9.04C527.887 8.032 528.551 7.256 529.399 6.712C530.263 6.168 531.263 5.896 532.399 5.896ZM532.375 7.624C531.367 7.624 530.567 7.952 529.975 8.608C529.399 9.248 529.055 10.144 528.943 11.296H535.495C535.479 10.208 535.223 9.328 534.727 8.656C534.231 7.968 533.447 7.624 532.375 7.624ZM547.17 5.896C548.706 5.896 549.866 6.272 550.65 7.024C551.434 7.76 551.826 8.96 551.826 10.624V19H549.738V10.768C549.738 8.704 548.778 7.672 546.858 7.672C545.434 7.672 544.45 8.072 543.906 8.872C543.362 9.672 543.09 10.824 543.09 12.328V19H540.978V6.136H542.682L542.994 7.888H543.114C543.53 7.216 544.106 6.72 544.842 6.4C545.578 6.064 546.354 5.896 547.17 5.896ZM560.781 5.896C561.885 5.896 562.829 6.136 563.613 6.616C564.413 7.096 565.021 7.776 565.437 8.656C565.869 9.52 566.085 10.536 566.085 11.704V12.976H557.277C557.309 14.432 557.677 15.544 558.381 16.312C559.101 17.064 560.101 17.44 561.381 17.44C562.197 17.44 562.917 17.368 563.541 17.224C564.181 17.064 564.837 16.84 565.509 16.552V18.4C564.853 18.688 564.205 18.896 563.565 19.024C562.925 19.168 562.165 19.24 561.285 19.24C560.069 19.24 558.989 18.992 558.045 18.496C557.117 18 556.389 17.264 555.861 16.288C555.349 15.296 555.093 14.088 555.093 12.664C555.093 11.256 555.325 10.048 555.789 9.04C556.269 8.032 556.933 7.256 557.781 6.712C558.645 6.168 559.645 5.896 560.781 5.896ZM560.757 7.624C559.749 7.624 558.949 7.952 558.357 8.608C557.781 9.248 557.437 10.144 557.325 11.296H563.877C563.861 10.208 563.605 9.328 563.109 8.656C562.613 7.968 561.829 7.624 560.757 7.624ZM583.472 5.896C584.928 5.896 586.016 6.272 586.736 7.024C587.456 7.76 587.816 8.96 587.816 10.624V19H585.728V10.72C585.728 8.688 584.856 7.672 583.112 7.672C581.864 7.672 580.968 8.032 580.424 8.752C579.896 9.472 579.632 10.52 579.632 11.896V19H577.544V10.72C577.544 8.688 576.664 7.672 574.904 7.672C573.608 7.672 572.712 8.072 572.216 8.872C571.72 9.672 571.472 10.824 571.472 12.328V19H569.36V6.136H571.064L571.376 7.888H571.496C571.896 7.216 572.432 6.72 573.104 6.4C573.792 6.064 574.52 5.896 575.288 5.896C577.304 5.896 578.616 6.616 579.224 8.056H579.344C579.776 7.32 580.36 6.776 581.096 6.424C581.848 6.072 582.64 5.896 583.472 5.896ZM602.542 6.136V19H600.814L600.502 17.296H600.406C599.99 17.968 599.414 18.464 598.678 18.784C597.942 19.088 597.158 19.24 596.326 19.24C594.774 19.24 593.606 18.872 592.822 18.136C592.038 17.384 591.646 16.192 591.646 14.56V6.136H593.782V14.416C593.782 16.464 594.734 17.488 596.638 17.488C598.062 17.488 599.046 17.088 599.59 16.288C600.15 15.488 600.43 14.336 600.43 12.832V6.136H602.542ZM608.714 0.759999V10.288C608.714 10.544 608.698 10.88 608.666 11.296C608.65 11.712 608.634 12.072 608.618 12.376H608.714C608.81 12.248 608.954 12.064 609.146 11.824C609.338 11.584 609.53 11.344 609.722 11.104C609.93 10.848 610.106 10.64 610.25 10.48L614.354 6.136H616.826L611.618 11.632L617.186 19H614.642L610.178 13L608.714 14.272V19H606.626V0.759999H608.714ZM624.318 5.92C625.886 5.92 627.046 6.264 627.798 6.952C628.55 7.64 628.926 8.736 628.926 10.24V19H627.39L626.982 17.176H626.886C626.326 17.88 625.734 18.4 625.11 18.736C624.502 19.072 623.654 19.24 622.566 19.24C621.398 19.24 620.43 18.936 619.662 18.328C618.894 17.704 618.51 16.736 618.51 15.424C618.51 14.144 619.014 13.16 620.022 12.472C621.03 11.768 622.582 11.384 624.678 11.32L626.862 11.248V10.48C626.862 9.408 626.63 8.664 626.166 8.248C625.702 7.832 625.046 7.624 624.198 7.624C623.526 7.624 622.886 7.728 622.278 7.936C621.67 8.128 621.102 8.352 620.574 8.608L619.926 7.024C620.486 6.72 621.15 6.464 621.918 6.256C622.686 6.032 623.486 5.92 624.318 5.92ZM626.838 12.712L624.942 12.784C623.342 12.848 622.23 13.104 621.606 13.552C620.998 14 620.694 14.632 620.694 15.448C620.694 16.168 620.91 16.696 621.342 17.032C621.79 17.368 622.358 17.536 623.046 17.536C624.134 17.536 625.038 17.24 625.758 16.648C626.478 16.04 626.838 15.112 626.838 13.864V12.712ZM639.091 5.896C640.627 5.896 641.787 6.272 642.571 7.024C643.355 7.76 643.747 8.96 643.747 10.624V19H641.659V10.768C641.659 8.704 640.699 7.672 638.779 7.672C637.355 7.672 636.371 8.072 635.827 8.872C635.283 9.672 635.011 10.824 635.011 12.328V19H632.899V6.136H634.603L634.915 7.888H635.035C635.451 7.216 636.027 6.72 636.763 6.4C637.499 6.064 638.275 5.896 639.091 5.896ZM659.226 1.6C660.506 1.6 661.514 1.928 662.25 2.584C663.002 3.224 663.378 4.128 663.378 5.296C663.378 6.304 663.05 7.16 662.394 7.864C661.754 8.568 660.938 9.208 659.946 9.784L664.578 14.248C664.994 13.752 665.33 13.184 665.586 12.544C665.858 11.888 666.082 11.184 666.258 10.432H668.394C668.138 11.456 667.818 12.408 667.434 13.288C667.05 14.168 666.554 14.936 665.946 15.592L669.45 19H666.594L664.506 16.984C663.754 17.656 662.914 18.2 661.986 18.616C661.058 19.032 659.93 19.24 658.602 19.24C656.954 19.24 655.642 18.832 654.666 18.016C653.69 17.2 653.202 16.04 653.202 14.536C653.202 13.304 653.53 12.32 654.186 11.584C654.858 10.832 655.762 10.136 656.898 9.496C656.386 8.92 655.906 8.304 655.458 7.648C655.026 6.992 654.81 6.224 654.81 5.344C654.81 4.16 655.202 3.24 655.986 2.584C656.786 1.928 657.866 1.6 659.226 1.6ZM659.154 3.328C658.482 3.328 657.93 3.504 657.498 3.856C657.082 4.208 656.874 4.696 656.874 5.32C656.874 5.896 657.026 6.432 657.33 6.928C657.634 7.408 658.074 7.944 658.65 8.536C659.594 7.992 660.266 7.48 660.666 7C661.082 6.504 661.29 5.936 661.29 5.296C661.29 4.72 661.098 4.248 660.714 3.88C660.33 3.512 659.81 3.328 659.154 3.328ZM658.17 10.816C657.306 11.328 656.626 11.848 656.13 12.376C655.65 12.904 655.41 13.6 655.41 14.464C655.41 15.344 655.706 16.048 656.298 16.576C656.89 17.104 657.682 17.368 658.674 17.368C659.698 17.368 660.578 17.2 661.314 16.864C662.05 16.528 662.666 16.128 663.162 15.664L658.17 10.816ZM691.894 5.896C693.35 5.896 694.438 6.272 695.158 7.024C695.878 7.76 696.238 8.96 696.238 10.624V19H694.15V10.72C694.15 8.688 693.278 7.672 691.534 7.672C690.286 7.672 689.39 8.032 688.846 8.752C688.318 9.472 688.054 10.52 688.054 11.896V19H685.966V10.72C685.966 8.688 685.086 7.672 683.326 7.672C682.03 7.672 681.134 8.072 680.638 8.872C680.142 9.672 679.894 10.824 679.894 12.328V19H677.782V6.136H679.486L679.798 7.888H679.918C680.318 7.216 680.854 6.72 681.526 6.4C682.214 6.064 682.942 5.896 683.71 5.896C685.726 5.896 687.038 6.616 687.646 8.056H687.766C688.198 7.32 688.782 6.776 689.518 6.424C690.27 6.072 691.062 5.896 691.894 5.896ZM705.18 5.896C706.284 5.896 707.228 6.136 708.012 6.616C708.812 7.096 709.42 7.776 709.836 8.656C710.268 9.52 710.484 10.536 710.484 11.704V12.976H701.676C701.708 14.432 702.076 15.544 702.78 16.312C703.5 17.064 704.5 17.44 705.78 17.44C706.596 17.44 707.316 17.368 707.94 17.224C708.58 17.064 709.236 16.84 709.908 16.552V18.4C709.252 18.688 708.604 18.896 707.964 19.024C707.324 19.168 706.564 19.24 705.684 19.24C704.468 19.24 703.388 18.992 702.444 18.496C701.516 18 700.788 17.264 700.26 16.288C699.748 15.296 699.492 14.088 699.492 12.664C699.492 11.256 699.724 10.048 700.188 9.04C700.668 8.032 701.332 7.256 702.18 6.712C703.044 6.168 704.044 5.896 705.18 5.896ZM705.156 7.624C704.148 7.624 703.348 7.952 702.756 8.608C702.18 9.248 701.836 10.144 701.724 11.296H708.276C708.26 10.208 708.004 9.328 707.508 8.656C707.012 7.968 706.228 7.624 705.156 7.624ZM727.871 5.896C729.327 5.896 730.415 6.272 731.135 7.024C731.855 7.76 732.215 8.96 732.215 10.624V19H730.127V10.72C730.127 8.688 729.255 7.672 727.511 7.672C726.263 7.672 725.367 8.032 724.823 8.752C724.295 9.472 724.031 10.52 724.031 11.896V19H721.943V10.72C721.943 8.688 721.063 7.672 719.303 7.672C718.007 7.672 717.111 8.072 716.615 8.872C716.119 9.672 715.871 10.824 715.871 12.328V19H713.759V6.136H715.463L715.775 7.888H715.895C716.295 7.216 716.831 6.72 717.503 6.4C718.191 6.064 718.919 5.896 719.687 5.896C721.703 5.896 723.015 6.616 723.623 8.056H723.743C724.175 7.32 724.759 6.776 725.495 6.424C726.247 6.072 727.039 5.896 727.871 5.896ZM741.06 5.92C742.628 5.92 743.788 6.264 744.54 6.952C745.292 7.64 745.668 8.736 745.668 10.24V19H744.132L743.724 17.176H743.628C743.068 17.88 742.476 18.4 741.852 18.736C741.244 19.072 740.396 19.24 739.308 19.24C738.14 19.24 737.172 18.936 736.404 18.328C735.636 17.704 735.252 16.736 735.252 15.424C735.252 14.144 735.756 13.16 736.764 12.472C737.772 11.768 739.324 11.384 741.42 11.32L743.604 11.248V10.48C743.604 9.408 743.372 8.664 742.908 8.248C742.444 7.832 741.788 7.624 740.94 7.624C740.268 7.624 739.628 7.728 739.02 7.936C738.412 8.128 737.844 8.352 737.316 8.608L736.668 7.024C737.228 6.72 737.892 6.464 738.66 6.256C739.428 6.032 740.228 5.92 741.06 5.92ZM743.58 12.712L741.684 12.784C740.084 12.848 738.972 13.104 738.348 13.552C737.74 14 737.436 14.632 737.436 15.448C737.436 16.168 737.652 16.696 738.084 17.032C738.532 17.368 739.1 17.536 739.788 17.536C740.876 17.536 741.78 17.24 742.5 16.648C743.22 16.04 743.58 15.112 743.58 13.864V12.712ZM763.754 5.896C765.21 5.896 766.298 6.272 767.018 7.024C767.738 7.76 768.098 8.96 768.098 10.624V19H766.01V10.72C766.01 8.688 765.138 7.672 763.394 7.672C762.146 7.672 761.25 8.032 760.706 8.752C760.178 9.472 759.914 10.52 759.914 11.896V19H757.826V10.72C757.826 8.688 756.946 7.672 755.186 7.672C753.89 7.672 752.994 8.072 752.498 8.872C752.002 9.672 751.754 10.824 751.754 12.328V19H749.642V6.136H751.346L751.658 7.888H751.778C752.178 7.216 752.714 6.72 753.386 6.4C754.074 6.064 754.802 5.896 755.57 5.896C757.586 5.896 758.898 6.616 759.506 8.056H759.626C760.058 7.32 760.642 6.776 761.378 6.424C762.13 6.072 762.922 5.896 763.754 5.896ZM777.039 5.896C778.143 5.896 779.087 6.136 779.871 6.616C780.671 7.096 781.279 7.776 781.695 8.656C782.127 9.52 782.343 10.536 782.343 11.704V12.976H773.535C773.567 14.432 773.935 15.544 774.639 16.312C775.359 17.064 776.359 17.44 777.639 17.44C778.455 17.44 779.175 17.368 779.799 17.224C780.439 17.064 781.095 16.84 781.767 16.552V18.4C781.111 18.688 780.463 18.896 779.823 19.024C779.183 19.168 778.423 19.24 777.543 19.24C776.327 19.24 775.247 18.992 774.303 18.496C773.375 18 772.647 17.264 772.119 16.288C771.607 15.296 771.351 14.088 771.351 12.664C771.351 11.256 771.583 10.048 772.047 9.04C772.527 8.032 773.191 7.256 774.039 6.712C774.903 6.168 775.903 5.896 777.039 5.896ZM777.015 7.624C776.007 7.624 775.207 7.952 774.615 8.608C774.039 9.248 773.695 10.144 773.583 11.296H780.135C780.119 10.208 779.863 9.328 779.367 8.656C778.871 7.968 778.087 7.624 777.015 7.624ZM791.618 5.896C791.858 5.896 792.114 5.912 792.386 5.944C792.674 5.96 792.922 5.992 793.13 6.04L792.866 7.984C792.658 7.936 792.426 7.896 792.17 7.864C791.93 7.832 791.698 7.816 791.474 7.816C790.818 7.816 790.202 8 789.626 8.368C789.05 8.72 788.586 9.224 788.234 9.88C787.898 10.52 787.73 11.272 787.73 12.136V19H785.618V6.136H787.346L787.586 8.488H787.682C788.098 7.784 788.634 7.176 789.29 6.664C789.946 6.152 790.722 5.896 791.618 5.896ZM797.62 0.759999V10.288C797.62 10.544 797.604 10.88 797.572 11.296C797.556 11.712 797.54 12.072 797.524 12.376H797.62C797.716 12.248 797.86 12.064 798.052 11.824C798.244 11.584 798.436 11.344 798.628 11.104C798.836 10.848 799.012 10.64 799.156 10.48L803.26 6.136H805.732L800.524 11.632L806.092 19H803.548L799.084 13L797.62 14.272V19H795.532V0.759999H797.62ZM813.225 5.92C814.793 5.92 815.953 6.264 816.705 6.952C817.457 7.64 817.833 8.736 817.833 10.24V19H816.297L815.889 17.176H815.793C815.233 17.88 814.641 18.4 814.017 18.736C813.409 19.072 812.561 19.24 811.473 19.24C810.305 19.24 809.337 18.936 808.569 18.328C807.801 17.704 807.417 16.736 807.417 15.424C807.417 14.144 807.921 13.16 808.929 12.472C809.937 11.768 811.489 11.384 813.585 11.32L815.769 11.248V10.48C815.769 9.408 815.537 8.664 815.073 8.248C814.609 7.832 813.953 7.624 813.105 7.624C812.433 7.624 811.793 7.728 811.185 7.936C810.577 8.128 810.009 8.352 809.48 8.608L808.833 7.024C809.393 6.72 810.057 6.464 810.825 6.256C811.593 6.032 812.393 5.92 813.225 5.92ZM815.745 12.712L813.849 12.784C812.249 12.848 811.137 13.104 810.513 13.552C809.905 14 809.601 14.632 809.601 15.448C809.601 16.168 809.817 16.696 810.249 17.032C810.697 17.368 811.265 17.536 811.953 17.536C813.041 17.536 813.945 17.24 814.665 16.648C815.385 16.04 815.745 15.112 815.745 13.864V12.712ZM827.998 5.896C829.534 5.896 830.694 6.272 831.478 7.024C832.262 7.76 832.654 8.96 832.654 10.624V19H830.566V10.768C830.566 8.704 829.606 7.672 827.686 7.672C826.262 7.672 825.278 8.072 824.734 8.872C824.19 9.672 823.918 10.824 823.918 12.328V19H821.806V6.136H823.51L823.822 7.888H823.942C824.358 7.216 824.934 6.72 825.67 6.4C826.406 6.064 827.182 5.896 827.998 5.896ZM2.128 37.76V47.288C2.128 47.544 2.112 47.88 2.08 48.296C2.064 48.712 2.048 49.072 2.032 49.376H2.128C2.224 49.248 2.368 49.064 2.56 48.824C2.752 48.584 2.944 48.344 3.136 48.104C3.344 47.848 3.52 47.64 3.664 47.48L7.768 43.136H10.24L5.032 48.632L10.6 56H8.056L3.592 50L2.128 51.272V56H0.04V37.76H2.128ZM17.7323 42.92C19.3003 42.92 20.4603 43.264 21.2123 43.952C21.9643 44.64 22.3403 45.736 22.3403 47.24V56H20.8043L20.3963 54.176H20.3003C19.7403 54.88 19.1483 55.4 18.5243 55.736C17.9163 56.072 17.0683 56.24 15.9803 56.24C14.8123 56.24 13.8443 55.936 13.0763 55.328C12.3083 54.704 11.9243 53.736 11.9243 52.424C11.9243 51.144 12.4283 50.16 13.4363 49.472C14.4443 48.768 15.9963 48.384 18.0923 48.32L20.2763 48.248V47.48C20.2763 46.408 20.0443 45.664 19.5803 45.248C19.1163 44.832 18.4603 44.624 17.6123 44.624C16.9403 44.624 16.3003 44.728 15.6923 44.936C15.0843 45.128 14.5163 45.352 13.9883 45.608L13.3403 44.024C13.9003 43.72 14.5643 43.464 15.3323 43.256C16.1003 43.032 16.9003 42.92 17.7323 42.92ZM20.2523 49.712L18.3563 49.784C16.7563 49.848 15.6443 50.104 15.0203 50.552C14.4123 51 14.1083 51.632 14.1083 52.448C14.1083 53.168 14.3243 53.696 14.7563 54.032C15.2043 54.368 15.7723 54.536 16.4603 54.536C17.5483 54.536 18.4523 54.24 19.1723 53.648C19.8923 53.04 20.2523 52.112 20.2523 50.864V49.712ZM32.3134 42.896C32.5534 42.896 32.8094 42.912 33.0814 42.944C33.3694 42.96 33.6174 42.992 33.8254 43.04L33.5614 44.984C33.3534 44.936 33.1214 44.896 32.8654 44.864C32.6254 44.832 32.3934 44.816 32.1694 44.816C31.5134 44.816 30.8974 45 30.3214 45.368C29.7454 45.72 29.2814 46.224 28.9294 46.88C28.5934 47.52 28.4254 48.272 28.4254 49.136V56H26.3134V43.136H28.0414L28.2814 45.488H28.3774C28.7934 44.784 29.3294 44.176 29.9854 43.664C30.6414 43.152 31.4174 42.896 32.3134 42.896ZM34.2115 43.136H36.4675L39.2515 50.456C39.4915 51.096 39.7075 51.712 39.8995 52.304C40.0915 52.88 40.2355 53.432 40.3315 53.96H40.4275C40.5235 53.56 40.6755 53.04 40.8835 52.4C41.0915 51.744 41.3075 51.088 41.5315 50.432L44.1475 43.136H46.4275L40.8835 57.776C40.4355 58.992 39.8515 59.96 39.1315 60.68C38.4275 61.4 37.4515 61.76 36.2035 61.76C35.8195 61.76 35.4835 61.736 35.1955 61.688C34.9075 61.656 34.6595 61.616 34.4515 61.568V59.888C34.6275 59.92 34.8355 59.952 35.0755 59.984C35.3315 60.016 35.5955 60.032 35.8675 60.032C36.6035 60.032 37.1955 59.824 37.6435 59.408C38.1075 58.992 38.4675 58.44 38.7235 57.752L39.3955 56.048L34.2115 43.136ZM53.3339 42.92C54.9019 42.92 56.0619 43.264 56.8139 43.952C57.5659 44.64 57.9419 45.736 57.9419 47.24V56H56.4059L55.9979 54.176H55.9019C55.3419 54.88 54.7499 55.4 54.1259 55.736C53.5179 56.072 52.6699 56.24 51.5819 56.24C50.4139 56.24 49.4459 55.936 48.6779 55.328C47.9099 54.704 47.5259 53.736 47.5259 52.424C47.5259 51.144 48.0299 50.16 49.0379 49.472C50.0459 48.768 51.5979 48.384 53.6939 48.32L55.8779 48.248V47.48C55.8779 46.408 55.6459 45.664 55.1819 45.248C54.7179 44.832 54.0619 44.624 53.2139 44.624C52.5419 44.624 51.9019 44.728 51.2939 44.936C50.6859 45.128 50.1179 45.352 49.5899 45.608L48.9419 44.024C49.5019 43.72 50.1659 43.464 50.9339 43.256C51.7019 43.032 52.5019 42.92 53.3339 42.92ZM55.8539 49.712L53.9579 49.784C52.3579 49.848 51.2459 50.104 50.6219 50.552C50.0139 51 49.7099 51.632 49.7099 52.448C49.7099 53.168 49.9259 53.696 50.3579 54.032C50.8059 54.368 51.3739 54.536 52.0619 54.536C53.1499 54.536 54.0539 54.24 54.7739 53.648C55.4939 53.04 55.8539 52.112 55.8539 50.864V49.712ZM70.2374 37.76V47.288C70.2374 47.544 70.2214 47.88 70.1894 48.296C70.1734 48.712 70.1574 49.072 70.1414 49.376H70.2374C70.3334 49.248 70.4774 49.064 70.6694 48.824C70.8614 48.584 71.0534 48.344 71.2454 48.104C71.4534 47.848 71.6294 47.64 71.7734 47.48L75.8774 43.136H78.3494L73.1414 48.632L78.7094 56H76.1654L71.7014 50L70.2374 51.272V56H68.1494V37.76H70.2374ZM86.9697 42.896C87.2097 42.896 87.4657 42.912 87.7377 42.944C88.0257 42.96 88.2737 42.992 88.4817 43.04L88.2177 44.984C88.0097 44.936 87.7777 44.896 87.5217 44.864C87.2817 44.832 87.0497 44.816 86.8257 44.816C86.1697 44.816 85.5537 45 84.9777 45.368C84.4017 45.72 83.9377 46.224 83.5857 46.88C83.2497 47.52 83.0817 48.272 83.0817 49.136V56H80.9697V43.136H82.6977L82.9377 45.488H83.0337C83.4497 44.784 83.9857 44.176 84.6417 43.664C85.2977 43.152 86.0737 42.896 86.9697 42.896ZM95.383 42.896C96.487 42.896 97.431 43.136 98.215 43.616C99.015 44.096 99.623 44.776 100.039 45.656C100.471 46.52 100.687 47.536 100.687 48.704V49.976H91.879C91.911 51.432 92.279 52.544 92.983 53.312C93.703 54.064 94.703 54.44 95.983 54.44C96.799 54.44 97.519 54.368 98.143 54.224C98.783 54.064 99.439 53.84 100.111 53.552V55.4C99.455 55.688 98.807 55.896 98.167 56.024C97.527 56.168 96.767 56.24 95.887 56.24C94.671 56.24 93.591 55.992 92.647 55.496C91.719 55 90.991 54.264 90.463 53.288C89.951 52.296 89.695 51.088 89.695 49.664C89.695 48.256 89.927 47.048 90.391 46.04C90.871 45.032 91.535 44.256 92.383 43.712C93.247 43.168 94.247 42.896 95.383 42.896ZM95.359 44.624C94.351 44.624 93.551 44.952 92.959 45.608C92.383 46.248 92.039 47.144 91.927 48.296H98.479C98.463 47.208 98.207 46.328 97.711 45.656C97.215 44.968 96.431 44.624 95.359 44.624ZM108.834 42.92C110.402 42.92 111.562 43.264 112.314 43.952C113.066 44.64 113.442 45.736 113.442 47.24V56H111.906L111.498 54.176H111.402C110.842 54.88 110.25 55.4 109.626 55.736C109.018 56.072 108.17 56.24 107.082 56.24C105.914 56.24 104.946 55.936 104.178 55.328C103.41 54.704 103.026 53.736 103.026 52.424C103.026 51.144 103.53 50.16 104.538 49.472C105.546 48.768 107.098 48.384 109.194 48.32L111.378 48.248V47.48C111.378 46.408 111.146 45.664 110.682 45.248C110.218 44.832 109.562 44.624 108.714 44.624C108.042 44.624 107.402 44.728 106.794 44.936C106.186 45.128 105.618 45.352 105.09 45.608L104.442 44.024C105.002 43.72 105.666 43.464 106.434 43.256C107.202 43.032 108.002 42.92 108.834 42.92ZM111.354 49.712L109.458 49.784C107.858 49.848 106.746 50.104 106.122 50.552C105.514 51 105.21 51.632 105.21 52.448C105.21 53.168 105.426 53.696 105.858 54.032C106.306 54.368 106.874 54.536 107.562 54.536C108.65 54.536 109.554 54.24 110.274 53.648C110.994 53.04 111.354 52.112 111.354 50.864V49.712ZM121.711 54.512C122.031 54.512 122.359 54.488 122.695 54.44C123.031 54.376 123.303 54.312 123.511 54.248V55.856C123.287 55.968 122.967 56.056 122.551 56.12C122.135 56.2 121.735 56.24 121.351 56.24C120.679 56.24 120.055 56.128 119.479 55.904C118.919 55.664 118.463 55.256 118.111 54.68C117.759 54.104 117.583 53.296 117.583 52.256V44.768H115.759V43.76L117.607 42.92L118.447 40.184H119.695V43.136H123.415V44.768H119.695V52.208C119.695 52.992 119.879 53.576 120.247 53.96C120.631 54.328 121.119 54.512 121.711 54.512ZM127.167 38.312C127.487 38.312 127.767 38.424 128.007 38.648C128.263 38.856 128.391 39.192 128.391 39.656C128.391 40.104 128.263 40.44 128.007 40.664C127.767 40.888 127.487 41 127.167 41C126.815 41 126.519 40.888 126.279 40.664C126.039 40.44 125.919 40.104 125.919 39.656C125.919 39.192 126.039 38.856 126.279 38.648C126.519 38.424 126.815 38.312 127.167 38.312ZM128.199 43.136V56H126.087V43.136H128.199ZM138.202 44.768H134.962V56H132.85V44.768H130.594V43.784L132.85 43.064V42.32C132.85 40.656 133.218 39.464 133.954 38.744C134.69 38.008 135.714 37.64 137.026 37.64C137.538 37.64 138.002 37.688 138.418 37.784C138.85 37.864 139.218 37.96 139.522 38.072L138.97 39.728C138.714 39.648 138.418 39.568 138.082 39.488C137.746 39.408 137.402 39.368 137.05 39.368C136.346 39.368 135.818 39.608 135.466 40.088C135.13 40.552 134.962 41.288 134.962 42.296V43.136H138.202V44.768ZM139.204 59.696V58.688C140.724 58.192 141.484 57.472 141.484 56.528C141.484 56.288 141.396 56.104 141.22 55.976C141.044 55.848 140.836 55.728 140.596 55.616C140.372 55.504 140.172 55.352 139.996 55.16C139.82 54.968 139.732 54.688 139.732 54.32C139.732 53.856 139.876 53.504 140.164 53.264C140.468 53.024 140.844 52.904 141.292 52.904C141.788 52.904 142.22 53.088 142.588 53.456C142.956 53.808 143.14 54.32 143.14 54.992C143.14 56.016 142.836 56.952 142.228 57.8C141.636 58.648 140.628 59.28 139.204 59.696ZM161.135 52.448C161.135 53.696 160.671 54.64 159.743 55.28C158.815 55.92 157.567 56.24 155.999 56.24C155.103 56.24 154.327 56.168 153.671 56.024C153.031 55.88 152.463 55.68 151.967 55.424V53.504C152.479 53.76 153.095 54 153.815 54.224C154.551 54.432 155.295 54.536 156.047 54.536C157.119 54.536 157.895 54.368 158.375 54.032C158.855 53.68 159.095 53.216 159.095 52.64C159.095 52.32 159.007 52.032 158.831 51.776C158.655 51.52 158.335 51.264 157.871 51.008C157.423 50.752 156.775 50.464 155.927 50.144C155.095 49.824 154.383 49.504 153.791 49.184C153.199 48.864 152.743 48.48 152.423 48.032C152.103 47.584 151.943 47.008 151.943 46.304C151.943 45.216 152.383 44.376 153.263 43.784C154.159 43.192 155.327 42.896 156.767 42.896C157.551 42.896 158.279 42.976 158.951 43.136C159.639 43.28 160.279 43.488 160.871 43.76L160.151 45.44C159.607 45.216 159.039 45.024 158.447 44.864C157.855 44.704 157.247 44.624 156.623 44.624C155.759 44.624 155.095 44.768 154.631 45.056C154.183 45.328 153.959 45.704 153.959 46.184C153.959 46.536 154.063 46.84 154.271 47.096C154.479 47.336 154.823 47.576 155.303 47.816C155.799 48.04 156.455 48.312 157.271 48.632C158.087 48.936 158.783 49.248 159.359 49.568C159.935 49.888 160.375 50.28 160.679 50.744C160.983 51.192 161.135 51.76 161.135 52.448ZM169.211 42.896C170.315 42.896 171.259 43.136 172.043 43.616C172.843 44.096 173.451 44.776 173.867 45.656C174.299 46.52 174.515 47.536 174.515 48.704V49.976H165.707C165.739 51.432 166.107 52.544 166.811 53.312C167.531 54.064 168.531 54.44 169.811 54.44C170.627 54.44 171.347 54.368 171.971 54.224C172.611 54.064 173.267 53.84 173.939 53.552V55.4C173.283 55.688 172.635 55.896 171.995 56.024C171.355 56.168 170.595 56.24 169.715 56.24C168.499 56.24 167.419 55.992 166.475 55.496C165.547 55 164.819 54.264 164.291 53.288C163.779 52.296 163.523 51.088 163.523 49.664C163.523 48.256 163.755 47.048 164.219 46.04C164.699 45.032 165.363 44.256 166.211 43.712C167.075 43.168 168.075 42.896 169.211 42.896ZM169.187 44.624C168.179 44.624 167.379 44.952 166.787 45.608C166.211 46.248 165.867 47.144 165.755 48.296H172.307C172.291 47.208 172.035 46.328 171.539 45.656C171.043 44.968 170.259 44.624 169.187 44.624ZM183.79 42.896C184.03 42.896 184.286 42.912 184.558 42.944C184.846 42.96 185.094 42.992 185.302 43.04L185.038 44.984C184.83 44.936 184.598 44.896 184.342 44.864C184.102 44.832 183.87 44.816 183.646 44.816C182.99 44.816 182.374 45 181.798 45.368C181.222 45.72 180.758 46.224 180.406 46.88C180.07 47.52 179.902 48.272 179.902 49.136V56H177.79V43.136H179.518L179.758 45.488H179.854C180.27 44.784 180.806 44.176 181.462 43.664C182.118 43.152 182.894 42.896 183.79 42.896ZM192 54.512C192.32 54.512 192.648 54.488 192.984 54.44C193.32 54.376 193.592 54.312 193.8 54.248V55.856C193.576 55.968 193.256 56.056 192.84 56.12C192.424 56.2 192.024 56.24 191.64 56.24C190.968 56.24 190.344 56.128 189.768 55.904C189.208 55.664 188.752 55.256 188.4 54.68C188.048 54.104 187.872 53.296 187.872 52.256V44.768H186.048V43.76L187.896 42.92L188.736 40.184H189.984V43.136H193.704V44.768H189.984V52.208C189.984 52.992 190.168 53.576 190.536 53.96C190.92 54.328 191.408 54.512 192 54.512ZM201.248 42.92C202.816 42.92 203.976 43.264 204.728 43.952C205.48 44.64 205.856 45.736 205.856 47.24V56H204.32L203.912 54.176H203.816C203.256 54.88 202.664 55.4 202.04 55.736C201.432 56.072 200.584 56.24 199.496 56.24C198.328 56.24 197.36 55.936 196.592 55.328C195.824 54.704 195.44 53.736 195.44 52.424C195.44 51.144 195.944 50.16 196.952 49.472C197.96 48.768 199.512 48.384 201.608 48.32L203.792 48.248V47.48C203.792 46.408 203.56 45.664 203.096 45.248C202.632 44.832 201.976 44.624 201.128 44.624C200.456 44.624 199.816 44.728 199.208 44.936C198.6 45.128 198.032 45.352 197.504 45.608L196.856 44.024C197.416 43.72 198.08 43.464 198.848 43.256C199.616 43.032 200.416 42.92 201.248 42.92ZM203.768 49.712L201.872 49.784C200.272 49.848 199.16 50.104 198.536 50.552C197.928 51 197.624 51.632 197.624 52.448C197.624 53.168 197.84 53.696 198.272 54.032C198.72 54.368 199.288 54.536 199.976 54.536C201.064 54.536 201.968 54.24 202.688 53.648C203.408 53.04 203.768 52.112 203.768 50.864V49.712ZM222.063 42.896C222.303 42.896 222.559 42.912 222.831 42.944C223.119 42.96 223.367 42.992 223.575 43.04L223.311 44.984C223.103 44.936 222.871 44.896 222.615 44.864C222.375 44.832 222.143 44.816 221.919 44.816C221.263 44.816 220.647 45 220.071 45.368C219.495 45.72 219.031 46.224 218.679 46.88C218.343 47.52 218.175 48.272 218.175 49.136V56H216.063V43.136H217.791L218.031 45.488H218.127C218.543 44.784 219.079 44.176 219.735 43.664C220.391 43.152 221.167 42.896 222.063 42.896ZM236.73 43.136V56H235.002L234.69 54.296H234.594C234.178 54.968 233.602 55.464 232.866 55.784C232.13 56.088 231.346 56.24 230.514 56.24C228.962 56.24 227.794 55.872 227.01 55.136C226.226 54.384 225.834 53.192 225.834 51.56V43.136H227.97V51.416C227.97 53.464 228.922 54.488 230.826 54.488C232.25 54.488 233.234 54.088 233.778 53.288C234.338 52.488 234.618 51.336 234.618 49.832V43.136H236.73ZM254.925 42.896C256.381 42.896 257.469 43.272 258.189 44.024C258.909 44.76 259.269 45.96 259.269 47.624V56H257.181V47.72C257.181 45.688 256.309 44.672 254.565 44.672C253.317 44.672 252.421 45.032 251.877 45.752C251.349 46.472 251.085 47.52 251.085 48.896V56H248.997V47.72C248.997 45.688 248.117 44.672 246.357 44.672C245.061 44.672 244.165 45.072 243.669 45.872C243.173 46.672 242.925 47.824 242.925 49.328V56H240.813V43.136H242.517L242.829 44.888H242.949C243.349 44.216 243.885 43.72 244.557 43.4C245.245 43.064 245.973 42.896 246.741 42.896C248.757 42.896 250.069 43.616 250.677 45.056H250.797C251.229 44.32 251.813 43.776 252.549 43.424C253.301 43.072 254.093 42.896 254.925 42.896ZM268.115 42.92C269.683 42.92 270.843 43.264 271.595 43.952C272.347 44.64 272.723 45.736 272.723 47.24V56H271.187L270.779 54.176H270.683C270.123 54.88 269.531 55.4 268.907 55.736C268.299 56.072 267.451 56.24 266.363 56.24C265.195 56.24 264.227 55.936 263.459 55.328C262.691 54.704 262.307 53.736 262.307 52.424C262.307 51.144 262.811 50.16 263.819 49.472C264.827 48.768 266.379 48.384 268.475 48.32L270.659 48.248V47.48C270.659 46.408 270.427 45.664 269.963 45.248C269.499 44.832 268.843 44.624 267.995 44.624C267.323 44.624 266.683 44.728 266.075 44.936C265.467 45.128 264.899 45.352 264.371 45.608L263.723 44.024C264.283 43.72 264.947 43.464 265.715 43.256C266.483 43.032 267.283 42.92 268.115 42.92ZM270.635 49.712L268.739 49.784C267.139 49.848 266.027 50.104 265.403 50.552C264.795 51 264.491 51.632 264.491 52.448C264.491 53.168 264.707 53.696 265.139 54.032C265.587 54.368 266.155 54.536 266.843 54.536C267.931 54.536 268.835 54.24 269.555 53.648C270.275 53.04 270.635 52.112 270.635 50.864V49.712ZM278.808 37.76V43.112C278.808 43.752 278.768 44.352 278.688 44.912H278.832C279.248 44.256 279.808 43.76 280.512 43.424C281.232 43.088 282.008 42.92 282.84 42.92C284.408 42.92 285.584 43.296 286.368 44.048C287.152 44.784 287.544 45.976 287.544 47.624V56H285.456V47.768C285.456 45.704 284.496 44.672 282.576 44.672C281.136 44.672 280.144 45.08 279.6 45.896C279.072 46.696 278.808 47.848 278.808 49.352V56H276.696V37.76H278.808ZM299.879 37.76V42.2C299.879 42.744 299.863 43.256 299.831 43.736C299.815 44.2 299.791 44.568 299.759 44.84H299.879C300.247 44.296 300.751 43.84 301.391 43.472C302.031 43.104 302.855 42.92 303.863 42.92C305.463 42.92 306.743 43.48 307.703 44.6C308.679 45.704 309.167 47.36 309.167 49.568C309.167 51.776 308.679 53.44 307.703 54.56C306.727 55.68 305.447 56.24 303.863 56.24C302.855 56.24 302.031 56.056 301.391 55.688C300.751 55.32 300.247 54.88 299.879 54.368H299.711L299.279 56H297.767V37.76H299.879ZM303.503 44.672C302.143 44.672 301.199 45.064 300.671 45.848C300.143 46.632 299.879 47.848 299.879 49.496V49.592C299.879 51.176 300.135 52.392 300.647 53.24C301.175 54.072 302.143 54.488 303.551 54.488C304.703 54.488 305.559 54.064 306.119 53.216C306.695 52.368 306.983 51.144 306.983 49.544C306.983 46.296 305.823 44.672 303.503 44.672ZM317.404 42.92C318.972 42.92 320.132 43.264 320.884 43.952C321.636 44.64 322.012 45.736 322.012 47.24V56H320.476L320.068 54.176H319.972C319.412 54.88 318.82 55.4 318.196 55.736C317.588 56.072 316.74 56.24 315.652 56.24C314.484 56.24 313.516 55.936 312.748 55.328C311.98 54.704 311.596 53.736 311.596 52.424C311.596 51.144 312.1 50.16 313.108 49.472C314.116 48.768 315.668 48.384 317.764 48.32L319.948 48.248V47.48C319.948 46.408 319.716 45.664 319.252 45.248C318.788 44.832 318.132 44.624 317.284 44.624C316.612 44.624 315.972 44.728 315.364 44.936C314.756 45.128 314.188 45.352 313.66 45.608L313.012 44.024C313.572 43.72 314.236 43.464 315.004 43.256C315.772 43.032 316.572 42.92 317.404 42.92ZM319.924 49.712L318.028 49.784C316.428 49.848 315.316 50.104 314.692 50.552C314.084 51 313.78 51.632 313.78 52.448C313.78 53.168 313.996 53.696 314.428 54.032C314.876 54.368 315.444 54.536 316.132 54.536C317.22 54.536 318.124 54.24 318.844 53.648C319.564 53.04 319.924 52.112 319.924 50.864V49.712ZM330.545 42.896C331.393 42.896 332.153 43.056 332.825 43.376C333.513 43.696 334.097 44.184 334.577 44.84H334.697L334.985 43.136H336.665V56.216C336.665 58.056 336.193 59.44 335.249 60.368C334.321 61.296 332.873 61.76 330.905 61.76C329.017 61.76 327.473 61.488 326.273 60.944V59C327.537 59.672 329.121 60.008 331.025 60.008C332.129 60.008 332.993 59.68 333.617 59.024C334.257 58.384 334.577 57.504 334.577 56.384V55.88C334.577 55.688 334.585 55.416 334.601 55.064C334.617 54.696 334.633 54.44 334.649 54.296H334.553C333.689 55.592 332.361 56.24 330.569 56.24C328.905 56.24 327.601 55.656 326.657 54.488C325.729 53.32 325.265 51.688 325.265 49.592C325.265 47.544 325.729 45.92 326.657 44.72C327.601 43.504 328.897 42.896 330.545 42.896ZM330.833 44.672C329.761 44.672 328.929 45.104 328.337 45.968C327.745 46.816 327.449 48.032 327.449 49.616C327.449 51.2 327.737 52.416 328.313 53.264C328.905 54.096 329.761 54.512 330.881 54.512C332.177 54.512 333.121 54.168 333.713 53.48C334.305 52.776 334.601 51.648 334.601 50.096V49.592C334.601 47.832 334.297 46.576 333.689 45.824C333.081 45.056 332.129 44.672 330.833 44.672ZM341.831 38.312C342.151 38.312 342.431 38.424 342.671 38.648C342.927 38.856 343.055 39.192 343.055 39.656C343.055 40.104 342.927 40.44 342.671 40.664C342.431 40.888 342.151 41 341.831 41C341.479 41 341.183 40.888 340.943 40.664C340.703 40.44 340.583 40.104 340.583 39.656C340.583 39.192 340.703 38.856 340.943 38.648C341.183 38.424 341.479 38.312 341.831 38.312ZM342.863 43.136V56H340.751V43.136H342.863ZM359.293 42.896C360.877 42.896 362.149 43.448 363.109 44.552C364.085 45.656 364.573 47.32 364.573 49.544C364.573 51.736 364.085 53.4 363.109 54.536C362.149 55.672 360.869 56.24 359.269 56.24C358.277 56.24 357.453 56.056 356.797 55.688C356.157 55.304 355.653 54.864 355.285 54.368H355.141C355.173 54.64 355.205 54.984 355.237 55.4C355.269 55.816 355.285 56.176 355.285 56.48V61.76H353.173V43.136H354.901L355.189 44.888H355.285C355.669 44.328 356.173 43.856 356.797 43.472C357.421 43.088 358.253 42.896 359.293 42.896ZM358.909 44.672C357.597 44.672 356.669 45.04 356.125 45.776C355.597 46.512 355.317 47.632 355.285 49.136V49.544C355.285 51.128 355.541 52.352 356.053 53.216C356.581 54.064 357.549 54.488 358.957 54.488C359.741 54.488 360.381 54.272 360.877 53.84C361.389 53.408 361.765 52.824 362.005 52.088C362.261 51.336 362.389 50.48 362.389 49.52C362.389 48.048 362.101 46.872 361.525 45.992C360.965 45.112 360.093 44.672 358.909 44.672ZM372.81 42.92C374.378 42.92 375.538 43.264 376.29 43.952C377.042 44.64 377.418 45.736 377.418 47.24V56H375.882L375.474 54.176H375.378C374.818 54.88 374.226 55.4 373.602 55.736C372.994 56.072 372.146 56.24 371.058 56.24C369.89 56.24 368.922 55.936 368.154 55.328C367.386 54.704 367.002 53.736 367.002 52.424C367.002 51.144 367.506 50.16 368.514 49.472C369.522 48.768 371.074 48.384 373.17 48.32L375.354 48.248V47.48C375.354 46.408 375.122 45.664 374.658 45.248C374.194 44.832 373.538 44.624 372.69 44.624C372.018 44.624 371.378 44.728 370.77 44.936C370.162 45.128 369.594 45.352 369.066 45.608L368.418 44.024C368.978 43.72 369.642 43.464 370.41 43.256C371.178 43.032 371.978 42.92 372.81 42.92ZM375.33 49.712L373.434 49.784C371.834 49.848 370.722 50.104 370.098 50.552C369.49 51 369.186 51.632 369.186 52.448C369.186 53.168 369.402 53.696 369.834 54.032C370.282 54.368 370.85 54.536 371.538 54.536C372.626 54.536 373.53 54.24 374.25 53.648C374.97 53.04 375.33 52.112 375.33 50.864V49.712ZM387.392 42.896C387.632 42.896 387.888 42.912 388.16 42.944C388.448 42.96 388.696 42.992 388.904 43.04L388.64 44.984C388.432 44.936 388.2 44.896 387.944 44.864C387.704 44.832 387.472 44.816 387.248 44.816C386.592 44.816 385.976 45 385.4 45.368C384.824 45.72 384.36 46.224 384.008 46.88C383.672 47.52 383.504 48.272 383.504 49.136V56H381.392V43.136H383.12L383.36 45.488H383.456C383.872 44.784 384.408 44.176 385.064 43.664C385.72 43.152 386.496 42.896 387.392 42.896ZM395.709 42.92C397.277 42.92 398.437 43.264 399.189 43.952C399.941 44.64 400.317 45.736 400.317 47.24V56H398.781L398.373 54.176H398.277C397.717 54.88 397.125 55.4 396.501 55.736C395.893 56.072 395.045 56.24 393.957 56.24C392.789 56.24 391.821 55.936 391.053 55.328C390.285 54.704 389.901 53.736 389.901 52.424C389.901 51.144 390.405 50.16 391.413 49.472C392.421 48.768 393.973 48.384 396.069 48.32L398.253 48.248V47.48C398.253 46.408 398.021 45.664 397.557 45.248C397.093 44.832 396.437 44.624 395.589 44.624C394.917 44.624 394.277 44.728 393.669 44.936C393.061 45.128 392.493 45.352 391.965 45.608L391.317 44.024C391.877 43.72 392.541 43.464 393.309 43.256C394.077 43.032 394.877 42.92 395.709 42.92ZM398.229 49.712L396.333 49.784C394.733 49.848 393.621 50.104 392.997 50.552C392.389 51 392.085 51.632 392.085 52.448C392.085 53.168 392.301 53.696 392.733 54.032C393.181 54.368 393.749 54.536 394.437 54.536C395.525 54.536 396.429 54.24 397.149 53.648C397.869 53.04 398.229 52.112 398.229 50.864V49.712ZM416.644 42.896C418.228 42.896 419.5 43.448 420.46 44.552C421.436 45.656 421.924 47.32 421.924 49.544C421.924 51.736 421.436 53.4 420.46 54.536C419.5 55.672 418.22 56.24 416.62 56.24C415.628 56.24 414.804 56.056 414.148 55.688C413.508 55.304 413.004 54.864 412.636 54.368H412.492C412.524 54.64 412.556 54.984 412.588 55.4C412.62 55.816 412.636 56.176 412.636 56.48V61.76H410.524V43.136H412.252L412.54 44.888H412.636C413.02 44.328 413.524 43.856 414.148 43.472C414.772 43.088 415.604 42.896 416.644 42.896ZM416.26 44.672C414.948 44.672 414.02 45.04 413.476 45.776C412.948 46.512 412.668 47.632 412.636 49.136V49.544C412.636 51.128 412.892 52.352 413.404 53.216C413.932 54.064 414.9 54.488 416.308 54.488C417.092 54.488 417.732 54.272 418.228 53.84C418.74 53.408 419.116 52.824 419.356 52.088C419.612 51.336 419.74 50.48 419.74 49.52C419.74 48.048 419.452 46.872 418.876 45.992C418.316 45.112 417.444 44.672 416.26 44.672ZM431.29 42.896C431.53 42.896 431.786 42.912 432.058 42.944C432.346 42.96 432.594 42.992 432.802 43.04L432.538 44.984C432.33 44.936 432.098 44.896 431.842 44.864C431.602 44.832 431.37 44.816 431.146 44.816C430.49 44.816 429.874 45 429.298 45.368C428.722 45.72 428.258 46.224 427.906 46.88C427.57 47.52 427.402 48.272 427.402 49.136V56H425.29V43.136H427.018L427.258 45.488H427.354C427.77 44.784 428.306 44.176 428.962 43.664C429.618 43.152 430.394 42.896 431.29 42.896ZM445.919 49.544C445.919 51.672 445.375 53.32 444.287 54.488C443.215 55.656 441.759 56.24 439.919 56.24C438.783 56.24 437.767 55.984 436.871 55.472C435.991 54.944 435.295 54.184 434.783 53.192C434.271 52.184 434.015 50.968 434.015 49.544C434.015 47.416 434.551 45.776 435.623 44.624C436.695 43.472 438.151 42.896 439.991 42.896C441.159 42.896 442.183 43.16 443.063 43.688C443.959 44.2 444.655 44.952 445.151 45.944C445.663 46.92 445.919 48.12 445.919 49.544ZM436.199 49.544C436.199 51.064 436.495 52.272 437.087 53.168C437.695 54.048 438.655 54.488 439.967 54.488C441.263 54.488 442.215 54.048 442.823 53.168C443.431 52.272 443.735 51.064 443.735 49.544C443.735 48.024 443.431 46.832 442.823 45.968C442.215 45.104 441.255 44.672 439.943 44.672C438.631 44.672 437.679 45.104 437.087 45.968C436.495 46.832 436.199 48.024 436.199 49.544ZM455.195 44.768H451.955V56H449.843V44.768H447.587V43.784L449.843 43.064V42.32C449.843 40.656 450.211 39.464 450.947 38.744C451.683 38.008 452.707 37.64 454.019 37.64C454.531 37.64 454.995 37.688 455.411 37.784C455.843 37.864 456.211 37.96 456.515 38.072L455.963 39.728C455.707 39.648 455.411 39.568 455.075 39.488C454.739 39.408 454.395 39.368 454.043 39.368C453.339 39.368 452.811 39.608 452.459 40.088C452.123 40.552 451.955 41.288 451.955 42.296V43.136H455.195V44.768ZM462.485 42.896C463.589 42.896 464.533 43.136 465.317 43.616C466.117 44.096 466.725 44.776 467.141 45.656C467.573 46.52 467.789 47.536 467.789 48.704V49.976H458.981C459.013 51.432 459.381 52.544 460.085 53.312C460.805 54.064 461.805 54.44 463.085 54.44C463.901 54.44 464.621 54.368 465.245 54.224C465.885 54.064 466.541 53.84 467.213 53.552V55.4C466.557 55.688 465.909 55.896 465.269 56.024C464.629 56.168 463.869 56.24 462.989 56.24C461.773 56.24 460.693 55.992 459.749 55.496C458.821 55 458.093 54.264 457.565 53.288C457.053 52.296 456.797 51.088 456.797 49.664C456.797 48.256 457.029 47.048 457.493 46.04C457.973 45.032 458.637 44.256 459.485 43.712C460.349 43.168 461.349 42.896 462.485 42.896ZM462.461 44.624C461.453 44.624 460.653 44.952 460.061 45.608C459.485 46.248 459.141 47.144 459.029 48.296H465.581C465.565 47.208 465.309 46.328 464.813 45.656C464.317 44.968 463.533 44.624 462.461 44.624ZM479.439 52.448C479.439 53.696 478.975 54.64 478.047 55.28C477.119 55.92 475.871 56.24 474.303 56.24C473.407 56.24 472.631 56.168 471.975 56.024C471.335 55.88 470.767 55.68 470.271 55.424V53.504C470.783 53.76 471.399 54 472.119 54.224C472.855 54.432 473.599 54.536 474.351 54.536C475.423 54.536 476.199 54.368 476.679 54.032C477.159 53.68 477.399 53.216 477.399 52.64C477.399 52.32 477.311 52.032 477.135 51.776C476.959 51.52 476.639 51.264 476.175 51.008C475.727 50.752 475.079 50.464 474.231 50.144C473.399 49.824 472.687 49.504 472.095 49.184C471.503 48.864 471.047 48.48 470.727 48.032C470.407 47.584 470.247 47.008 470.247 46.304C470.247 45.216 470.687 44.376 471.567 43.784C472.463 43.192 473.631 42.896 475.071 42.896C475.855 42.896 476.583 42.976 477.255 43.136C477.943 43.28 478.583 43.488 479.175 43.76L478.455 45.44C477.911 45.216 477.343 45.024 476.751 44.864C476.159 44.704 475.551 44.624 474.927 44.624C474.063 44.624 473.399 44.768 472.935 45.056C472.487 45.328 472.263 45.704 472.263 46.184C472.263 46.536 472.367 46.84 472.575 47.096C472.783 47.336 473.127 47.576 473.607 47.816C474.103 48.04 474.759 48.312 475.575 48.632C476.391 48.936 477.087 49.248 477.663 49.568C478.239 49.888 478.679 50.28 478.983 50.744C479.287 51.192 479.439 51.76 479.439 52.448ZM483.628 38.312C483.948 38.312 484.228 38.424 484.468 38.648C484.724 38.856 484.852 39.192 484.852 39.656C484.852 40.104 484.724 40.44 484.468 40.664C484.228 40.888 483.948 41 483.628 41C483.276 41 482.98 40.888 482.74 40.664C482.5 40.44 482.38 40.104 482.38 39.656C482.38 39.192 482.5 38.856 482.74 38.648C482.98 38.424 483.276 38.312 483.628 38.312ZM484.66 43.136V56H482.548V43.136H484.66ZM499.919 49.544C499.919 51.672 499.375 53.32 498.287 54.488C497.215 55.656 495.759 56.24 493.919 56.24C492.783 56.24 491.767 55.984 490.871 55.472C489.991 54.944 489.295 54.184 488.783 53.192C488.271 52.184 488.015 50.968 488.015 49.544C488.015 47.416 488.551 45.776 489.623 44.624C490.695 43.472 492.151 42.896 493.991 42.896C495.159 42.896 496.183 43.16 497.063 43.688C497.959 44.2 498.655 44.952 499.151 45.944C499.663 46.92 499.919 48.12 499.919 49.544ZM490.199 49.544C490.199 51.064 490.495 52.272 491.087 53.168C491.695 54.048 492.655 54.488 493.967 54.488C495.263 54.488 496.215 54.048 496.823 53.168C497.431 52.272 497.735 51.064 497.735 49.544C497.735 48.024 497.431 46.832 496.823 45.968C496.215 45.104 495.255 44.672 493.943 44.672C492.631 44.672 491.679 45.104 491.087 45.968C490.495 46.832 490.199 48.024 490.199 49.544ZM509.459 42.896C510.995 42.896 512.155 43.272 512.939 44.024C513.723 44.76 514.115 45.96 514.115 47.624V56H512.027V47.768C512.027 45.704 511.067 44.672 509.147 44.672C507.723 44.672 506.739 45.072 506.195 45.872C505.651 46.672 505.379 47.824 505.379 49.328V56H503.267V43.136H504.971L505.283 44.888H505.403C505.819 44.216 506.395 43.72 507.131 43.4C507.867 43.064 508.643 42.896 509.459 42.896ZM522.975 42.92C524.543 42.92 525.703 43.264 526.455 43.952C527.207 44.64 527.583 45.736 527.583 47.24V56H526.047L525.639 54.176H525.543C524.983 54.88 524.391 55.4 523.767 55.736C523.159 56.072 522.311 56.24 521.223 56.24C520.055 56.24 519.087 55.936 518.319 55.328C517.551 54.704 517.167 53.736 517.167 52.424C517.167 51.144 517.671 50.16 518.679 49.472C519.687 48.768 521.239 48.384 523.335 48.32L525.519 48.248V47.48C525.519 46.408 525.287 45.664 524.823 45.248C524.359 44.832 523.703 44.624 522.855 44.624C522.183 44.624 521.543 44.728 520.935 44.936C520.327 45.128 519.759 45.352 519.23 45.608L518.583 44.024C519.143 43.72 519.807 43.464 520.575 43.256C521.343 43.032 522.143 42.92 522.975 42.92ZM525.495 49.712L523.599 49.784C521.999 49.848 520.887 50.104 520.263 50.552C519.655 51 519.351 51.632 519.351 52.448C519.351 53.168 519.567 53.696 519.999 54.032C520.447 54.368 521.015 54.536 521.703 54.536C522.791 54.536 523.695 54.24 524.415 53.648C525.135 53.04 525.495 52.112 525.495 50.864V49.712ZM533.668 56H531.556V37.76H533.668V56ZM548.538 56.24C546.938 56.24 545.658 55.688 544.698 54.584C543.738 53.464 543.258 51.8 543.258 49.592C543.258 47.384 543.738 45.72 544.698 44.6C545.674 43.464 546.962 42.896 548.562 42.896C549.554 42.896 550.362 43.08 550.986 43.448C551.626 43.816 552.146 44.264 552.546 44.792H552.69C552.674 44.584 552.642 44.28 552.594 43.88C552.562 43.464 552.546 43.136 552.546 42.896V37.76H554.658V56H552.954L552.642 54.272H552.546C552.162 54.816 551.65 55.28 551.01 55.664C550.37 56.048 549.546 56.24 548.538 56.24ZM548.874 54.488C550.234 54.488 551.186 54.12 551.73 53.384C552.29 52.632 552.57 51.504 552.57 50V49.616C552.57 48.016 552.306 46.792 551.778 45.944C551.25 45.08 550.274 44.648 548.85 44.648C547.714 44.648 546.858 45.104 546.282 46.016C545.722 46.912 545.442 48.12 545.442 49.64C545.442 51.176 545.722 52.368 546.282 53.216C546.858 54.064 547.722 54.488 548.874 54.488ZM563.711 42.896C564.815 42.896 565.759 43.136 566.543 43.616C567.343 44.096 567.951 44.776 568.367 45.656C568.799 46.52 569.015 47.536 569.015 48.704V49.976H560.207C560.239 51.432 560.607 52.544 561.311 53.312C562.031 54.064 563.031 54.44 564.311 54.44C565.127 54.44 565.847 54.368 566.471 54.224C567.111 54.064 567.767 53.84 568.439 53.552V55.4C567.783 55.688 567.135 55.896 566.495 56.024C565.855 56.168 565.095 56.24 564.215 56.24C562.999 56.24 561.919 55.992 560.975 55.496C560.047 55 559.319 54.264 558.791 53.288C558.279 52.296 558.023 51.088 558.023 49.664C558.023 48.256 558.255 47.048 558.719 46.04C559.199 45.032 559.863 44.256 560.711 43.712C561.575 43.168 562.575 42.896 563.711 42.896ZM563.687 44.624C562.679 44.624 561.879 44.952 561.287 45.608C560.711 46.248 560.367 47.144 560.255 48.296H566.807C566.791 47.208 566.535 46.328 566.039 45.656C565.543 44.968 564.759 44.624 563.687 44.624ZM580.666 52.448C580.666 53.696 580.202 54.64 579.274 55.28C578.346 55.92 577.098 56.24 575.53 56.24C574.634 56.24 573.858 56.168 573.202 56.024C572.562 55.88 571.994 55.68 571.498 55.424V53.504C572.01 53.76 572.626 54 573.346 54.224C574.082 54.432 574.826 54.536 575.578 54.536C576.65 54.536 577.426 54.368 577.906 54.032C578.386 53.68 578.626 53.216 578.626 52.64C578.626 52.32 578.538 52.032 578.362 51.776C578.186 51.52 577.866 51.264 577.402 51.008C576.954 50.752 576.306 50.464 575.458 50.144C574.626 49.824 573.914 49.504 573.322 49.184C572.73 48.864 572.274 48.48 571.954 48.032C571.634 47.584 571.474 47.008 571.474 46.304C571.474 45.216 571.914 44.376 572.794 43.784C573.69 43.192 574.858 42.896 576.298 42.896C577.082 42.896 577.81 42.976 578.482 43.136C579.17 43.28 579.81 43.488 580.402 43.76L579.682 45.44C579.138 45.216 578.57 45.024 577.978 44.864C577.386 44.704 576.778 44.624 576.154 44.624C575.29 44.624 574.626 44.768 574.162 45.056C573.714 45.328 573.49 45.704 573.49 46.184C573.49 46.536 573.594 46.84 573.802 47.096C574.01 47.336 574.354 47.576 574.834 47.816C575.33 48.04 575.986 48.312 576.802 48.632C577.618 48.936 578.314 49.248 578.89 49.568C579.466 49.888 579.906 50.28 580.21 50.744C580.514 51.192 580.666 51.76 580.666 52.448ZM588.646 42.92C590.214 42.92 591.374 43.264 592.126 43.952C592.878 44.64 593.254 45.736 593.254 47.24V56H591.718L591.31 54.176H591.214C590.654 54.88 590.062 55.4 589.438 55.736C588.83 56.072 587.982 56.24 586.894 56.24C585.726 56.24 584.758 55.936 583.99 55.328C583.222 54.704 582.838 53.736 582.838 52.424C582.838 51.144 583.342 50.16 584.35 49.472C585.358 48.768 586.91 48.384 589.006 48.32L591.19 48.248V47.48C591.19 46.408 590.958 45.664 590.494 45.248C590.03 44.832 589.374 44.624 588.526 44.624C587.854 44.624 587.214 44.728 586.606 44.936C585.998 45.128 585.43 45.352 584.902 45.608L584.254 44.024C584.814 43.72 585.478 43.464 586.246 43.256C587.014 43.032 587.814 42.92 588.646 42.92ZM591.166 49.712L589.27 49.784C587.67 49.848 586.558 50.104 585.934 50.552C585.326 51 585.022 51.632 585.022 52.448C585.022 53.168 585.238 53.696 585.67 54.032C586.118 54.368 586.686 54.536 587.374 54.536C588.462 54.536 589.366 54.24 590.086 53.648C590.806 53.04 591.166 52.112 591.166 50.864V49.712ZM598.308 38.312C598.628 38.312 598.908 38.424 599.148 38.648C599.404 38.856 599.532 39.192 599.532 39.656C599.532 40.104 599.404 40.44 599.148 40.664C598.908 40.888 598.628 41 598.308 41C597.956 41 597.66 40.888 597.42 40.664C597.18 40.44 597.06 40.104 597.06 39.656C597.06 39.192 597.18 38.856 597.42 38.648C597.66 38.424 597.956 38.312 598.308 38.312ZM599.34 43.136V56H597.228V43.136H599.34ZM609.607 42.896C611.143 42.896 612.303 43.272 613.087 44.024C613.871 44.76 614.263 45.96 614.263 47.624V56H612.175V47.768C612.175 45.704 611.215 44.672 609.295 44.672C607.871 44.672 606.887 45.072 606.343 45.872C605.799 46.672 605.527 47.824 605.527 49.328V56H603.415V43.136H605.119L605.431 44.888H605.551C605.967 44.216 606.543 43.72 607.279 43.4C608.015 43.064 608.791 42.896 609.607 42.896ZM628.781 54.512C629.101 54.512 629.429 54.488 629.765 54.44C630.101 54.376 630.373 54.312 630.581 54.248V55.856C630.357 55.968 630.037 56.056 629.621 56.12C629.205 56.2 628.805 56.24 628.421 56.24C627.749 56.24 627.125 56.128 626.549 55.904C625.989 55.664 625.533 55.256 625.181 54.68C624.829 54.104 624.653 53.296 624.653 52.256V44.768H622.829V43.76L624.677 42.92L625.517 40.184H626.765V43.136H630.485V44.768H626.765V52.208C626.765 52.992 626.949 53.576 627.317 53.96C627.701 54.328 628.189 54.512 628.781 54.512ZM638.125 42.896C639.229 42.896 640.173 43.136 640.957 43.616C641.757 44.096 642.365 44.776 642.781 45.656C643.213 46.52 643.429 47.536 643.429 48.704V49.976H634.621C634.653 51.432 635.021 52.544 635.725 53.312C636.445 54.064 637.445 54.44 638.725 54.44C639.541 54.44 640.261 54.368 640.885 54.224C641.525 54.064 642.181 53.84 642.853 53.552V55.4C642.197 55.688 641.549 55.896 640.909 56.024C640.269 56.168 639.509 56.24 638.629 56.24C637.413 56.24 636.333 55.992 635.389 55.496C634.461 55 633.733 54.264 633.205 53.288C632.693 52.296 632.437 51.088 632.437 49.664C632.437 48.256 632.669 47.048 633.133 46.04C633.613 45.032 634.277 44.256 635.125 43.712C635.989 43.168 636.989 42.896 638.125 42.896ZM638.101 44.624C637.093 44.624 636.293 44.952 635.701 45.608C635.125 46.248 634.781 47.144 634.669 48.296H641.221C641.205 47.208 640.949 46.328 640.453 45.656C639.957 44.968 639.173 44.624 638.101 44.624ZM652.704 42.896C652.944 42.896 653.2 42.912 653.472 42.944C653.76 42.96 654.008 42.992 654.216 43.04L653.952 44.984C653.744 44.936 653.512 44.896 653.256 44.864C653.016 44.832 652.784 44.816 652.56 44.816C651.904 44.816 651.288 45 650.712 45.368C650.136 45.72 649.672 46.224 649.32 46.88C648.984 47.52 648.816 48.272 648.816 49.136V56H646.704V43.136H648.432L648.672 45.488H648.768C649.184 44.784 649.72 44.176 650.376 43.664C651.032 43.152 651.808 42.896 652.704 42.896ZM658.73 37.76V42.2C658.73 42.744 658.714 43.256 658.682 43.736C658.666 44.2 658.642 44.568 658.61 44.84H658.73C659.098 44.296 659.602 43.84 660.242 43.472C660.882 43.104 661.706 42.92 662.714 42.92C664.314 42.92 665.594 43.48 666.554 44.6C667.53 45.704 668.018 47.36 668.018 49.568C668.018 51.776 667.53 53.44 666.554 54.56C665.578 55.68 664.298 56.24 662.714 56.24C661.706 56.24 660.882 56.056 660.242 55.688C659.602 55.32 659.098 54.88 658.73 54.368H658.562L658.13 56H656.618V37.76H658.73ZM662.354 44.672C660.994 44.672 660.05 45.064 659.522 45.848C658.994 46.632 658.73 47.848 658.73 49.496V49.592C658.73 51.176 658.986 52.392 659.498 53.24C660.026 54.072 660.994 54.488 662.402 54.488C663.554 54.488 664.41 54.064 664.97 53.216C665.546 52.368 665.834 51.144 665.834 49.544C665.834 46.296 664.674 44.672 662.354 44.672ZM676.256 42.92C677.824 42.92 678.984 43.264 679.736 43.952C680.488 44.64 680.864 45.736 680.864 47.24V56H679.328L678.92 54.176H678.824C678.264 54.88 677.672 55.4 677.048 55.736C676.44 56.072 675.592 56.24 674.504 56.24C673.336 56.24 672.368 55.936 671.6 55.328C670.832 54.704 670.448 53.736 670.448 52.424C670.448 51.144 670.952 50.16 671.96 49.472C672.968 48.768 674.52 48.384 676.616 48.32L678.8 48.248V47.48C678.8 46.408 678.568 45.664 678.104 45.248C677.64 44.832 676.984 44.624 676.136 44.624C675.464 44.624 674.824 44.728 674.216 44.936C673.608 45.128 673.04 45.352 672.512 45.608L671.864 44.024C672.424 43.72 673.088 43.464 673.856 43.256C674.624 43.032 675.424 42.92 676.256 42.92ZM678.776 49.712L676.88 49.784C675.28 49.848 674.168 50.104 673.544 50.552C672.936 51 672.632 51.632 672.632 52.448C672.632 53.168 672.848 53.696 673.28 54.032C673.728 54.368 674.296 54.536 674.984 54.536C676.072 54.536 676.976 54.24 677.696 53.648C678.416 53.04 678.776 52.112 678.776 50.864V49.712ZM685.917 38.312C686.237 38.312 686.517 38.424 686.757 38.648C687.013 38.856 687.141 39.192 687.141 39.656C687.141 40.104 687.013 40.44 686.757 40.664C686.517 40.888 686.237 41 685.917 41C685.565 41 685.269 40.888 685.029 40.664C684.789 40.44 684.669 40.104 684.669 39.656C684.669 39.192 684.789 38.856 685.029 38.648C685.269 38.424 685.565 38.312 685.917 38.312ZM686.949 43.136V56H684.837V43.136H686.949ZM693.112 37.76V47.288C693.112 47.544 693.096 47.88 693.064 48.296C693.048 48.712 693.032 49.072 693.016 49.376H693.112C693.208 49.248 693.352 49.064 693.544 48.824C693.736 48.584 693.928 48.344 694.12 48.104C694.328 47.848 694.504 47.64 694.648 47.48L698.752 43.136H701.224L696.016 48.632L701.584 56H699.04L694.576 50L693.112 51.272V56H691.024V37.76H693.112ZM714.639 56.24C713.039 56.24 711.759 55.688 710.799 54.584C709.839 53.464 709.359 51.8 709.359 49.592C709.359 47.384 709.839 45.72 710.799 44.6C711.775 43.464 713.063 42.896 714.663 42.896C715.655 42.896 716.463 43.08 717.087 43.448C717.727 43.816 718.247 44.264 718.647 44.792H718.791C718.775 44.584 718.743 44.28 718.695 43.88C718.663 43.464 718.647 43.136 718.647 42.896V37.76H720.759V56H719.055L718.743 54.272H718.647C718.263 54.816 717.751 55.28 717.111 55.664C716.471 56.048 715.647 56.24 714.639 56.24ZM714.975 54.488C716.335 54.488 717.287 54.12 717.831 53.384C718.391 52.632 718.671 51.504 718.671 50V49.616C718.671 48.016 718.407 46.792 717.879 45.944C717.351 45.08 716.375 44.648 714.951 44.648C713.815 44.648 712.959 45.104 712.383 46.016C711.823 46.912 711.543 48.12 711.543 49.64C711.543 51.176 711.823 52.368 712.383 53.216C712.959 54.064 713.823 54.488 714.975 54.488ZM725.925 38.312C726.245 38.312 726.525 38.424 726.765 38.648C727.021 38.856 727.149 39.192 727.149 39.656C727.149 40.104 727.021 40.44 726.765 40.664C726.525 40.888 726.245 41 725.925 41C725.573 41 725.277 40.888 725.037 40.664C724.797 40.44 724.677 40.104 724.677 39.656C724.677 39.192 724.797 38.856 725.037 38.648C725.277 38.424 725.573 38.312 725.925 38.312ZM726.957 43.136V56H724.845V43.136H726.957ZM741.827 56.24C740.227 56.24 738.947 55.688 737.987 54.584C737.027 53.464 736.547 51.8 736.547 49.592C736.547 47.384 737.027 45.72 737.987 44.6C738.963 43.464 740.251 42.896 741.851 42.896C742.843 42.896 743.651 43.08 744.275 43.448C744.915 43.816 745.435 44.264 745.835 44.792H745.979C745.963 44.584 745.931 44.28 745.883 43.88C745.851 43.464 745.835 43.136 745.835 42.896V37.76H747.947V56H746.243L745.931 54.272H745.835C745.451 54.816 744.939 55.28 744.299 55.664C743.659 56.048 742.835 56.24 741.827 56.24ZM742.163 54.488C743.523 54.488 744.475 54.12 745.019 53.384C745.579 52.632 745.859 51.504 745.859 50V49.616C745.859 48.016 745.595 46.792 745.067 45.944C744.539 45.08 743.563 44.648 742.139 44.648C741.003 44.648 740.147 45.104 739.571 46.016C739.011 46.912 738.731 48.12 738.731 49.64C738.731 51.176 739.011 52.368 739.571 53.216C740.147 54.064 741.011 54.488 742.163 54.488ZM762.784 43.136V56H761.056L760.744 54.296H760.648C760.232 54.968 759.656 55.464 758.92 55.784C758.184 56.088 757.4 56.24 756.568 56.24C755.016 56.24 753.848 55.872 753.064 55.136C752.28 54.384 751.888 53.192 751.888 51.56V43.136H754.024V51.416C754.024 53.464 754.976 54.488 756.88 54.488C758.304 54.488 759.288 54.088 759.832 53.288C760.392 52.488 760.672 51.336 760.672 49.832V43.136H762.784ZM773.06 42.896C774.596 42.896 775.756 43.272 776.54 44.024C777.324 44.76 777.716 45.96 777.716 47.624V56H775.628V47.768C775.628 45.704 774.668 44.672 772.748 44.672C771.324 44.672 770.34 45.072 769.796 45.872C769.252 46.672 768.98 47.824 768.98 49.328V56H766.868V43.136H768.572L768.884 44.888H769.004C769.42 44.216 769.996 43.72 770.732 43.4C771.468 43.064 772.244 42.896 773.06 42.896ZM782.784 38.312C783.104 38.312 783.384 38.424 783.624 38.648C783.88 38.856 784.008 39.192 784.008 39.656C784.008 40.104 783.88 40.44 783.624 40.664C783.384 40.888 783.104 41 782.784 41C782.432 41 782.136 40.888 781.896 40.664C781.656 40.44 781.536 40.104 781.536 39.656C781.536 39.192 781.656 38.856 781.896 38.648C782.136 38.424 782.432 38.312 782.784 38.312ZM783.816 43.136V56H781.704V43.136H783.816ZM792.764 42.92C794.332 42.92 795.492 43.264 796.244 43.952C796.996 44.64 797.372 45.736 797.372 47.24V56H795.836L795.428 54.176H795.332C794.772 54.88 794.18 55.4 793.556 55.736C792.948 56.072 792.1 56.24 791.012 56.24C789.844 56.24 788.876 55.936 788.108 55.328C787.34 54.704 786.956 53.736 786.956 52.424C786.956 51.144 787.46 50.16 788.468 49.472C789.476 48.768 791.028 48.384 793.124 48.32L795.308 48.248V47.48C795.308 46.408 795.076 45.664 794.612 45.248C794.148 44.832 793.492 44.624 792.644 44.624C791.972 44.624 791.332 44.728 790.724 44.936C790.116 45.128 789.548 45.352 789.02 45.608L788.372 44.024C788.932 43.72 789.596 43.464 790.364 43.256C791.132 43.032 791.932 42.92 792.764 42.92ZM795.284 49.712L793.388 49.784C791.788 49.848 790.676 50.104 790.052 50.552C789.444 51 789.14 51.632 789.14 52.448C789.14 53.168 789.356 53.696 789.788 54.032C790.236 54.368 790.804 54.536 791.492 54.536C792.58 54.536 793.484 54.24 794.204 53.648C794.924 53.04 795.284 52.112 795.284 50.864V49.712ZM802.305 56.168C801.889 56.168 801.529 56.048 801.225 55.808C800.937 55.568 800.793 55.144 800.793 54.536C800.793 53.912 800.937 53.488 801.225 53.264C801.529 53.024 801.889 52.904 802.305 52.904C802.721 52.904 803.073 53.024 803.361 53.264C803.665 53.488 803.817 53.912 803.817 54.536C803.817 55.144 803.665 55.568 803.361 55.808C803.073 56.048 802.721 56.168 802.305 56.168Z" fill="black"/>
</svg>
