<svg width="100" height="41" viewBox="0 0 100 41" fill="none" xmlns="http://www.w3.org/2000/svg">
<rect width="100" height="41" rx="20" fill="#7187D5"/>
<path d="M20.082 19.0498C20.1328 17.9834 20.2132 16.972 20.3232 16.0156C20.3232 16.0156 20.4036 15.3089 20.5645 13.8955C20.6237 13.4385 20.6745 12.973 20.7168 12.499C22.5365 11.9912 24.4154 11.6738 26.3535 11.5469L28.1943 19.1641L28.791 25.1436L29.3369 25.0928L30.5176 12.4736C31.7194 12.0505 33.1751 11.75 34.8848 11.5723C35.4095 11.5215 35.9004 11.4961 36.3574 11.4961L37.957 19.418L39.0996 27.9746L35.8115 28.3174L34.8086 19.71L33.9707 14.2129L33.1963 14.3145L32.6758 19.8369L31.4443 27.6318C29.9886 27.9027 28.3805 28.0592 26.6201 28.1016L23.9668 14.3779L23.1289 14.5049L23.0273 19.5957L22.2656 28.2412L19.0918 27.8477L20.082 19.0498ZM49.8779 28.9141C46.391 28.5586 43.6572 28.0296 41.6768 27.3271C41.3128 27.1917 41.0716 26.4131 40.9531 24.9912C40.8516 23.6878 40.9616 22.5579 41.2832 21.6016C41.4186 21.2038 41.5794 20.9837 41.7656 20.9414C42.5612 20.7298 43.3991 20.5775 44.2793 20.4844L46.9199 20.1924L46.8691 18.4023C45.9466 18.2246 45.0283 18.085 44.1143 17.9834C43.2087 17.8734 42.3073 17.7464 41.4102 17.6025L42.083 14.8223L44.2285 15.1396C46.1921 15.4274 47.7536 15.7786 48.9131 16.1934C49.4717 16.3965 49.751 16.807 49.751 17.4248L49.8018 24.3818L47.0977 24.6484L47.0215 22.4775L46.2979 22.6172C45.4854 22.7526 44.7109 22.9219 43.9746 23.125C43.8815 23.5736 43.835 23.946 43.835 24.2422C43.835 24.6738 43.8519 25.0081 43.8857 25.2451C45.0791 25.516 46.9199 25.791 49.4082 26.0703L50.4492 26.1846L49.8779 28.9141ZM52.4424 25.9688C52.4424 25.9688 53.348 25.9137 55.1592 25.8037C55.9971 25.7529 56.8392 25.6683 57.6855 25.5498L57.7744 23.9502L53.3184 22.1982C53.056 22.0967 52.8571 21.902 52.7217 21.6143C52.5863 21.318 52.5186 21.0853 52.5186 20.916C52.5186 20.7467 52.5186 20.641 52.5186 20.5986C52.527 20.5479 52.5397 20.4336 52.5566 20.2559L52.8359 17.8564C52.9206 17.1794 53.2633 16.7096 53.8643 16.4473C54.2367 16.278 54.7064 16.1257 55.2734 15.9902C56.4329 15.7194 57.2454 15.5374 57.7109 15.4443L58.9424 15.1777C59.2979 15.11 59.6152 15.0508 59.8945 15L60.4785 17.9072L55.5273 18.6436L55.3242 19.8623L60.0088 22.0459C60.5758 22.3083 60.8171 22.8118 60.7324 23.5566L60.3896 26.6162C60.3135 27.2679 59.7845 27.7038 58.8027 27.9238C57.7533 28.2116 56.5895 28.4232 55.3115 28.5586C54.042 28.7025 53.2041 28.7829 52.7979 28.7998L52.4424 25.9688ZM65.1123 27.873C64.8838 27.8477 64.6341 27.6826 64.3633 27.3779C63.9232 26.9124 63.6947 26.4723 63.6777 26.0576L63.4238 15.6221L66.3945 15.3047L66.6992 25.1309C66.987 25.2747 67.3001 25.3467 67.6387 25.3467C68.1296 25.3467 68.9124 25.0885 69.9873 24.5723L70.2793 15.4951H73.2119L73.0215 27.873L70.9141 28.127L70.3682 26.0957L67.7148 27.9746L65.1123 27.873ZM76.4746 9.88379L79.5469 9.2998L79.5977 17.6914L79.5215 20.2432L79.9531 20.332L84.2441 14.7969L86.4912 16.5361C86.1865 16.9932 85.8522 17.4206 85.4883 17.8184L84.4092 18.999C84.0368 19.3799 83.6729 19.7311 83.3174 20.0527L82.251 20.9795C82.361 21.0811 82.5345 21.2546 82.7715 21.5C84.9551 23.8529 86.4193 25.7064 87.1641 27.0605L84.6631 28.8379L80.2959 22.249L79.4199 22.668L79.2041 27.8984L76.5254 28.1016L76.4746 9.88379Z" fill="black"/>
</svg>
