<svg width="195" height="41" viewBox="0 0 195 41" fill="none" xmlns="http://www.w3.org/2000/svg">
<path d="M16.2322 1.60742L16.3113 1.67773V2.1084L16.241 2.16992C15.5965 2.1875 15.1951 2.21973 15.0369 2.2666C14.8846 2.31348 14.7762 2.39258 14.7117 2.50391C14.6473 2.60938 14.6092 2.82031 14.5975 3.13672C14.5916 3.45312 14.577 4.34668 14.5535 5.81738V9.86914C14.5535 10.4551 14.5623 11.1172 14.5799 11.8555C14.5975 12.5938 14.6326 13.0244 14.6854 13.1475C14.744 13.2646 14.8465 13.3525 14.993 13.4111C15.1395 13.4639 15.5555 13.499 16.241 13.5166L16.3113 13.5781V14.0088L16.2322 14.0791C15.2772 14.0264 14.4451 14 13.7361 14C13.2557 14 12.4383 14.0264 11.284 14.0791L11.2049 14.0088V13.5869L11.2752 13.5166C11.9197 13.499 12.3182 13.4668 12.4705 13.4199C12.6287 13.373 12.7401 13.2969 12.8045 13.1914C12.869 13.0801 12.907 12.8633 12.9188 12.541C12.9305 12.2188 12.9451 11.3281 12.9627 9.86914V3.41797L9.93048 9.76367C9.16876 11.3516 8.50372 12.8457 7.93536 14.2461H7.59259C7.26447 13.4902 6.99493 12.8867 6.784 12.4355L2.58282 3.70801V9.85156C2.58282 10.4258 2.58868 11.0879 2.6004 11.8379C2.61798 12.582 2.65607 13.0127 2.71466 13.1299C2.77325 13.2471 2.87579 13.335 3.02228 13.3936C3.16876 13.4521 3.58478 13.4873 4.27032 13.499L4.34064 13.5693V13.9912L4.26154 14.0703L3.69904 14.0439C3.11896 14.0146 2.62091 14 2.2049 14C2.0174 14 1.3172 14.0234 0.104309 14.0703L0.0339966 14V13.5781L0.104309 13.499C0.74884 13.4873 1.14728 13.458 1.29962 13.4111C1.45197 13.3643 1.56036 13.2852 1.62482 13.1738C1.69513 13.0625 1.73322 12.8545 1.73907 12.5498C1.75079 12.2451 1.76544 11.3457 1.78302 9.85156V5.82617C1.78302 5.29297 1.77423 4.64551 1.75665 3.88379C1.74493 3.11621 1.70978 2.67383 1.65118 2.55664C1.59845 2.43359 1.49884 2.34277 1.35236 2.28418C1.20587 2.22559 0.789856 2.19043 0.104309 2.17871L0.0339966 2.1084V1.68652L0.113098 1.60742C0.517395 1.63672 1.06232 1.65137 1.74786 1.65137C2.3924 1.65137 2.9549 1.63672 3.43536 1.60742C3.92755 2.74414 4.39923 3.77246 4.8504 4.69238L8.18146 11.5303L11.1873 5.26367C12.0018 3.57031 12.5496 2.35156 12.8309 1.60742C13.3934 1.63672 13.9471 1.65137 14.492 1.65137C14.9842 1.65137 15.5643 1.63672 16.2322 1.60742ZM24.5027 12.708L24.2215 13.3408C23.6121 13.7334 23.0672 13.9883 22.5867 14.1055C22.1121 14.2227 21.6873 14.2812 21.3123 14.2812C20.6092 14.2812 19.9412 14.1436 19.3084 13.8682C18.6815 13.5928 18.1688 13.127 17.7703 12.4707C17.3777 11.8145 17.1815 11.0234 17.1815 10.0977C17.1815 9.48242 17.2576 8.92871 17.41 8.43652C17.5623 7.93848 17.7205 7.56934 17.8846 7.3291C18.0545 7.08887 18.3387 6.82227 18.7371 6.5293C19.1356 6.23633 19.5574 6.00195 20.0027 5.82617C20.4481 5.65039 20.9285 5.5625 21.4442 5.5625C22.1473 5.5625 22.7654 5.72949 23.2986 6.06348C23.8377 6.3916 24.2156 6.81348 24.4324 7.3291C24.6492 7.84473 24.7576 8.39258 24.7576 8.97266C24.7576 9.1543 24.7488 9.33008 24.7313 9.5L24.6346 9.59668C24.2361 9.68457 23.7 9.74316 23.0262 9.77246C22.3524 9.80176 21.907 9.81641 21.6902 9.81641H18.869C18.8807 11.0293 19.1854 11.9229 19.783 12.4971C20.3807 13.0713 21.1131 13.3584 21.9803 13.3584C22.3904 13.3584 22.783 13.2881 23.158 13.1475C23.5389 13.0068 23.9402 12.8105 24.3621 12.5586L24.5027 12.708ZM18.869 9.11328C18.9744 9.13086 19.3787 9.15137 20.0818 9.1748C20.7908 9.19824 21.3152 9.20996 21.6551 9.20996C22.4695 9.20996 22.9647 9.19531 23.1404 9.16602C23.1463 9.02539 23.1492 8.91699 23.1492 8.84082C23.1492 7.93262 22.9647 7.25879 22.5955 6.81934C22.2264 6.37402 21.7225 6.15137 21.0838 6.15137C20.3865 6.15137 19.8416 6.40039 19.449 6.89844C19.0623 7.39648 18.869 8.13477 18.869 9.11328ZM28.3699 5.62402L28.5369 5.73828C28.5018 6.13086 28.4783 6.64648 28.4666 7.28516C28.9354 6.89844 29.3807 6.50586 29.8026 6.10742C29.9256 5.99609 30.0399 5.91406 30.1453 5.86133C30.2567 5.80859 30.4383 5.75293 30.6902 5.69434C30.9422 5.63574 31.2 5.60645 31.4637 5.60645C31.909 5.60645 32.3397 5.69727 32.7557 5.87891C33.1776 6.06055 33.494 6.27734 33.7049 6.5293C33.9217 6.77539 34.0711 7.06836 34.1531 7.4082C34.2352 7.74805 34.2762 8.16699 34.2762 8.66504V10.2119C34.2762 10.3115 34.2908 11.041 34.3201 12.4004C34.3318 12.957 34.3934 13.2881 34.5047 13.3936C34.616 13.499 34.9793 13.5518 35.5945 13.5518L35.6649 13.6221V14L35.5945 14.0703C34.8504 14.0234 34.3465 14 34.0828 14C33.9305 14 33.5027 14.0234 32.7996 14.0703L32.6942 13.9736C32.7703 13.2119 32.8084 12.2188 32.8084 10.9941V9.84277C32.8084 9.15137 32.7908 8.65332 32.7557 8.34863C32.7264 8.04395 32.6297 7.76855 32.4656 7.52246C32.3016 7.27051 32.0818 7.07715 31.8065 6.94238C31.5311 6.80176 31.2029 6.73145 30.8221 6.73145C30.5174 6.73145 30.2567 6.76367 30.0399 6.82812C29.8231 6.88672 29.5799 7.0127 29.3104 7.20605C29.0408 7.39355 28.8416 7.57227 28.7127 7.74219C28.5838 7.90625 28.5047 8.06152 28.4754 8.20801C28.452 8.34863 28.4402 8.65332 28.4402 9.12207V10.6514C28.4402 10.7803 28.452 11.1963 28.4754 11.8994C28.4988 12.5967 28.5223 13.0039 28.5457 13.1211C28.575 13.2383 28.616 13.3232 28.6688 13.376C28.7215 13.4287 28.7859 13.4639 28.8621 13.4814C28.9383 13.4932 29.2547 13.5166 29.8113 13.5518L29.8904 13.6221V13.9912L29.8201 14.0703C29.0877 14.0234 28.3817 14 27.702 14C27.0281 14 26.325 14.0234 25.5926 14.0703L25.5135 13.9912V13.6221L25.5926 13.5518C26.1609 13.5166 26.4803 13.4902 26.5506 13.4727C26.6268 13.4551 26.6912 13.4199 26.744 13.3672C26.8026 13.3086 26.8406 13.2236 26.8582 13.1123C26.8817 12.9951 26.9051 12.6172 26.9285 11.9785C26.9578 11.334 26.9725 10.8477 26.9725 10.5195V8.78809C26.9725 8.55371 26.9608 8.23438 26.9373 7.83008C26.9139 7.42578 26.8934 7.17676 26.8758 7.08301C26.8641 6.98926 26.8201 6.92188 26.744 6.88086C26.6678 6.83398 26.5154 6.81055 26.2869 6.81055L25.5486 6.80176L25.4695 6.73145V6.35352L25.5399 6.2832C26.659 6.14844 27.6024 5.92871 28.3699 5.62402ZM36.2361 18.7725C36.4354 18.2803 36.5848 17.8291 36.6844 17.4189H36.8953C37.1824 17.7295 37.493 17.8848 37.827 17.8848C38.243 17.8848 38.6033 17.6768 38.908 17.2607C39.2186 16.8506 39.6551 15.9395 40.2176 14.5273C39.9949 13.9004 39.7693 13.3086 39.5408 12.752L38.1434 9.28906C37.9969 8.93164 37.7801 8.42188 37.493 7.75977C37.2059 7.0918 37.033 6.72559 36.9744 6.66113C36.9217 6.59082 36.8514 6.52637 36.7635 6.46777C36.6756 6.40918 36.4383 6.35352 36.0516 6.30078L35.9813 6.23047V5.87891L36.0604 5.80859C36.7342 5.84961 37.4256 5.87012 38.1346 5.87012C38.9666 5.87012 39.6082 5.84961 40.0594 5.80859L40.1297 5.87891V6.23047L40.0682 6.30078C40.0037 6.30664 39.8221 6.32129 39.5233 6.34473C39.2303 6.3623 39.0457 6.40918 38.9695 6.48535C38.8992 6.55566 38.8641 6.6377 38.8641 6.73145C38.8641 6.83105 38.9549 7.15625 39.1365 7.70703C39.3182 8.25195 39.494 8.73535 39.6639 9.15723L40.2176 10.5283C40.5809 11.4307 40.8621 12.0957 41.0613 12.5234L41.5272 11.4951C41.6912 11.1201 41.9256 10.5518 42.2303 9.79004L42.9598 7.92676C43.1473 7.44629 43.2527 7.14746 43.2762 7.03027C43.3055 6.91309 43.3201 6.82812 43.3201 6.77539C43.3201 6.64648 43.2733 6.55859 43.1795 6.51172C43.0858 6.46484 42.8777 6.42383 42.5555 6.38867L42.1863 6.33594L42.1248 6.26562V5.87891L42.1951 5.80859C42.6873 5.84961 43.2703 5.87012 43.9442 5.87012C44.5594 5.87012 45.0516 5.84961 45.4207 5.80859L45.491 5.87891V6.26562L45.4207 6.33594C45.2039 6.3418 45.0311 6.37109 44.9022 6.42383C44.7733 6.47656 44.6502 6.57031 44.533 6.70508C44.4158 6.83984 44.2049 7.2207 43.9002 7.84766C43.5955 8.46875 43.2908 9.11328 42.9861 9.78125L42.1248 11.6709L40.0945 16.417C39.9188 16.8271 39.699 17.2666 39.4354 17.7354C39.1776 18.2041 38.8582 18.541 38.4774 18.7461C38.1024 18.957 37.7039 19.0625 37.282 19.0625C36.9129 19.0625 36.5643 18.9658 36.2361 18.7725ZM53.3133 12.708L53.032 13.3408C52.4227 13.7334 51.8777 13.9883 51.3973 14.1055C50.9227 14.2227 50.4979 14.2812 50.1229 14.2812C49.4197 14.2812 48.7518 14.1436 48.119 13.8682C47.492 13.5928 46.9793 13.127 46.5809 12.4707C46.1883 11.8145 45.992 11.0234 45.992 10.0977C45.992 9.48242 46.0682 8.92871 46.2205 8.43652C46.3729 7.93848 46.5311 7.56934 46.6951 7.3291C46.8651 7.08887 47.1492 6.82227 47.5477 6.5293C47.9461 6.23633 48.368 6.00195 48.8133 5.82617C49.2586 5.65039 49.7391 5.5625 50.2547 5.5625C50.9578 5.5625 51.576 5.72949 52.1092 6.06348C52.6483 6.3916 53.0262 6.81348 53.243 7.3291C53.4598 7.84473 53.5682 8.39258 53.5682 8.97266C53.5682 9.1543 53.5594 9.33008 53.5418 9.5L53.4451 9.59668C53.0467 9.68457 52.5106 9.74316 51.8367 9.77246C51.1629 9.80176 50.7176 9.81641 50.5008 9.81641H47.6795C47.6912 11.0293 47.9959 11.9229 48.5936 12.4971C49.1912 13.0713 49.9236 13.3584 50.7908 13.3584C51.201 13.3584 51.5936 13.2881 51.9686 13.1475C52.3494 13.0068 52.7508 12.8105 53.1727 12.5586L53.3133 12.708ZM47.6795 9.11328C47.785 9.13086 48.1893 9.15137 48.8924 9.1748C49.6014 9.19824 50.1258 9.20996 50.4656 9.20996C51.2801 9.20996 51.7752 9.19531 51.951 9.16602C51.9568 9.02539 51.9598 8.91699 51.9598 8.84082C51.9598 7.93262 51.7752 7.25879 51.4061 6.81934C51.0369 6.37402 50.533 6.15137 49.8943 6.15137C49.1971 6.15137 48.6522 6.40039 48.2596 6.89844C47.8729 7.39648 47.6795 8.13477 47.6795 9.11328ZM60.0897 2.08203V1.71289L60.16 1.63379C61.2791 1.50488 62.2225 1.28809 62.9901 0.983398L63.157 1.08887C63.0926 1.7627 63.0604 3.11328 63.0604 5.14062V10.8975C63.0604 11.4893 63.0692 12.0078 63.0867 12.4531C63.1102 12.8926 63.1483 13.1533 63.201 13.2354C63.2537 13.3174 63.3387 13.3848 63.4559 13.4375C63.5789 13.4902 63.9217 13.54 64.4842 13.5869L64.5633 13.6572V13.9912L64.4842 14.0703C63.8514 14.0293 63.3592 14.0088 63.0076 14.0088C62.6912 14.0088 62.2401 14.0293 61.6541 14.0703L61.5574 13.9736C61.575 13.3994 61.5838 12.998 61.5838 12.7695C61.5838 12.7402 61.5867 12.6289 61.5926 12.4355C61.2703 12.6699 60.9481 12.9307 60.6258 13.2178C60.1512 13.6396 59.8406 13.9033 59.6942 14.0088C59.4246 14.1436 59.0408 14.2109 58.5428 14.2109C57.7342 14.2109 57.0457 14.0117 56.4774 13.6133C55.9149 13.2148 55.5135 12.708 55.2733 12.0928C55.033 11.4717 54.9129 10.8359 54.9129 10.1855C54.9129 9.52344 55.0359 8.8877 55.282 8.27832C55.534 7.66309 55.8885 7.21484 56.3455 6.93359C56.8084 6.65234 57.3094 6.3623 57.8484 6.06348C58.3934 5.75879 58.9324 5.60645 59.4656 5.60645C60.2098 5.60645 60.9188 5.79102 61.5926 6.16016L61.5574 4.2002C61.5457 3.52051 61.5281 3.04883 61.5047 2.78516C61.4813 2.51562 61.452 2.35742 61.4168 2.31055C61.3817 2.25781 61.3201 2.21973 61.2322 2.19629C61.1502 2.17285 60.7957 2.16113 60.1688 2.16113L60.0897 2.08203ZM61.5926 7.66309C61.2293 7.25293 60.825 6.93945 60.3797 6.72266C59.9402 6.50586 59.4979 6.39746 59.0526 6.39746C58.5604 6.39746 58.1004 6.53223 57.6727 6.80176C57.2508 7.06543 56.9461 7.46094 56.7586 7.98828C56.5711 8.50977 56.4774 9.07812 56.4774 9.69336C56.4774 10.7188 56.7352 11.542 57.2508 12.1631C57.7723 12.7842 58.4256 13.0947 59.2108 13.0947C59.6385 13.0947 60.0164 12.998 60.3445 12.8047C60.6785 12.6055 60.951 12.3389 61.1619 12.0049C61.3787 11.6709 61.5047 11.3369 61.5399 11.0029C61.575 10.6689 61.5926 10.0566 61.5926 9.16602V7.66309ZM67.7098 1.69531C67.9852 1.69531 68.2195 1.79199 68.4129 1.98535C68.6063 2.17871 68.7029 2.41309 68.7029 2.68848C68.7029 2.95801 68.6063 3.18945 68.4129 3.38281C68.2195 3.57617 67.9852 3.67285 67.7098 3.67285C67.4402 3.67285 67.2059 3.5791 67.0067 3.3916C66.8133 3.19824 66.7166 2.96387 66.7166 2.68848C66.7166 2.41309 66.8133 2.17871 67.0067 1.98535C67.2059 1.79199 67.4402 1.69531 67.7098 1.69531ZM68.4568 5.62402L68.6238 5.73828C68.5594 6.50586 68.5272 7.48145 68.5272 8.66504V10.6514C68.5272 10.7803 68.5389 11.1963 68.5623 11.8994C68.5858 12.5967 68.6092 13.0039 68.6326 13.1211C68.6619 13.2383 68.7029 13.3232 68.7557 13.376C68.8084 13.4287 68.8729 13.4639 68.949 13.4814C69.0252 13.4932 69.3416 13.5166 69.8983 13.5518L69.9774 13.6221V13.9912L69.907 14.0703C69.1746 14.0234 68.4686 14 67.7889 14C67.1151 14 66.4119 14.0234 65.6795 14.0703L65.6004 13.9912V13.6221L65.6795 13.5518C66.2479 13.5166 66.5672 13.4902 66.6375 13.4727C66.7137 13.4551 66.7781 13.4199 66.8309 13.3672C66.8895 13.3086 66.9276 13.2236 66.9451 13.1123C66.9686 12.9951 66.992 12.6172 67.0154 11.9785C67.0447 11.334 67.0594 10.8477 67.0594 10.5195V8.78809C67.0594 8.55371 67.0477 8.23438 67.0242 7.83008C67.0008 7.42578 66.9803 7.17676 66.9627 7.08301C66.951 6.98926 66.907 6.92188 66.8309 6.88086C66.7547 6.83398 66.6024 6.81055 66.3738 6.81055L65.6356 6.80176L65.5565 6.73145V6.35352L65.6268 6.2832C66.7459 6.14844 67.6893 5.92871 68.4568 5.62402ZM72.2801 8.04102L71.9373 7.95312L71.867 7.86523V6.77539C72.91 6.00195 73.9236 5.61523 74.908 5.61523C75.5818 5.61523 76.1414 5.74121 76.5867 5.99316C77.032 6.24512 77.3543 6.56152 77.5535 6.94238C77.7527 7.31738 77.8524 7.75684 77.8524 8.26074L77.8084 10.0273V12.6465C77.8084 13.0039 77.8318 13.2207 77.8787 13.2969C77.9315 13.373 77.9901 13.4258 78.0545 13.4551C78.119 13.4785 78.2391 13.499 78.4149 13.5166L78.9158 13.5605L78.9861 13.6396V13.9912L78.9158 14.0615C78.4881 14.0264 78.0897 14.0088 77.7205 14.0088C77.369 14.0088 76.9471 14.0264 76.4549 14.0615L76.3231 13.9385L76.3582 12.5234L74.4422 14.0176C74.1199 14.1523 73.7684 14.2197 73.3875 14.2197C72.9188 14.2197 72.5145 14.1348 72.1746 13.9648C71.8406 13.7949 71.5828 13.5576 71.4012 13.2529C71.2254 12.9482 71.1375 12.5791 71.1375 12.1455C71.1375 11.2842 71.407 10.6133 71.9461 10.1328C72.4852 9.64648 73.9559 9.2334 76.3582 8.89355C76.3582 8.02637 76.1649 7.41699 75.7781 7.06543C75.3914 6.70801 74.8729 6.5293 74.2225 6.5293C73.8826 6.5293 73.5721 6.5791 73.2908 6.67871C73.0154 6.77832 72.8572 6.86035 72.8162 6.9248C72.7752 6.9834 72.617 7.34082 72.3416 7.99707L72.2801 8.04102ZM76.3582 9.42969C74.7176 9.70508 73.6951 10.001 73.2908 10.3174C72.8865 10.6338 72.6844 11.123 72.6844 11.7852C72.6844 12.6992 73.1385 13.1562 74.0467 13.1562C74.826 13.1562 75.5965 12.7051 76.3582 11.8027V9.42969ZM82.616 0.983398L82.783 1.08887C82.7186 1.7627 82.6863 3.11328 82.6863 5.14062V9.2627C82.8856 9.14551 83.2781 8.85254 83.8641 8.38379C84.45 7.90918 85.0682 7.37012 85.7186 6.7666C86.3748 6.15723 86.7117 5.82617 86.7293 5.77344C87.2274 5.79102 87.5262 5.7998 87.6258 5.7998C87.7606 5.7998 88.033 5.79102 88.4432 5.77344L88.5223 5.85254V6.19531L88.452 6.27441C88.159 6.29199 87.9334 6.33008 87.7752 6.38867C87.6229 6.44727 87.3065 6.64062 86.826 6.96875C86.3514 7.29688 85.7889 7.72754 85.1385 8.26074L84.2859 8.95508C84.5965 9.31836 85.1385 9.88965 85.9119 10.6689C86.6912 11.4424 87.3211 12.043 87.8016 12.4707C88.282 12.8984 88.5955 13.1445 88.742 13.209C88.8885 13.2676 89.0438 13.2969 89.2078 13.2969V13.6748C88.991 13.7158 88.4315 13.8945 87.5291 14.2109C86.9197 13.6836 86.533 13.335 86.369 13.165L85.7186 12.4971L84.9451 11.7148C84.7049 11.4746 84.3826 11.1699 83.9783 10.8008L82.6863 9.60547V10.6514C82.6863 10.7803 82.6981 11.1963 82.7215 11.8994C82.7449 12.5967 82.7684 13.0039 82.7918 13.1211C82.8211 13.2383 82.8621 13.3232 82.9149 13.376C82.9676 13.4287 83.032 13.4639 83.1082 13.4814C83.1844 13.4932 83.5008 13.5166 84.0574 13.5518L84.1365 13.6221V13.9912L84.0662 14.0703C83.3338 14.0234 82.6277 14 81.9481 14C81.2742 14 80.5711 14.0234 79.8387 14.0703L79.7596 13.9912V13.6221L79.8387 13.5518C80.407 13.5166 80.7264 13.4902 80.7967 13.4727C80.8729 13.4551 80.9373 13.4199 80.9901 13.3672C81.0486 13.3086 81.0867 13.2236 81.1043 13.1123C81.1277 12.9951 81.1512 12.6172 81.1746 11.9785C81.2039 11.334 81.2186 10.8477 81.2186 10.5195V5.9668L81.1834 4.10352C81.1658 3.45312 81.1453 3.00195 81.1219 2.75C81.1043 2.49805 81.0779 2.34863 81.0428 2.30176C81.0076 2.25488 80.9461 2.21973 80.8582 2.19629C80.7703 2.17285 80.4158 2.16113 79.7947 2.16113L79.7156 2.08203V1.71289L79.7859 1.63379C80.9051 1.50488 81.8484 1.28809 82.616 0.983398ZM91.2996 8.04102L90.9568 7.95312L90.8865 7.86523V6.77539C91.9295 6.00195 92.9432 5.61523 93.9276 5.61523C94.6014 5.61523 95.1609 5.74121 95.6063 5.99316C96.0516 6.24512 96.3738 6.56152 96.5731 6.94238C96.7723 7.31738 96.8719 7.75684 96.8719 8.26074L96.8279 10.0273V12.6465C96.8279 13.0039 96.8514 13.2207 96.8983 13.2969C96.951 13.373 97.0096 13.4258 97.074 13.4551C97.1385 13.4785 97.2586 13.499 97.4344 13.5166L97.9354 13.5605L98.0057 13.6396V13.9912L97.9354 14.0615C97.5076 14.0264 97.1092 14.0088 96.7401 14.0088C96.3885 14.0088 95.9666 14.0264 95.4744 14.0615L95.3426 13.9385L95.3777 12.5234L93.4617 14.0176C93.1395 14.1523 92.7879 14.2197 92.407 14.2197C91.9383 14.2197 91.534 14.1348 91.1942 13.9648C90.8602 13.7949 90.6024 13.5576 90.4207 13.2529C90.2449 12.9482 90.157 12.5791 90.157 12.1455C90.157 11.2842 90.4266 10.6133 90.9656 10.1328C91.5047 9.64648 92.9754 9.2334 95.3777 8.89355C95.3777 8.02637 95.1844 7.41699 94.7977 7.06543C94.4109 6.70801 93.8924 6.5293 93.242 6.5293C92.9022 6.5293 92.5916 6.5791 92.3104 6.67871C92.035 6.77832 91.8768 6.86035 91.8358 6.9248C91.7947 6.9834 91.6365 7.34082 91.3611 7.99707L91.2996 8.04102ZM95.3777 9.42969C93.7371 9.70508 92.7147 10.001 92.3104 10.3174C91.9061 10.6338 91.7039 11.123 91.7039 11.7852C91.7039 12.6992 92.158 13.1562 93.0662 13.1562C93.8455 13.1562 94.616 12.7051 95.3777 11.8027V9.42969ZM101.442 5.62402L101.609 5.73828C101.574 6.13086 101.551 6.64648 101.539 7.28516C102.008 6.89844 102.453 6.50586 102.875 6.10742C102.998 5.99609 103.112 5.91406 103.218 5.86133C103.329 5.80859 103.511 5.75293 103.763 5.69434C104.014 5.63574 104.272 5.60645 104.536 5.60645C104.981 5.60645 105.412 5.69727 105.828 5.87891C106.25 6.06055 106.566 6.27734 106.777 6.5293C106.994 6.77539 107.143 7.06836 107.225 7.4082C107.307 7.74805 107.348 8.16699 107.348 8.66504V10.2119C107.348 10.3115 107.363 11.041 107.392 12.4004C107.404 12.957 107.466 13.2881 107.577 13.3936C107.688 13.499 108.052 13.5518 108.667 13.5518L108.737 13.6221V14L108.667 14.0703C107.923 14.0234 107.419 14 107.155 14C107.003 14 106.575 14.0234 105.872 14.0703L105.766 13.9736C105.843 13.2119 105.881 12.2188 105.881 10.9941V9.84277C105.881 9.15137 105.863 8.65332 105.828 8.34863C105.799 8.04395 105.702 7.76855 105.538 7.52246C105.374 7.27051 105.154 7.07715 104.879 6.94238C104.603 6.80176 104.275 6.73145 103.894 6.73145C103.59 6.73145 103.329 6.76367 103.112 6.82812C102.895 6.88672 102.652 7.0127 102.383 7.20605C102.113 7.39355 101.914 7.57227 101.785 7.74219C101.656 7.90625 101.577 8.06152 101.548 8.20801C101.524 8.34863 101.513 8.65332 101.513 9.12207V10.6514C101.513 10.7803 101.524 11.1963 101.548 11.8994C101.571 12.5967 101.595 13.0039 101.618 13.1211C101.647 13.2383 101.688 13.3232 101.741 13.376C101.794 13.4287 101.858 13.4639 101.934 13.4814C102.011 13.4932 102.327 13.5166 102.884 13.5518L102.963 13.6221V13.9912L102.892 14.0703C102.16 14.0234 101.454 14 100.774 14C100.1 14 99.3973 14.0234 98.6649 14.0703L98.5858 13.9912V13.6221L98.6649 13.5518C99.2332 13.5166 99.5526 13.4902 99.6229 13.4727C99.699 13.4551 99.7635 13.4199 99.8162 13.3672C99.8748 13.3086 99.9129 13.2236 99.9305 13.1123C99.9539 12.9951 99.9774 12.6172 100.001 11.9785C100.03 11.334 100.045 10.8477 100.045 10.5195V8.78809C100.045 8.55371 100.033 8.23438 100.01 7.83008C99.9861 7.42578 99.9656 7.17676 99.9481 7.08301C99.9363 6.98926 99.8924 6.92188 99.8162 6.88086C99.7401 6.83398 99.5877 6.81055 99.3592 6.81055L98.6209 6.80176L98.5418 6.73145V6.35352L98.6121 6.2832C99.7313 6.14844 100.675 5.92871 101.442 5.62402ZM113.299 2.16113L113.22 2.08203V1.71289L113.29 1.63379C114.409 1.50488 115.352 1.28809 116.12 0.983398L116.287 1.08887C116.222 1.7627 116.19 3.11328 116.19 5.14062V7.38184C116.302 7.23535 116.51 7.0127 116.814 6.71387C117.119 6.40918 117.365 6.19531 117.553 6.07227C117.746 5.94922 118.007 5.84082 118.335 5.74707C118.669 5.65332 119.017 5.60645 119.381 5.60645C120.043 5.60645 120.623 5.77051 121.121 6.09863C121.625 6.42676 121.997 6.86621 122.237 7.41699C122.483 7.96191 122.606 8.54492 122.606 9.16602C122.606 9.75781 122.504 10.3203 122.299 10.8535C122.099 11.3867 121.862 11.8262 121.587 12.1719C121.423 12.3711 121.133 12.623 120.717 12.9277C119.902 13.5195 119.328 13.8887 118.994 14.0352C118.666 14.1875 118.238 14.2637 117.711 14.2637C117.301 14.2637 116.929 14.2051 116.595 14.0879C116.261 13.9766 115.915 13.7979 115.557 13.5518L114.846 14.2197L114.555 14.1055C114.667 13.0391 114.722 11.8262 114.722 10.4668V5.80859L114.687 4.12109C114.67 3.47656 114.649 3.02539 114.626 2.76758C114.608 2.50391 114.582 2.34863 114.547 2.30176C114.512 2.25488 114.45 2.21973 114.362 2.19629C114.28 2.17285 113.926 2.16113 113.299 2.16113ZM116.19 8.43652V11.7324C116.19 12.0078 116.202 12.1895 116.225 12.2773C116.255 12.3594 116.372 12.4883 116.577 12.6641C116.788 12.834 117.057 12.9834 117.386 13.1123C117.714 13.2354 118.054 13.2969 118.405 13.2969C119.237 13.2969 119.888 12.9746 120.356 12.3301C120.831 11.6855 121.068 10.8682 121.068 9.87793C121.068 9.25684 120.969 8.70898 120.769 8.23438C120.576 7.75391 120.283 7.3877 119.89 7.13574C119.498 6.88379 119.055 6.75781 118.563 6.75781C117.983 6.75781 117.471 6.93066 117.025 7.27637C116.586 7.61621 116.307 8.00293 116.19 8.43652ZM131.149 12.708L130.868 13.3408C130.259 13.7334 129.714 13.9883 129.233 14.1055C128.759 14.2227 128.334 14.2812 127.959 14.2812C127.256 14.2812 126.588 14.1436 125.955 13.8682C125.328 13.5928 124.815 13.127 124.417 12.4707C124.024 11.8145 123.828 11.0234 123.828 10.0977C123.828 9.48242 123.904 8.92871 124.056 8.43652C124.209 7.93848 124.367 7.56934 124.531 7.3291C124.701 7.08887 124.985 6.82227 125.384 6.5293C125.782 6.23633 126.204 6.00195 126.649 5.82617C127.095 5.65039 127.575 5.5625 128.091 5.5625C128.794 5.5625 129.412 5.72949 129.945 6.06348C130.484 6.3916 130.862 6.81348 131.079 7.3291C131.296 7.84473 131.404 8.39258 131.404 8.97266C131.404 9.1543 131.395 9.33008 131.378 9.5L131.281 9.59668C130.883 9.68457 130.346 9.74316 129.673 9.77246C128.999 9.80176 128.554 9.81641 128.337 9.81641H125.515C125.527 11.0293 125.832 11.9229 126.43 12.4971C127.027 13.0713 127.76 13.3584 128.627 13.3584C129.037 13.3584 129.43 13.2881 129.805 13.1475C130.185 13.0068 130.587 12.8105 131.009 12.5586L131.149 12.708ZM125.515 9.11328C125.621 9.13086 126.025 9.15137 126.728 9.1748C127.437 9.19824 127.962 9.20996 128.302 9.20996C129.116 9.20996 129.611 9.19531 129.787 9.16602C129.793 9.02539 129.796 8.91699 129.796 8.84082C129.796 7.93262 129.611 7.25879 129.242 6.81934C128.873 6.37402 128.369 6.15137 127.73 6.15137C127.033 6.15137 126.488 6.40039 126.096 6.89844C125.709 7.39648 125.515 8.13477 125.515 9.11328ZM135.386 5.62402L135.553 5.73828C135.517 6.07812 135.491 6.68164 135.473 7.54883L136.133 6.71387C136.349 6.43848 136.54 6.22754 136.704 6.08105C136.874 5.92871 137.07 5.81152 137.293 5.72949C137.515 5.64746 137.744 5.60645 137.978 5.60645C138.236 5.60645 138.479 5.65918 138.708 5.76465L138.769 5.8877C138.676 6.66699 138.623 7.35254 138.611 7.94434H138.216C137.981 7.40527 137.603 7.13574 137.082 7.13574C136.719 7.13574 136.402 7.25293 136.133 7.4873C135.863 7.71582 135.681 8.00586 135.588 8.35742C135.5 8.70312 135.456 9.14258 135.456 9.67578V10.6514C135.456 10.8271 135.468 11.2578 135.491 11.9434C135.514 12.6289 135.538 13.0244 135.561 13.1299C135.591 13.2354 135.632 13.3145 135.684 13.3672C135.743 13.4141 135.816 13.4463 135.904 13.4639C135.998 13.4814 136.417 13.5107 137.161 13.5518L137.24 13.6221V13.9912L137.161 14.0703C136.382 14.0234 135.567 14 134.718 14C134.044 14 133.341 14.0234 132.608 14.0703L132.529 13.9912V13.6221L132.608 13.5518C133.177 13.5166 133.496 13.4902 133.566 13.4727C133.642 13.4551 133.707 13.4199 133.76 13.3672C133.818 13.3086 133.856 13.2236 133.874 13.1123C133.897 12.9951 133.921 12.6172 133.944 11.9785C133.973 11.334 133.988 10.8477 133.988 10.5195V8.78809C133.988 8.55371 133.976 8.23438 133.953 7.83008C133.93 7.42578 133.909 7.17676 133.891 7.08301C133.88 6.98926 133.836 6.92188 133.76 6.88086C133.683 6.83398 133.531 6.81055 133.303 6.81055L132.564 6.80176L132.485 6.73145V6.35352L132.555 6.2832C133.675 6.14844 134.618 5.92871 135.386 5.62402ZM139.015 2.16113L138.936 2.08203V1.71289L139.007 1.63379C140.126 1.50488 141.069 1.28809 141.837 0.983398L142.004 1.08887C141.939 1.7627 141.907 3.11328 141.907 5.14062V7.38184C142.018 7.23535 142.226 7.0127 142.531 6.71387C142.836 6.40918 143.082 6.19531 143.269 6.07227C143.463 5.94922 143.723 5.84082 144.052 5.74707C144.386 5.65332 144.734 5.60645 145.097 5.60645C145.76 5.60645 146.34 5.77051 146.838 6.09863C147.342 6.42676 147.714 6.86621 147.954 7.41699C148.2 7.96191 148.323 8.54492 148.323 9.16602C148.323 9.75781 148.221 10.3203 148.015 10.8535C147.816 11.3867 147.579 11.8262 147.304 12.1719C147.139 12.3711 146.849 12.623 146.433 12.9277C145.619 13.5195 145.045 13.8887 144.711 14.0352C144.383 14.1875 143.955 14.2637 143.428 14.2637C143.017 14.2637 142.645 14.2051 142.311 14.0879C141.977 13.9766 141.632 13.7979 141.274 13.5518L140.562 14.2197L140.272 14.1055C140.384 13.0391 140.439 11.8262 140.439 10.4668V5.80859L140.404 4.12109C140.387 3.47656 140.366 3.02539 140.343 2.76758C140.325 2.50391 140.299 2.34863 140.263 2.30176C140.228 2.25488 140.167 2.21973 140.079 2.19629C139.997 2.17285 139.642 2.16113 139.015 2.16113ZM141.907 8.43652V11.7324C141.907 12.0078 141.919 12.1895 141.942 12.2773C141.971 12.3594 142.089 12.4883 142.294 12.6641C142.505 12.834 142.774 12.9834 143.102 13.1123C143.43 13.2354 143.77 13.2969 144.122 13.2969C144.954 13.2969 145.604 12.9746 146.073 12.3301C146.548 11.6855 146.785 10.8682 146.785 9.87793C146.785 9.25684 146.685 8.70898 146.486 8.23438C146.293 7.75391 146 7.3877 145.607 7.13574C145.215 6.88379 144.772 6.75781 144.28 6.75781C143.7 6.75781 143.187 6.93066 142.742 7.27637C142.303 7.61621 142.024 8.00293 141.907 8.43652ZM150.96 8.04102L150.617 7.95312L150.547 7.86523V6.77539C151.59 6.00195 152.603 5.61523 153.588 5.61523C154.262 5.61523 154.821 5.74121 155.266 5.99316C155.712 6.24512 156.034 6.56152 156.233 6.94238C156.432 7.31738 156.532 7.75684 156.532 8.26074L156.488 10.0273V12.6465C156.488 13.0039 156.512 13.2207 156.558 13.2969C156.611 13.373 156.67 13.4258 156.734 13.4551C156.799 13.4785 156.919 13.499 157.095 13.5166L157.596 13.5605L157.666 13.6396V13.9912L157.596 14.0615C157.168 14.0264 156.769 14.0088 156.4 14.0088C156.049 14.0088 155.627 14.0264 155.135 14.0615L155.003 13.9385L155.038 12.5234L153.122 14.0176C152.8 14.1523 152.448 14.2197 152.067 14.2197C151.598 14.2197 151.194 14.1348 150.854 13.9648C150.52 13.7949 150.263 13.5576 150.081 13.2529C149.905 12.9482 149.817 12.5791 149.817 12.1455C149.817 11.2842 150.087 10.6133 150.626 10.1328C151.165 9.64648 152.636 9.2334 155.038 8.89355C155.038 8.02637 154.845 7.41699 154.458 7.06543C154.071 6.70801 153.553 6.5293 152.902 6.5293C152.562 6.5293 152.252 6.5791 151.971 6.67871C151.695 6.77832 151.537 6.86035 151.496 6.9248C151.455 6.9834 151.297 7.34082 151.021 7.99707L150.96 8.04102ZM155.038 9.42969C153.397 9.70508 152.375 10.001 151.971 10.3174C151.566 10.6338 151.364 11.123 151.364 11.7852C151.364 12.6992 151.818 13.1562 152.726 13.1562C153.506 13.1562 154.276 12.7051 155.038 11.8027V9.42969ZM167.791 6.23047L167.861 6.38867C167.621 6.75781 167.471 6.99805 167.413 7.10938H165.778C165.942 7.43164 166.024 7.76855 166.024 8.12012C166.024 8.53613 165.928 8.94043 165.734 9.33301C165.547 9.72559 165.283 10.0596 164.943 10.335C164.603 10.6104 164.217 10.8301 163.783 10.9941C163.355 11.1582 162.866 11.2402 162.315 11.2402H161.911C161.565 11.5156 161.343 11.7207 161.243 11.8555C161.143 11.9902 161.094 12.1279 161.094 12.2686C161.094 12.5264 161.211 12.708 161.445 12.8135C161.685 12.9189 162.178 12.9717 162.922 12.9717L164.89 12.9453C165.512 12.9453 165.986 13.0186 166.314 13.165C166.648 13.3115 166.918 13.5752 167.123 13.9561C167.328 14.3311 167.43 14.7295 167.43 15.1514C167.43 15.7959 167.22 16.4375 166.798 17.0762C166.382 17.7207 165.778 18.21 164.987 18.5439C164.196 18.8779 163.352 19.0449 162.456 19.0449C161.946 19.0449 161.466 18.9893 161.014 18.8779C160.569 18.7666 160.177 18.5967 159.837 18.3682C159.503 18.1455 159.233 17.8525 159.028 17.4893C158.823 17.126 158.721 16.748 158.721 16.3555C158.721 16.1387 158.753 15.9102 158.817 15.6699C158.882 15.4355 159.005 15.1807 159.186 14.9053L160.777 14.0176C160.267 13.8594 159.945 13.7041 159.81 13.5518C159.681 13.3936 159.617 13.2061 159.617 12.9893C159.617 12.7666 159.69 12.5029 159.837 12.1982L161.252 11.1787C160.42 10.9619 159.857 10.6367 159.564 10.2031C159.277 9.76953 159.134 9.29492 159.134 8.7793C159.134 8.30469 159.236 7.85352 159.441 7.42578C159.646 6.99219 159.954 6.64648 160.364 6.38867C160.78 6.13086 161.243 5.92871 161.753 5.78223C162.268 5.62988 162.737 5.55371 163.159 5.55371C163.891 5.55371 164.589 5.79102 165.251 6.26562C166.311 6.26562 167.158 6.25391 167.791 6.23047ZM160.645 8.26953C160.645 8.62695 160.716 9.01074 160.856 9.4209C160.997 9.83105 161.222 10.1416 161.533 10.3525C161.849 10.5635 162.204 10.6689 162.596 10.6689C163.118 10.6689 163.566 10.499 163.941 10.1592C164.322 9.81934 164.513 9.28906 164.513 8.56836C164.513 7.95898 164.34 7.41113 163.994 6.9248C163.648 6.43848 163.159 6.19531 162.526 6.19531C161.993 6.19531 161.545 6.37109 161.181 6.72266C160.824 7.06836 160.645 7.58398 160.645 8.26953ZM163.221 14.167C162.277 14.167 161.732 14.1787 161.586 14.2021C161.445 14.2256 161.243 14.3252 160.979 14.501C160.716 14.6768 160.499 14.9141 160.329 15.2129C160.165 15.5176 160.083 15.8574 160.083 16.2324C160.083 16.8945 160.329 17.4336 160.821 17.8496C161.313 18.2656 161.97 18.4736 162.79 18.4736C163.405 18.4736 163.973 18.3447 164.495 18.0869C165.016 17.8291 165.4 17.4834 165.646 17.0498C165.898 16.6162 166.024 16.2002 166.024 15.8018C166.024 15.4033 165.919 15.0605 165.708 14.7734C165.503 14.4922 165.233 14.3193 164.899 14.2549C164.571 14.1963 164.012 14.167 163.221 14.167ZM169.979 8.04102L169.637 7.95312L169.566 7.86523V6.77539C170.609 6.00195 171.623 5.61523 172.607 5.61523C173.281 5.61523 173.841 5.74121 174.286 5.99316C174.731 6.24512 175.054 6.56152 175.253 6.94238C175.452 7.31738 175.552 7.75684 175.552 8.26074L175.508 10.0273V12.6465C175.508 13.0039 175.531 13.2207 175.578 13.2969C175.631 13.373 175.689 13.4258 175.754 13.4551C175.818 13.4785 175.938 13.499 176.114 13.5166L176.615 13.5605L176.685 13.6396V13.9912L176.615 14.0615C176.187 14.0264 175.789 14.0088 175.42 14.0088C175.068 14.0088 174.646 14.0264 174.154 14.0615L174.022 13.9385L174.057 12.5234L172.141 14.0176C171.819 14.1523 171.468 14.2197 171.087 14.2197C170.618 14.2197 170.214 14.1348 169.874 13.9648C169.54 13.7949 169.282 13.5576 169.1 13.2529C168.925 12.9482 168.837 12.5791 168.837 12.1455C168.837 11.2842 169.106 10.6133 169.645 10.1328C170.184 9.64648 171.655 9.2334 174.057 8.89355C174.057 8.02637 173.864 7.41699 173.477 7.06543C173.091 6.70801 172.572 6.5293 171.922 6.5293C171.582 6.5293 171.271 6.5791 170.99 6.67871C170.715 6.77832 170.556 6.86035 170.515 6.9248C170.474 6.9834 170.316 7.34082 170.041 7.99707L169.979 8.04102ZM174.057 9.42969C172.417 9.70508 171.394 10.001 170.99 10.3174C170.586 10.6338 170.384 11.123 170.384 11.7852C170.384 12.6992 170.838 13.1562 171.746 13.1562C172.525 13.1562 173.296 12.7051 174.057 11.8027V9.42969ZM179.647 1.69531C179.923 1.69531 180.157 1.79199 180.35 1.98535C180.544 2.17871 180.64 2.41309 180.64 2.68848C180.64 2.95801 180.544 3.18945 180.35 3.38281C180.157 3.57617 179.923 3.67285 179.647 3.67285C179.378 3.67285 179.143 3.5791 178.944 3.3916C178.751 3.19824 178.654 2.96387 178.654 2.68848C178.654 2.41309 178.751 2.17871 178.944 1.98535C179.143 1.79199 179.378 1.69531 179.647 1.69531ZM180.394 5.62402L180.561 5.73828C180.497 6.50586 180.465 7.48145 180.465 8.66504V10.6514C180.465 10.7803 180.476 11.1963 180.5 11.8994C180.523 12.5967 180.547 13.0039 180.57 13.1211C180.599 13.2383 180.64 13.3232 180.693 13.376C180.746 13.4287 180.81 13.4639 180.887 13.4814C180.963 13.4932 181.279 13.5166 181.836 13.5518L181.915 13.6221V13.9912L181.845 14.0703C181.112 14.0234 180.406 14 179.726 14C179.053 14 178.349 14.0234 177.617 14.0703L177.538 13.9912V13.6221L177.617 13.5518C178.185 13.5166 178.505 13.4902 178.575 13.4727C178.651 13.4551 178.716 13.4199 178.768 13.3672C178.827 13.3086 178.865 13.2236 178.883 13.1123C178.906 12.9951 178.93 12.6172 178.953 11.9785C178.982 11.334 178.997 10.8477 178.997 10.5195V8.78809C178.997 8.55371 178.985 8.23438 178.962 7.83008C178.938 7.42578 178.918 7.17676 178.9 7.08301C178.888 6.98926 178.845 6.92188 178.768 6.88086C178.692 6.83398 178.54 6.81055 178.311 6.81055L177.573 6.80176L177.494 6.73145V6.35352L177.564 6.2832C178.683 6.14844 179.627 5.92871 180.394 5.62402ZM2.93439 29.624L3.10138 29.7383C3.06622 30.125 3.04279 30.5879 3.03107 31.127L3.86603 30.3623C4.1004 30.1455 4.25568 30.0078 4.33185 29.9492C4.40802 29.8848 4.58673 29.8115 4.86798 29.7295C5.14923 29.6475 5.44513 29.6064 5.75568 29.6064C6.34161 29.6064 6.85431 29.7529 7.29376 30.0459C7.73322 30.333 8.05841 30.7314 8.26935 31.2412C9.06036 30.4912 9.52032 30.0752 9.64923 29.9932C9.784 29.9111 9.99493 29.8291 10.282 29.7471C10.5692 29.6592 10.8563 29.6152 11.1434 29.6152C11.6063 29.6152 12.0311 29.7148 12.4178 29.9141C12.8045 30.1133 13.1121 30.374 13.3406 30.6963C13.5692 31.0186 13.701 31.3672 13.7361 31.7422C13.7772 32.1172 13.7977 32.6328 13.7977 33.2891V34.2119C13.7977 34.3115 13.8152 35.041 13.8504 36.4004C13.8621 36.957 13.9236 37.2881 14.035 37.3936C14.1463 37.499 14.5067 37.5518 15.116 37.5518L15.1863 37.6221V38L15.116 38.0703C14.3719 38.0234 13.868 38 13.6043 38C13.4578 38 13.033 38.0234 12.3299 38.0703L12.2156 37.9736C12.2918 37.2119 12.3299 36.2188 12.3299 34.9941V33.9395C12.3299 33.0078 12.2859 32.3574 12.1981 31.9883C12.1102 31.6133 11.9051 31.3086 11.5828 31.0742C11.2606 30.834 10.8768 30.7139 10.4315 30.7139C10.1151 30.7139 9.81915 30.7783 9.54376 30.9072C9.26837 31.0303 9.01935 31.2178 8.79669 31.4697C8.5799 31.7158 8.45978 31.9473 8.43634 32.1641C8.4129 32.375 8.40118 32.7676 8.40118 33.3418V34.4404C8.40118 34.6982 8.4129 35.1816 8.43634 35.8906C8.45978 36.5996 8.48322 37.0127 8.50665 37.1299C8.53595 37.2471 8.57697 37.332 8.6297 37.3848C8.68829 37.4316 8.75275 37.4639 8.82306 37.4814C8.89923 37.4932 9.21564 37.5166 9.77228 37.5518L9.85138 37.6221V37.9912L9.78107 38.0703C9.04865 38.0234 8.34259 38 7.6629 38C7.03595 38 6.33282 38.0234 5.55353 38.0703L5.47443 37.9912V37.6221L5.55353 37.5518C6.12189 37.5166 6.44122 37.4902 6.51154 37.4727C6.58771 37.4551 6.65216 37.4199 6.7049 37.3672C6.76349 37.3086 6.80157 37.2236 6.81915 37.1123C6.84259 36.9951 6.86603 36.6172 6.88947 35.9785C6.91876 35.334 6.93341 34.8477 6.93341 34.5195V33.5176C6.93341 32.8555 6.88654 32.3457 6.79279 31.9883C6.7049 31.6309 6.51154 31.3291 6.21271 31.083C5.91388 30.8369 5.53888 30.7139 5.08771 30.7139C4.73615 30.7139 4.41388 30.7842 4.12091 30.9248C3.8338 31.0596 3.5965 31.2295 3.409 31.4346C3.22736 31.6338 3.1131 31.8213 3.06622 31.9971C3.02521 32.1729 3.0047 32.5537 3.0047 33.1396V34.4404C3.0047 34.6982 3.01642 35.1816 3.03986 35.8906C3.06329 36.5996 3.08673 37.0127 3.11017 37.1299C3.13947 37.2471 3.18048 37.332 3.23322 37.3848C3.29181 37.4316 3.35626 37.4639 3.42657 37.4814C3.50275 37.4932 3.81915 37.5166 4.37579 37.5518L4.4549 37.6221V37.9912L4.38458 38.0703C3.65216 38.0234 2.94611 38 2.26642 38C1.59259 38 0.889465 38.0234 0.157043 38.0703L0.0779419 37.9912V37.6221L0.157043 37.5518C0.725403 37.5166 1.04474 37.4902 1.11505 37.4727C1.19122 37.4551 1.25568 37.4199 1.30841 37.3672C1.367 37.3086 1.40509 37.2236 1.42267 37.1123C1.44611 36.9951 1.46954 36.6172 1.49298 35.9785C1.52228 35.334 1.53693 34.8477 1.53693 34.5195V32.7881C1.53693 32.5537 1.52521 32.2344 1.50177 31.8301C1.47833 31.4258 1.45782 31.1768 1.44025 31.083C1.42853 30.9893 1.38458 30.9219 1.30841 30.8809C1.23224 30.834 1.0799 30.8105 0.851379 30.8105L0.113098 30.8018L0.0339966 30.7314V30.3535L0.104309 30.2832C1.22345 30.1484 2.16681 29.9287 2.93439 29.624ZM17.4539 32.041L17.1111 31.9531L17.0408 31.8652V30.7754C18.0838 30.002 19.0975 29.6152 20.0818 29.6152C20.7557 29.6152 21.3152 29.7412 21.7606 29.9932C22.2059 30.2451 22.5281 30.5615 22.7274 30.9424C22.9266 31.3174 23.0262 31.7568 23.0262 32.2607L22.9822 34.0273V36.6465C22.9822 37.0039 23.0057 37.2207 23.0526 37.2969C23.1053 37.373 23.1639 37.4258 23.2283 37.4551C23.2928 37.4785 23.4129 37.499 23.5887 37.5166L24.0897 37.5605L24.16 37.6396V37.9912L24.0897 38.0615C23.6619 38.0264 23.2635 38.0088 22.8943 38.0088C22.5428 38.0088 22.1209 38.0264 21.6287 38.0615L21.4969 37.9385L21.532 36.5234L19.616 38.0176C19.2938 38.1523 18.9422 38.2197 18.5613 38.2197C18.0926 38.2197 17.6883 38.1348 17.3484 37.9648C17.0145 37.7949 16.7567 37.5576 16.575 37.2529C16.3992 36.9482 16.3113 36.5791 16.3113 36.1455C16.3113 35.2842 16.5809 34.6133 17.1199 34.1328C17.659 33.6465 19.1297 33.2334 21.532 32.8936C21.532 32.0264 21.3387 31.417 20.952 31.0654C20.5652 30.708 20.0467 30.5293 19.3963 30.5293C19.0565 30.5293 18.7459 30.5791 18.4647 30.6787C18.1893 30.7783 18.0311 30.8604 17.9901 30.9248C17.949 30.9834 17.7908 31.3408 17.5154 31.9971L17.4539 32.041ZM21.532 33.4297C19.8914 33.7051 18.869 34.001 18.4647 34.3174C18.0604 34.6338 17.8582 35.123 17.8582 35.7852C17.8582 36.6992 18.3123 37.1562 19.2205 37.1562C19.9998 37.1562 20.7703 36.7051 21.532 35.8027V33.4297ZM32.2195 37.0596L31.868 37.6484C31.1121 38.0645 30.2684 38.2725 29.3367 38.2725C28.0477 38.2725 27.0516 37.8887 26.3484 37.1211C25.6453 36.3535 25.2938 35.3633 25.2938 34.1504C25.2938 33.5996 25.3524 33.1104 25.4695 32.6826C25.5926 32.249 25.7449 31.8916 25.9266 31.6104C26.1141 31.3291 26.3192 31.1064 26.5418 30.9424C26.7645 30.7783 27.1395 30.5498 27.6668 30.2568C28.2 29.9639 28.6014 29.7734 28.8709 29.6855C29.1404 29.5918 29.5125 29.5449 29.9871 29.5449C30.8953 29.5449 31.6395 29.7178 32.2195 30.0635C32.1082 30.7256 32.0233 31.4639 31.9647 32.2783L31.8856 32.3486H31.5252L31.4461 32.2695C31.4227 31.7773 31.3904 31.4463 31.3494 31.2764C31.3084 31.1064 31.074 30.9248 30.6463 30.7314C30.2244 30.5381 29.7733 30.4414 29.2928 30.4414C28.8123 30.4414 28.3846 30.5439 28.0096 30.749C27.6346 30.9482 27.3504 31.2793 27.157 31.7422C26.9695 32.1992 26.8758 32.7471 26.8758 33.3857C26.8758 33.9248 26.952 34.4521 27.1043 34.9678C27.2567 35.4775 27.4559 35.9023 27.702 36.2422C27.9539 36.5762 28.285 36.8457 28.6951 37.0508C29.1053 37.2559 29.5623 37.3584 30.0662 37.3584C30.3826 37.3584 30.6902 37.3174 30.9891 37.2354C31.2938 37.1533 31.6424 37.0186 32.035 36.8311L32.2195 37.0596ZM34.452 32.041L34.1092 31.9531L34.0389 31.8652V30.7754C35.0818 30.002 36.0955 29.6152 37.0799 29.6152C37.7537 29.6152 38.3133 29.7412 38.7586 29.9932C39.2039 30.2451 39.5262 30.5615 39.7254 30.9424C39.9246 31.3174 40.0242 31.7568 40.0242 32.2607L39.9803 34.0273V36.6465C39.9803 37.0039 40.0037 37.2207 40.0506 37.2969C40.1033 37.373 40.1619 37.4258 40.2264 37.4551C40.2908 37.4785 40.4109 37.499 40.5867 37.5166L41.0877 37.5605L41.158 37.6396V37.9912L41.0877 38.0615C40.66 38.0264 40.2615 38.0088 39.8924 38.0088C39.5408 38.0088 39.119 38.0264 38.6268 38.0615L38.4949 37.9385L38.5301 36.5234L36.6141 38.0176C36.2918 38.1523 35.9402 38.2197 35.5594 38.2197C35.0906 38.2197 34.6863 38.1348 34.3465 37.9648C34.0125 37.7949 33.7547 37.5576 33.5731 37.2529C33.3973 36.9482 33.3094 36.5791 33.3094 36.1455C33.3094 35.2842 33.5789 34.6133 34.118 34.1328C34.657 33.6465 36.1277 33.2334 38.5301 32.8936C38.5301 32.0264 38.3367 31.417 37.95 31.0654C37.5633 30.708 37.0447 30.5293 36.3943 30.5293C36.0545 30.5293 35.744 30.5791 35.4627 30.6787C35.1873 30.7783 35.0291 30.8604 34.9881 30.9248C34.9471 30.9834 34.7889 31.3408 34.5135 31.9971L34.452 32.041ZM38.5301 33.4297C36.8895 33.7051 35.867 34.001 35.4627 34.3174C35.0584 34.6338 34.8563 35.123 34.8563 35.7852C34.8563 36.6992 35.3104 37.1562 36.2186 37.1562C36.9979 37.1562 37.7684 36.7051 38.5301 35.8027V33.4297ZM44.8231 29.624L44.9901 29.7383C44.9549 30.125 44.9315 30.5879 44.9197 31.127L45.7547 30.3623C45.9891 30.1455 46.1443 30.0078 46.2205 29.9492C46.2967 29.8848 46.4754 29.8115 46.7567 29.7295C47.0379 29.6475 47.3338 29.6064 47.6443 29.6064C48.2303 29.6064 48.743 29.7529 49.1824 30.0459C49.6219 30.333 49.9471 30.7314 50.158 31.2412C50.949 30.4912 51.409 30.0752 51.5379 29.9932C51.6727 29.9111 51.8836 29.8291 52.1707 29.7471C52.4578 29.6592 52.7449 29.6152 53.032 29.6152C53.4949 29.6152 53.9197 29.7148 54.3065 29.9141C54.6932 30.1133 55.0008 30.374 55.2293 30.6963C55.4578 31.0186 55.5897 31.3672 55.6248 31.7422C55.6658 32.1172 55.6863 32.6328 55.6863 33.2891V34.2119C55.6863 34.3115 55.7039 35.041 55.7391 36.4004C55.7508 36.957 55.8123 37.2881 55.9236 37.3936C56.035 37.499 56.3953 37.5518 57.0047 37.5518L57.075 37.6221V38L57.0047 38.0703C56.2606 38.0234 55.7567 38 55.493 38C55.3465 38 54.9217 38.0234 54.2186 38.0703L54.1043 37.9736C54.1805 37.2119 54.2186 36.2188 54.2186 34.9941V33.9395C54.2186 33.0078 54.1746 32.3574 54.0867 31.9883C53.9988 31.6133 53.7938 31.3086 53.4715 31.0742C53.1492 30.834 52.7654 30.7139 52.3201 30.7139C52.0037 30.7139 51.7078 30.7783 51.4324 30.9072C51.157 31.0303 50.908 31.2178 50.6854 31.4697C50.4686 31.7158 50.3484 31.9473 50.325 32.1641C50.3016 32.375 50.2899 32.7676 50.2899 33.3418V34.4404C50.2899 34.6982 50.3016 35.1816 50.325 35.8906C50.3484 36.5996 50.3719 37.0127 50.3953 37.1299C50.4246 37.2471 50.4656 37.332 50.5184 37.3848C50.577 37.4316 50.6414 37.4639 50.7117 37.4814C50.7879 37.4932 51.1043 37.5166 51.6609 37.5518L51.7401 37.6221V37.9912L51.6697 38.0703C50.9373 38.0234 50.2313 38 49.5516 38C48.9246 38 48.2215 38.0234 47.4422 38.0703L47.3631 37.9912V37.6221L47.4422 37.5518C48.0106 37.5166 48.3299 37.4902 48.4002 37.4727C48.4764 37.4551 48.5408 37.4199 48.5936 37.3672C48.6522 37.3086 48.6902 37.2236 48.7078 37.1123C48.7313 36.9951 48.7547 36.6172 48.7781 35.9785C48.8074 35.334 48.8221 34.8477 48.8221 34.5195V33.5176C48.8221 32.8555 48.7752 32.3457 48.6815 31.9883C48.5936 31.6309 48.4002 31.3291 48.1014 31.083C47.8026 30.8369 47.4276 30.7139 46.9764 30.7139C46.6248 30.7139 46.3026 30.7842 46.0096 30.9248C45.7225 31.0596 45.4852 31.2295 45.2977 31.4346C45.116 31.6338 45.0018 31.8213 44.9549 31.9971C44.9139 32.1729 44.8934 32.5537 44.8934 33.1396V34.4404C44.8934 34.6982 44.9051 35.1816 44.9285 35.8906C44.952 36.5996 44.9754 37.0127 44.9988 37.1299C45.0281 37.2471 45.0692 37.332 45.1219 37.3848C45.1805 37.4316 45.2449 37.4639 45.3152 37.4814C45.3914 37.4932 45.7078 37.5166 46.2645 37.5518L46.3436 37.6221V37.9912L46.2733 38.0703C45.5408 38.0234 44.8348 38 44.1551 38C43.4813 38 42.7781 38.0234 42.0457 38.0703L41.9666 37.9912V37.6221L42.0457 37.5518C42.6141 37.5166 42.9334 37.4902 43.0037 37.4727C43.0799 37.4551 43.1443 37.4199 43.1971 37.3672C43.2557 37.3086 43.2938 37.2236 43.3113 37.1123C43.3348 36.9951 43.3582 36.6172 43.3817 35.9785C43.4109 35.334 43.4256 34.8477 43.4256 34.5195V32.7881C43.4256 32.5537 43.4139 32.2344 43.3904 31.8301C43.367 31.4258 43.3465 31.1768 43.3289 31.083C43.3172 30.9893 43.2733 30.9219 43.1971 30.8809C43.1209 30.834 42.9686 30.8105 42.7401 30.8105L42.0018 30.8018L41.9227 30.7314V30.3535L41.993 30.2832C43.1121 30.1484 44.0555 29.9287 44.8231 29.624ZM62.243 25.6426L62.3133 25.5811C63.7664 25.6279 64.6043 25.6514 64.827 25.6514C65.0262 25.6514 65.867 25.6279 67.3494 25.5811L67.4197 25.6426V26.082L67.3494 26.1436C66.9451 26.1553 66.6317 26.1729 66.409 26.1963C66.1922 26.2197 66.034 26.2637 65.9344 26.3281C65.8348 26.3926 65.7674 26.5449 65.7322 26.7852C65.7029 27.0195 65.6883 27.3477 65.6883 27.7695L65.6707 29.791V32.5859C65.6707 33.5059 65.6883 34.1826 65.7234 34.6162C65.7645 35.0439 65.8465 35.4072 65.9695 35.7061C66.0984 35.999 66.2918 36.2539 66.5496 36.4707C66.8074 36.6816 67.1766 36.8545 67.657 36.9893C68.1375 37.124 68.6824 37.1914 69.2918 37.1914C69.9363 37.1914 70.5369 37.1035 71.0936 36.9277C71.6561 36.7461 72.0838 36.4854 72.3768 36.1455C72.6697 35.8057 72.8602 35.3604 72.9481 34.8096C73.0418 34.2529 73.0887 33.4824 73.0887 32.498V29.791C73.0887 29.334 73.0799 28.707 73.0623 27.9102C73.0506 27.1074 73.0154 26.6475 72.9568 26.5303C72.9041 26.4072 72.8016 26.3164 72.6492 26.2578C72.5027 26.1934 72.0897 26.1553 71.41 26.1436L71.3397 26.0732V25.6602L71.41 25.5811C72.2772 25.6279 72.9715 25.6514 73.493 25.6514C73.9383 25.6514 74.6297 25.6279 75.5672 25.5811L75.6463 25.6514V26.0732L75.5672 26.1436C75.0164 26.1553 74.6561 26.1787 74.4861 26.2139C74.3221 26.2432 74.2049 26.29 74.1346 26.3545C74.0701 26.4189 74.0203 26.5186 73.9852 26.6533C73.9559 26.7881 73.9354 27.1748 73.9236 27.8135L73.8973 29.791V32.4629C73.8973 33.5293 73.8563 34.3701 73.7742 34.9854C73.6922 35.6006 73.5076 36.1074 73.2205 36.5059C72.9393 36.8984 72.6024 37.2295 72.2098 37.499C71.8231 37.7627 71.325 37.9648 70.7156 38.1055C70.1063 38.252 69.4734 38.3252 68.8172 38.3252C67.9969 38.3252 67.2703 38.2344 66.6375 38.0527C66.0106 37.8711 65.5154 37.6309 65.1522 37.332C64.7889 37.0332 64.5281 36.7197 64.3699 36.3916C64.2117 36.0576 64.1092 35.668 64.0623 35.2227C64.0154 34.7715 63.992 34.0859 63.992 33.166V29.791L63.9744 28.0771C63.9686 27.4092 63.951 26.9785 63.9217 26.7852C63.8983 26.5918 63.8572 26.4629 63.7986 26.3984C63.7459 26.334 63.6404 26.2812 63.4822 26.2402C63.324 26.1992 62.9344 26.167 62.3133 26.1436L62.243 26.082V25.6426ZM76.5076 25.5811L77.6063 25.6162C78.327 25.6396 78.7986 25.6514 79.0213 25.6514C79.2205 25.6514 80.0613 25.6279 81.5438 25.5811L81.6141 25.6426V26.082L81.5438 26.1436C81.1395 26.1553 80.826 26.1729 80.6033 26.1963C80.3865 26.2197 80.2283 26.2637 80.1287 26.3281C80.0291 26.3926 79.9617 26.5449 79.9266 26.7852C79.8973 27.0195 79.8826 27.3477 79.8826 27.7695L79.8651 29.791V33.8604L79.8738 35.5742C79.8797 36.2363 79.8973 36.6641 79.9266 36.8574C79.9559 37.0508 79.9969 37.1797 80.0496 37.2441C80.1082 37.3086 80.2166 37.3643 80.3748 37.4111C80.533 37.4521 80.9227 37.4844 81.5438 37.5078L81.6141 37.5605V38L81.5438 38.0703C81.5145 38.0703 80.9988 38.0527 79.9969 38.0176C79.5809 38.0059 79.2557 38 79.0213 38C78.8397 38 78.0018 38.0234 76.5076 38.0703L76.4373 38V37.5605L76.5076 37.5078C77.0526 37.4844 77.4158 37.4551 77.5975 37.4199C77.7791 37.3848 77.8992 37.3408 77.9578 37.2881C78.0223 37.2295 78.0721 37.1094 78.1072 36.9277C78.1483 36.7461 78.1717 36.3418 78.1776 35.7148L78.1863 33.8604V29.791L78.1688 28.0771C78.1629 27.4092 78.1453 26.9785 78.116 26.7852C78.0926 26.5918 78.0516 26.4629 77.993 26.3984C77.9402 26.334 77.8348 26.2812 77.6766 26.2402C77.5184 26.1992 77.1287 26.167 76.5076 26.1436L76.4373 26.082V25.6426L76.5076 25.5811ZM86.5535 40.0742L91.2996 24.9834L91.3875 24.9131H92.2664L92.3192 25.001L87.5731 40.083L87.4764 40.1621H86.6151L86.5535 40.0742ZM97.0828 25.6426L97.1531 25.5811C98.6063 25.6279 99.4442 25.6514 99.6668 25.6514C99.866 25.6514 100.707 25.6279 102.189 25.5811L102.26 25.6426V26.082L102.189 26.1436C101.785 26.1553 101.471 26.1729 101.249 26.1963C101.032 26.2197 100.874 26.2637 100.774 26.3281C100.675 26.3926 100.607 26.5449 100.572 26.7852C100.543 27.0195 100.528 27.3477 100.528 27.7695L100.511 29.791V32.5859C100.511 33.5059 100.528 34.1826 100.563 34.6162C100.604 35.0439 100.686 35.4072 100.809 35.7061C100.938 35.999 101.132 36.2539 101.389 36.4707C101.647 36.6816 102.016 36.8545 102.497 36.9893C102.977 37.124 103.522 37.1914 104.132 37.1914C104.776 37.1914 105.377 37.1035 105.933 36.9277C106.496 36.7461 106.924 36.4854 107.217 36.1455C107.51 35.8057 107.7 35.3604 107.788 34.8096C107.882 34.2529 107.929 33.4824 107.929 32.498V29.791C107.929 29.334 107.92 28.707 107.902 27.9102C107.89 27.1074 107.855 26.6475 107.797 26.5303C107.744 26.4072 107.641 26.3164 107.489 26.2578C107.343 26.1934 106.93 26.1553 106.25 26.1436L106.18 26.0732V25.6602L106.25 25.5811C107.117 25.6279 107.811 25.6514 108.333 25.6514C108.778 25.6514 109.47 25.6279 110.407 25.5811L110.486 25.6514V26.0732L110.407 26.1436C109.856 26.1553 109.496 26.1787 109.326 26.2139C109.162 26.2432 109.045 26.29 108.974 26.3545C108.91 26.4189 108.86 26.5186 108.825 26.6533C108.796 26.7881 108.775 27.1748 108.763 27.8135L108.737 29.791V32.4629C108.737 33.5293 108.696 34.3701 108.614 34.9854C108.532 35.6006 108.347 36.1074 108.06 36.5059C107.779 36.8984 107.442 37.2295 107.05 37.499C106.663 37.7627 106.165 37.9648 105.555 38.1055C104.946 38.252 104.313 38.3252 103.657 38.3252C102.837 38.3252 102.11 38.2344 101.477 38.0527C100.85 37.8711 100.355 37.6309 99.992 37.332C99.6287 37.0332 99.368 36.7197 99.2098 36.3916C99.0516 36.0576 98.949 35.668 98.9022 35.2227C98.8553 34.7715 98.8318 34.0859 98.8318 33.166V29.791L98.8143 28.0771C98.8084 27.4092 98.7908 26.9785 98.7615 26.7852C98.7381 26.5918 98.6971 26.4629 98.6385 26.3984C98.5858 26.334 98.4803 26.2812 98.3221 26.2402C98.1639 26.1992 97.7742 26.167 97.1531 26.1436L97.0828 26.082V25.6426ZM111.101 37.9561V37.5342L111.172 37.4639C111.564 37.458 111.828 37.4229 111.963 37.3584C112.097 37.2881 112.27 37.1211 112.481 36.8574C112.692 36.5879 113.105 36.0254 113.721 35.1699L116.12 31.8389L114.564 29.1934C114.447 28.9941 114.189 28.6104 113.791 28.042C113.398 27.4678 113.088 27.0693 112.859 26.8467C112.637 26.624 112.47 26.4951 112.358 26.46C112.247 26.4248 111.939 26.4072 111.435 26.4072L111.356 26.3281V25.959L111.435 25.8799L113.923 25.4668C114.139 25.6074 114.371 25.8418 114.617 26.1699C114.869 26.4922 115.232 27.0635 115.707 27.8838L117.183 30.4502L120.541 25.5459C121.039 25.5635 121.341 25.5723 121.446 25.5723C121.493 25.5723 121.765 25.5635 122.263 25.5459L122.334 25.625V26.0205L122.263 26.0908C121.894 26.1084 121.648 26.1436 121.525 26.1963C121.408 26.2432 121.253 26.3662 121.059 26.5654C120.872 26.7646 120.485 27.2598 119.899 28.0508L118.264 30.2656L117.605 31.1445L120.585 35.9609C120.866 36.418 121.092 36.7607 121.262 36.9893C121.437 37.2119 121.578 37.3467 121.683 37.3936C121.789 37.4346 122.029 37.458 122.404 37.4639L122.474 37.5342V37.9648L122.404 38.0352C121.847 38.0117 121.455 38 121.226 38C120.928 38 120.476 38.0117 119.873 38.0352C119.521 37.5137 119.196 36.9951 118.897 36.4795L116.586 32.5332L115.944 33.4209C115.1 34.5811 114.107 36.1191 112.965 38.0352C112.584 38.0117 112.285 38 112.068 38C111.846 38 111.55 38.0117 111.18 38.0352L111.101 37.9561ZM127.071 38.0703L126.992 38V37.543L127.071 37.4727C127.499 37.4668 127.774 37.4463 127.897 37.4111C128.02 37.3701 128.129 37.2939 128.222 37.1826C128.322 37.0654 128.518 36.6904 128.811 36.0576L129.734 34.0537L132.125 28.6396C132.576 27.5791 133.024 26.5186 133.47 25.458H134.041L137.794 34.2822L138.295 35.46C138.441 35.7939 138.608 36.1572 138.796 36.5498C138.989 36.9424 139.121 37.1738 139.191 37.2441C139.267 37.3145 139.358 37.3701 139.464 37.4111C139.575 37.4463 139.818 37.4668 140.193 37.4727L140.263 37.543V38L140.193 38.0703C139.572 38.0176 139.013 37.9912 138.514 37.9912C137.542 38.0205 136.569 38.0469 135.596 38.0703L135.526 38V37.543L135.596 37.4727C136.253 37.4609 136.663 37.4346 136.827 37.3936C136.991 37.3467 137.073 37.2441 137.073 37.0859C137.073 36.957 137.032 36.7871 136.95 36.5762L135.869 33.8955H130.78L129.822 36.1455C129.652 36.5498 129.567 36.8457 129.567 37.0332C129.567 37.1797 129.646 37.2881 129.805 37.3584C129.963 37.4287 130.361 37.4668 131 37.4727L131.079 37.543V38L131.009 38.0703C130.253 38.0234 129.591 38 129.022 38C128.378 38 127.727 38.0234 127.071 38.0703ZM131.079 33.1396H135.526L133.32 27.8398L131.079 33.1396ZM143.7 29.624L143.867 29.7383C143.832 30.1309 143.808 30.6465 143.797 31.2852C144.265 30.8984 144.711 30.5059 145.133 30.1074C145.256 29.9961 145.37 29.9141 145.475 29.8613C145.587 29.8086 145.768 29.7529 146.02 29.6943C146.272 29.6357 146.53 29.6064 146.794 29.6064C147.239 29.6064 147.67 29.6973 148.086 29.8789C148.508 30.0605 148.824 30.2773 149.035 30.5293C149.252 30.7754 149.401 31.0684 149.483 31.4082C149.565 31.748 149.606 32.167 149.606 32.665V34.2119C149.606 34.3115 149.621 35.041 149.65 36.4004C149.662 36.957 149.723 37.2881 149.835 37.3936C149.946 37.499 150.309 37.5518 150.925 37.5518L150.995 37.6221V38L150.925 38.0703C150.18 38.0234 149.677 38 149.413 38C149.261 38 148.833 38.0234 148.13 38.0703L148.024 37.9736C148.1 37.2119 148.138 36.2188 148.138 34.9941V33.8428C148.138 33.1514 148.121 32.6533 148.086 32.3486C148.056 32.0439 147.96 31.7686 147.796 31.5225C147.632 31.2705 147.412 31.0771 147.137 30.9424C146.861 30.8018 146.533 30.7314 146.152 30.7314C145.847 30.7314 145.587 30.7637 145.37 30.8281C145.153 30.8867 144.91 31.0127 144.64 31.2061C144.371 31.3936 144.172 31.5723 144.043 31.7422C143.914 31.9062 143.835 32.0615 143.805 32.208C143.782 32.3486 143.77 32.6533 143.77 33.1221V34.6514C143.77 34.7803 143.782 35.1963 143.805 35.8994C143.829 36.5967 143.852 37.0039 143.876 37.1211C143.905 37.2383 143.946 37.3232 143.999 37.376C144.052 37.4287 144.116 37.4639 144.192 37.4814C144.268 37.4932 144.585 37.5166 145.141 37.5518L145.221 37.6221V37.9912L145.15 38.0703C144.418 38.0234 143.712 38 143.032 38C142.358 38 141.655 38.0234 140.923 38.0703L140.844 37.9912V37.6221L140.923 37.5518C141.491 37.5166 141.81 37.4902 141.881 37.4727C141.957 37.4551 142.021 37.4199 142.074 37.3672C142.133 37.3086 142.171 37.2236 142.188 37.1123C142.212 36.9951 142.235 36.6172 142.259 35.9785C142.288 35.334 142.303 34.8477 142.303 34.5195V32.7881C142.303 32.5537 142.291 32.2344 142.267 31.8301C142.244 31.4258 142.223 31.1768 142.206 31.083C142.194 30.9893 142.15 30.9219 142.074 30.8809C141.998 30.834 141.846 30.8105 141.617 30.8105L140.879 30.8018L140.8 30.7314V30.3535L140.87 30.2832C141.989 30.1484 142.932 29.9287 143.7 29.624ZM157.086 26.082V25.7129L157.156 25.6338C158.275 25.5049 159.219 25.2881 159.986 24.9834L160.153 25.0889C160.089 25.7627 160.056 27.1133 160.056 29.1406V34.8975C160.056 35.4893 160.065 36.0078 160.083 36.4531C160.106 36.8926 160.144 37.1533 160.197 37.2354C160.25 37.3174 160.335 37.3848 160.452 37.4375C160.575 37.4902 160.918 37.54 161.48 37.5869L161.559 37.6572V37.9912L161.48 38.0703C160.847 38.0293 160.355 38.0088 160.004 38.0088C159.687 38.0088 159.236 38.0293 158.65 38.0703L158.554 37.9736C158.571 37.3994 158.58 36.998 158.58 36.7695C158.58 36.7402 158.583 36.6289 158.589 36.4355C158.266 36.6699 157.944 36.9307 157.622 37.2178C157.147 37.6396 156.837 37.9033 156.69 38.0088C156.421 38.1436 156.037 38.2109 155.539 38.2109C154.73 38.2109 154.042 38.0117 153.473 37.6133C152.911 37.2148 152.51 36.708 152.269 36.0928C152.029 35.4717 151.909 34.8359 151.909 34.1855C151.909 33.5234 152.032 32.8877 152.278 32.2783C152.53 31.6631 152.885 31.2148 153.342 30.9336C153.805 30.6523 154.305 30.3623 154.845 30.0635C155.389 29.7588 155.929 29.6064 156.462 29.6064C157.206 29.6064 157.915 29.791 158.589 30.1602L158.554 28.2002C158.542 27.5205 158.524 27.0488 158.501 26.7852C158.477 26.5156 158.448 26.3574 158.413 26.3105C158.378 26.2578 158.316 26.2197 158.228 26.1963C158.146 26.1729 157.792 26.1611 157.165 26.1611L157.086 26.082ZM158.589 31.6631C158.225 31.2529 157.821 30.9395 157.376 30.7227C156.936 30.5059 156.494 30.3975 156.049 30.3975C155.556 30.3975 155.096 30.5322 154.669 30.8018C154.247 31.0654 153.942 31.4609 153.755 31.9883C153.567 32.5098 153.473 33.0781 153.473 33.6934C153.473 34.7188 153.731 35.542 154.247 36.1631C154.768 36.7842 155.422 37.0947 156.207 37.0947C156.635 37.0947 157.013 36.998 157.341 36.8047C157.675 36.6055 157.947 36.3389 158.158 36.0049C158.375 35.6709 158.501 35.3369 158.536 35.0029C158.571 34.6689 158.589 34.0566 158.589 33.166V31.6631ZM165.55 29.624L165.717 29.7383C165.681 30.0781 165.655 30.6816 165.638 31.5488L166.297 30.7139C166.513 30.4385 166.704 30.2275 166.868 30.0811C167.038 29.9287 167.234 29.8115 167.457 29.7295C167.68 29.6475 167.908 29.6064 168.142 29.6064C168.4 29.6064 168.643 29.6592 168.872 29.7646L168.933 29.8877C168.84 30.667 168.787 31.3525 168.775 31.9443H168.38C168.145 31.4053 167.767 31.1357 167.246 31.1357C166.883 31.1357 166.566 31.2529 166.297 31.4873C166.027 31.7158 165.846 32.0059 165.752 32.3574C165.664 32.7031 165.62 33.1426 165.62 33.6758V34.6514C165.62 34.8271 165.632 35.2578 165.655 35.9434C165.679 36.6289 165.702 37.0244 165.725 37.1299C165.755 37.2354 165.796 37.3145 165.848 37.3672C165.907 37.4141 165.98 37.4463 166.068 37.4639C166.162 37.4814 166.581 37.5107 167.325 37.5518L167.404 37.6221V37.9912L167.325 38.0703C166.546 38.0234 165.731 38 164.882 38C164.208 38 163.505 38.0234 162.772 38.0703L162.693 37.9912V37.6221L162.772 37.5518C163.341 37.5166 163.66 37.4902 163.73 37.4727C163.806 37.4551 163.871 37.4199 163.924 37.3672C163.982 37.3086 164.02 37.2236 164.038 37.1123C164.061 36.9951 164.085 36.6172 164.108 35.9785C164.138 35.334 164.152 34.8477 164.152 34.5195V32.7881C164.152 32.5537 164.14 32.2344 164.117 31.8301C164.094 31.4258 164.073 31.1768 164.055 31.083C164.044 30.9893 164 30.9219 163.924 30.8809C163.847 30.834 163.695 30.8105 163.467 30.8105L162.728 30.8018L162.649 30.7314V30.3535L162.72 30.2832C163.839 30.1484 164.782 29.9287 165.55 29.624ZM169.891 33.9746C169.891 33.2773 170.035 32.6064 170.322 31.9619C170.609 31.3115 171.107 30.752 171.816 30.2832C172.531 29.8086 173.378 29.5713 174.356 29.5713C175.587 29.5713 176.589 29.9609 177.362 30.7402C178.136 31.5137 178.522 32.5098 178.522 33.7285C178.522 35.0703 178.077 36.1748 177.186 37.042C176.302 37.9092 175.232 38.3428 173.978 38.3428C173.158 38.3428 172.426 38.123 171.781 37.6836C171.137 37.2383 170.659 36.6963 170.348 36.0576C170.044 35.4189 169.891 34.7246 169.891 33.9746ZM171.553 33.3682C171.553 34.1885 171.658 34.9238 171.869 35.5742C172.08 36.2188 172.414 36.7373 172.871 37.1299C173.328 37.5225 173.849 37.7188 174.435 37.7188C175.127 37.7188 175.698 37.4463 176.149 36.9014C176.6 36.3506 176.826 35.5244 176.826 34.4229C176.826 33.1748 176.58 32.1523 176.088 31.3555C175.601 30.5586 174.898 30.1602 173.978 30.1602C173.217 30.1602 172.622 30.4355 172.194 30.9863C171.766 31.5371 171.553 32.3311 171.553 33.3682ZM181.651 25.6953C181.927 25.6953 182.161 25.792 182.354 25.9854C182.548 26.1787 182.644 26.4131 182.644 26.6885C182.644 26.958 182.548 27.1895 182.354 27.3828C182.161 27.5762 181.927 27.6729 181.651 27.6729C181.382 27.6729 181.147 27.5791 180.948 27.3916C180.755 27.1982 180.658 26.9639 180.658 26.6885C180.658 26.4131 180.755 26.1787 180.948 25.9854C181.147 25.792 181.382 25.6953 181.651 25.6953ZM182.398 29.624L182.565 29.7383C182.501 30.5059 182.469 31.4814 182.469 32.665V34.6514C182.469 34.7803 182.48 35.1963 182.504 35.8994C182.527 36.5967 182.551 37.0039 182.574 37.1211C182.603 37.2383 182.644 37.3232 182.697 37.376C182.75 37.4287 182.814 37.4639 182.89 37.4814C182.967 37.4932 183.283 37.5166 183.84 37.5518L183.919 37.6221V37.9912L183.848 38.0703C183.116 38.0234 182.41 38 181.73 38C181.056 38 180.353 38.0234 179.621 38.0703L179.542 37.9912V37.6221L179.621 37.5518C180.189 37.5166 180.509 37.4902 180.579 37.4727C180.655 37.4551 180.72 37.4199 180.772 37.3672C180.831 37.3086 180.869 37.2236 180.887 37.1123C180.91 36.9951 180.933 36.6172 180.957 35.9785C180.986 35.334 181.001 34.8477 181.001 34.5195V32.7881C181.001 32.5537 180.989 32.2344 180.966 31.8301C180.942 31.4258 180.922 31.1768 180.904 31.083C180.892 30.9893 180.848 30.9219 180.772 30.8809C180.696 30.834 180.544 30.8105 180.315 30.8105L179.577 30.8018L179.498 30.7314V30.3535L179.568 30.2832C180.687 30.1484 181.631 29.9287 182.398 29.624ZM190.273 26.082V25.7129L190.344 25.6338C191.463 25.5049 192.406 25.2881 193.174 24.9834L193.341 25.0889C193.276 25.7627 193.244 27.1133 193.244 29.1406V34.8975C193.244 35.4893 193.253 36.0078 193.27 36.4531C193.294 36.8926 193.332 37.1533 193.385 37.2354C193.437 37.3174 193.522 37.3848 193.639 37.4375C193.763 37.4902 194.105 37.54 194.668 37.5869L194.747 37.6572V37.9912L194.668 38.0703C194.035 38.0293 193.543 38.0088 193.191 38.0088C192.875 38.0088 192.424 38.0293 191.838 38.0703L191.741 37.9736C191.759 37.3994 191.767 36.998 191.767 36.7695C191.767 36.7402 191.77 36.6289 191.776 36.4355C191.454 36.6699 191.132 36.9307 190.809 37.2178C190.335 37.6396 190.024 37.9033 189.878 38.0088C189.608 38.1436 189.224 38.2109 188.726 38.2109C187.918 38.2109 187.229 38.0117 186.661 37.6133C186.098 37.2148 185.697 36.708 185.457 36.0928C185.217 35.4717 185.096 34.8359 185.096 34.1855C185.096 33.5234 185.22 32.8877 185.466 32.2783C185.718 31.6631 186.072 31.2148 186.529 30.9336C186.992 30.6523 187.493 30.3623 188.032 30.0635C188.577 29.7588 189.116 29.6064 189.649 29.6064C190.393 29.6064 191.102 29.791 191.776 30.1602L191.741 28.2002C191.729 27.5205 191.712 27.0488 191.688 26.7852C191.665 26.5156 191.636 26.3574 191.6 26.3105C191.565 26.2578 191.504 26.2197 191.416 26.1963C191.334 26.1729 190.979 26.1611 190.352 26.1611L190.273 26.082ZM191.776 31.6631C191.413 31.2529 191.009 30.9395 190.563 30.7227C190.124 30.5059 189.681 30.3975 189.236 30.3975C188.744 30.3975 188.284 30.5322 187.856 30.8018C187.434 31.0654 187.13 31.4609 186.942 31.9883C186.755 32.5098 186.661 33.0781 186.661 33.6934C186.661 34.7188 186.919 35.542 187.434 36.1631C187.956 36.7842 188.609 37.0947 189.394 37.0947C189.822 37.0947 190.2 36.998 190.528 36.8047C190.862 36.6055 191.135 36.3389 191.346 36.0049C191.562 35.6709 191.688 35.3369 191.723 35.0029C191.759 34.6689 191.776 34.0566 191.776 33.166V31.6631Z" fill="black"/>
</svg>
