<svg width="558" height="29" viewBox="0 0 558 29" fill="none" xmlns="http://www.w3.org/2000/svg">
<path d="M15.0996 8.2793C13.7285 8.33789 12.0586 8.44336 10.0898 8.5957L10.248 15.9082L9.84375 27L5.92383 27.3164L5.71289 8.75391C4.69336 8.77734 3.75 8.8125 2.88281 8.85938C2.02734 8.90625 1.30078 8.92969 0.703125 8.92969L1.01953 5.11523C5.07422 4.58789 9.61523 4.32422 14.6426 4.32422L15.0996 8.2793ZM17.6133 15.293C17.6133 13.7227 17.7773 12.8145 18.1055 12.5684C18.4336 12.3223 18.8027 12.0762 19.2129 11.8301C19.623 11.5723 20.0742 11.3203 20.5664 11.0742C21.0586 10.8281 21.5684 10.5938 22.0957 10.3711C22.6348 10.1484 23.1621 9.94922 23.6777 9.77344C24.7793 9.39844 25.5996 9.21094 26.1387 9.21094C26.6895 9.21094 27.1348 9.24023 27.4746 9.29883C27.8145 9.3457 28.125 9.42773 28.4062 9.54492C29.0508 9.81445 29.4141 10.207 29.4961 10.7227C29.8828 13.1719 30.0762 16.0898 30.0762 19.4766V20.5137L21.6562 20.6191V22.9043C22.5703 23.127 23.6602 23.332 24.9258 23.5195L27.9492 24.0117C28.7227 24.1289 29.5137 24.2637 30.3223 24.416L29.2852 28.2656C26.0625 27.7617 22.6406 26.9473 19.0195 25.8223C18.1875 25.5527 17.7598 25.0664 17.7363 24.3633L17.6133 15.293ZM26.1211 16.7344C26.1211 15.6328 26.0098 14.4727 25.7871 13.2539C25.3184 13.2539 24.9434 13.2773 24.6621 13.3242C24.3809 13.3711 24.0996 13.4355 23.8184 13.5176C23.5371 13.5996 23.25 13.6934 22.957 13.7988C22.2656 14.0449 21.8086 14.2559 21.5859 14.4316V17.5957L26.1211 17.1035V16.7344ZM34.6113 10.1953L38.3555 9.7207L38.9707 12.3926L42.0645 9.7207H45.5449C45.9551 9.7207 46.3828 9.94922 46.8281 10.4062C47.5078 11.0742 47.8887 11.7188 47.9707 12.3398L50.9941 9.7207H55.2305C55.3828 9.7207 55.6641 9.87891 56.0742 10.1953C56.4961 10.5117 56.7832 10.7754 56.9355 10.9863C57.0996 11.1973 57.1816 11.4375 57.1816 11.707L56.5664 27.0352L52.6465 27.3516L52.5762 13.8691C52.4355 13.8223 52.1719 13.7988 51.7852 13.7988C50.8711 13.7988 50.0684 13.9277 49.377 14.1855L48.1465 14.6426L47.6016 27.0352L43.8223 27.3516L43.752 13.8691C43.6113 13.8223 43.3477 13.7988 42.9609 13.7988C41.9766 13.7988 41.1387 13.9277 40.4473 14.1855L39.252 14.6074L38.7773 26.8945L34.9277 27.1406L34.6113 10.1953ZM63.9668 26.8242C63.6504 26.7891 63.3047 26.5605 62.9297 26.1387C62.3203 25.4941 62.0039 24.8848 61.9805 24.3105L61.6289 9.86133L65.7422 9.42188L66.1641 23.0273C66.5625 23.2266 66.9961 23.3262 67.4648 23.3262C68.1445 23.3262 69.2285 22.9688 70.7168 22.2539L71.1211 9.68555H75.1816L74.918 26.8242L72 27.1758L71.2441 24.3633L67.5703 26.9648L63.9668 26.8242ZM79.6992 1.91602L83.9531 1.10742L84.0234 12.7266L83.918 16.2598L84.5156 16.3828L90.457 8.71875L93.5684 11.127C93.1465 11.7598 92.6836 12.3516 92.1797 12.9023L90.6855 14.5371C90.1699 15.0645 89.666 15.5508 89.1738 15.9961L87.6973 17.2793C87.8496 17.4199 88.0898 17.6602 88.418 18C91.4414 21.2578 93.4688 23.8242 94.5 25.6992L91.0371 28.1602L84.9902 19.0371L83.7773 19.6172L83.4785 26.8594L79.7695 27.1406L79.6992 1.91602ZM108.756 28.2656C103.928 27.7734 100.143 27.041 97.4004 26.0684C96.8965 25.8809 96.5625 24.8027 96.3984 22.834C96.2578 21.0293 96.4102 19.4648 96.8555 18.1406C97.043 17.5898 97.2656 17.2852 97.5234 17.2266C98.625 16.9336 99.7852 16.7227 101.004 16.5938L104.66 16.1895L104.59 13.7109C103.312 13.4648 102.041 13.2715 100.775 13.1309C99.5215 12.9785 98.2734 12.8027 97.0312 12.6035L97.9629 8.75391L100.934 9.19336C103.652 9.5918 105.814 10.0781 107.42 10.6523C108.193 10.9336 108.58 11.502 108.58 12.3574L108.65 21.9902L104.906 22.3594L104.801 19.3535L103.799 19.5469C102.674 19.7344 101.602 19.9688 100.582 20.25C100.453 20.8711 100.389 21.3867 100.389 21.7969C100.389 22.3945 100.412 22.8574 100.459 23.1855C102.111 23.5605 104.66 23.9414 108.105 24.3281L109.547 24.4863L108.756 28.2656ZM113.045 10.1953L116.789 9.7207L117.404 12.3926L120.498 9.7207H124.822C125.045 9.7207 125.355 9.89062 125.754 10.2305C126.422 10.7812 126.756 11.2734 126.756 11.707L126.141 27.0352L122.221 27.3516L122.15 13.7812C122.01 13.7344 121.816 13.7109 121.57 13.7109C121.324 13.7109 121.096 13.7227 120.885 13.7461C120.686 13.7695 120.469 13.8047 120.234 13.8516C119.684 13.9453 119.232 14.0566 118.881 14.1855L117.58 14.6602L117.105 26.8594L113.361 27.1406L113.045 10.1953ZM140.361 26.1387C139.787 26.0215 139.436 25.5117 139.307 24.6094C139.096 23.0859 138.99 21.4688 138.99 19.7578C138.99 16.8867 139.23 14.1914 139.711 11.6719C139.828 11.0625 140.121 10.6758 140.59 10.5117L142.348 10.0898C144.234 9.63281 146.057 9.29297 147.814 9.07031V1.86328L151.893 1.10742L151.998 9.21094L151.629 21.5684L147.92 21.9199L147.779 12.8848C146.361 12.9902 145.031 13.2773 143.789 13.7461C143.449 15.8438 143.279 17.5781 143.279 18.9492C143.279 20.9062 143.326 22.2246 143.42 22.9043C144.885 23.291 146.631 23.6191 148.658 23.8887C150.697 24.1582 152.098 24.3574 152.859 24.4863L151.77 28.2656C147.223 27.5508 144.416 27.082 143.35 26.8594C142.295 26.6367 141.299 26.3965 140.361 26.1387ZM156.48 15.293C156.48 13.7227 156.645 12.8145 156.973 12.5684C157.301 12.3223 157.67 12.0762 158.08 11.8301C158.49 11.5723 158.941 11.3203 159.434 11.0742C159.926 10.8281 160.436 10.5938 160.963 10.3711C161.502 10.1484 162.029 9.94922 162.545 9.77344C163.646 9.39844 164.467 9.21094 165.006 9.21094C165.557 9.21094 166.002 9.24023 166.342 9.29883C166.682 9.3457 166.992 9.42773 167.273 9.54492C167.918 9.81445 168.281 10.207 168.363 10.7227C168.75 13.1719 168.943 16.0898 168.943 19.4766V20.5137L160.523 20.6191V22.9043C161.438 23.127 162.527 23.332 163.793 23.5195L166.816 24.0117C167.59 24.1289 168.381 24.2637 169.189 24.416L168.152 28.2656C164.93 27.7617 161.508 26.9473 157.887 25.8223C157.055 25.5527 156.627 25.0664 156.604 24.3633L156.48 15.293ZM164.988 16.7344C164.988 15.6328 164.877 14.4727 164.654 13.2539C164.186 13.2539 163.811 13.2773 163.529 13.3242C163.248 13.3711 162.967 13.4355 162.686 13.5176C162.404 13.5996 162.117 13.6934 161.824 13.7988C161.133 14.0449 160.676 14.2559 160.453 14.4316V17.5957L164.988 17.1035V16.7344ZM172.74 24.1875C172.74 24.1875 173.994 24.1113 176.502 23.959C177.662 23.8887 178.828 23.7715 180 23.6074L180.123 21.3926L173.953 18.9668C173.59 18.8262 173.314 18.5566 173.127 18.1582C172.939 17.748 172.846 17.4258 172.846 17.1914C172.846 16.957 172.846 16.8105 172.846 16.752C172.857 16.6816 172.875 16.5234 172.898 16.2773L173.285 12.9551C173.402 12.0176 173.877 11.3672 174.709 11.0039C175.225 10.7695 175.875 10.5586 176.66 10.3711C178.266 9.99609 179.391 9.74414 180.035 9.61523L181.74 9.24609C182.232 9.15234 182.672 9.07031 183.059 9L183.867 13.0254L177.012 14.0449L176.73 15.7324L183.217 18.7559C184.002 19.1191 184.336 19.8164 184.219 20.8477L183.744 25.084C183.639 25.9863 182.906 26.5898 181.547 26.8945C180.094 27.293 178.482 27.5859 176.713 27.7734C174.955 27.9727 173.795 28.084 173.232 28.1074L172.74 24.1875ZM199.951 28.2656C195.123 27.7734 191.338 27.041 188.596 26.0684C188.092 25.8809 187.758 24.8027 187.594 22.834C187.453 21.0293 187.605 19.4648 188.051 18.1406C188.238 17.5898 188.461 17.2852 188.719 17.2266C189.82 16.9336 190.98 16.7227 192.199 16.5938L195.855 16.1895L195.785 13.7109C194.508 13.4648 193.236 13.2715 191.971 13.1309C190.717 12.9785 189.469 12.8027 188.227 12.6035L189.158 8.75391L192.129 9.19336C194.848 9.5918 197.01 10.0781 198.615 10.6523C199.389 10.9336 199.775 11.502 199.775 12.3574L199.846 21.9902L196.102 22.3594L195.996 19.3535L194.994 19.5469C193.869 19.7344 192.797 19.9688 191.777 20.25C191.648 20.8711 191.584 21.3867 191.584 21.7969C191.584 22.3945 191.607 22.8574 191.654 23.1855C193.307 23.5605 195.855 23.9414 199.301 24.3281L200.742 24.4863L199.951 28.2656ZM208.846 0.544922C208.975 1.00195 209.039 1.51758 209.039 2.0918C209.039 2.6543 209.021 3.13477 208.986 3.5332C208.951 3.91992 208.91 4.2832 208.863 4.62305C208.746 5.36133 208.611 5.86523 208.459 6.13477L204.416 5.95898C204.615 4.92773 204.715 3.28125 204.715 1.01953L208.846 0.544922ZM208.705 9.4043C208.764 10.6113 208.793 11.625 208.793 12.4453C208.793 13.2656 208.775 14.2266 208.74 15.3281L208.336 27L204.592 27.3164L204.24 9.9668L208.705 9.4043ZM213.557 10.1953L217.301 9.7207L217.916 12.3926L221.01 9.7207H225.334C225.557 9.7207 225.867 9.89062 226.266 10.2305C226.934 10.7812 227.268 11.2734 227.268 11.707L226.652 27.0352L222.732 27.3516L222.662 13.7812C222.521 13.7344 222.328 13.7109 222.082 13.7109C221.836 13.7109 221.607 13.7227 221.396 13.7461C221.197 13.7695 220.98 13.8047 220.746 13.8516C220.195 13.9453 219.744 14.0566 219.393 14.1855L218.092 14.6602L217.617 26.8594L213.873 27.1406L213.557 10.1953ZM239.818 5.53711L244.107 4.71094V10.2305L248.52 9.4043L248.854 13.3945L244.178 13.7461L243.844 23.2559C244.711 23.5254 245.461 23.7363 246.094 23.8887C247.676 24.2637 248.643 24.498 248.994 24.5918L248.062 28.2656C245.461 27.6914 243.182 27.0293 241.225 26.2793C240.428 25.9863 240.029 25.459 240.029 24.6973L239.818 5.53711ZM252.07 15.293C252.07 13.7227 252.234 12.8145 252.562 12.5684C252.891 12.3223 253.26 12.0762 253.67 11.8301C254.08 11.5723 254.531 11.3203 255.023 11.0742C255.516 10.8281 256.025 10.5938 256.553 10.3711C257.092 10.1484 257.619 9.94922 258.135 9.77344C259.236 9.39844 260.057 9.21094 260.596 9.21094C261.146 9.21094 261.592 9.24023 261.932 9.29883C262.271 9.3457 262.582 9.42773 262.863 9.54492C263.508 9.81445 263.871 10.207 263.953 10.7227C264.34 13.1719 264.533 16.0898 264.533 19.4766V20.5137L256.113 20.6191V22.9043C257.027 23.127 258.117 23.332 259.383 23.5195L262.406 24.0117C263.18 24.1289 263.971 24.2637 264.779 24.416L263.742 28.2656C260.52 27.7617 257.098 26.9473 253.477 25.8223C252.645 25.5527 252.217 25.0664 252.193 24.3633L252.07 15.293ZM260.578 16.7344C260.578 15.6328 260.467 14.4727 260.244 13.2539C259.775 13.2539 259.4 13.2773 259.119 13.3242C258.838 13.3711 258.557 13.4355 258.275 13.5176C257.994 13.5996 257.707 13.6934 257.414 13.7988C256.723 14.0449 256.266 14.2559 256.043 14.4316V17.5957L260.578 17.1035V16.7344ZM269.068 13.3594L269.033 10.1074L272.777 9.7207L273.393 12.3926L276.082 9.43945H278.174L279.053 13.5527C279.053 13.5527 278.133 13.752 276.293 14.1504C275.414 14.3379 274.506 14.543 273.568 14.7656L273.322 26.7891L269.35 27.1406L269.068 13.3594ZM281.549 1.91602L285.803 1.10742L285.873 13.7812L285.469 23.6953C285.586 23.707 285.703 23.7129 285.82 23.7129H286.172C287.426 23.7129 288.463 23.5723 289.283 23.291C289.986 20.7246 290.338 18.1172 290.338 15.4688C290.338 14.6484 290.303 14.0039 290.232 13.5352C290.01 13.4648 289.723 13.3945 289.371 13.3242L288.352 13.1484L287.104 12.9551L288 9.03516C290.355 9.41016 291.914 9.7207 292.676 9.9668C293.449 10.2129 293.93 10.4707 294.117 10.7402C294.305 10.998 294.428 11.3203 294.486 11.707C294.58 12.3398 294.627 13.166 294.627 14.1855C294.627 17.3379 294.469 19.7109 294.152 21.3047C293.836 22.8867 293.555 24.0586 293.309 24.8203C293.062 25.582 292.875 26.0625 292.746 26.2617C292.488 26.6953 291.182 27.0352 288.826 27.2812C287.666 27.4102 286.623 27.4746 285.697 27.4746C284.068 27.4746 282.703 27.4336 281.602 27.3516L281.549 1.91602ZM310.693 28.2656C305.865 27.7734 302.08 27.041 299.338 26.0684C298.834 25.8809 298.5 24.8027 298.336 22.834C298.195 21.0293 298.348 19.4648 298.793 18.1406C298.98 17.5898 299.203 17.2852 299.461 17.2266C300.562 16.9336 301.723 16.7227 302.941 16.5938L306.598 16.1895L306.527 13.7109C305.25 13.4648 303.979 13.2715 302.713 13.1309C301.459 12.9785 300.211 12.8027 298.969 12.6035L299.9 8.75391L302.871 9.19336C305.59 9.5918 307.752 10.0781 309.357 10.6523C310.131 10.9336 310.518 11.502 310.518 12.3574L310.588 21.9902L306.844 22.3594L306.738 19.3535L305.736 19.5469C304.611 19.7344 303.539 19.9688 302.52 20.25C302.391 20.8711 302.326 21.3867 302.326 21.7969C302.326 22.3945 302.35 22.8574 302.396 23.1855C304.049 23.5605 306.598 23.9414 310.043 24.3281L311.484 24.4863L310.693 28.2656ZM319.588 0.544922C319.717 1.00195 319.781 1.51758 319.781 2.0918C319.781 2.6543 319.764 3.13477 319.729 3.5332C319.693 3.91992 319.652 4.2832 319.605 4.62305C319.488 5.36133 319.354 5.86523 319.201 6.13477L315.158 5.95898C315.357 4.92773 315.457 3.28125 315.457 1.01953L319.588 0.544922ZM319.447 9.4043C319.506 10.6113 319.535 11.625 319.535 12.4453C319.535 13.2656 319.518 14.2266 319.482 15.3281L319.078 27L315.334 27.3164L314.982 9.9668L319.447 9.4043ZM324.176 1.91602L328.43 1.10742L328.5 12.7266L328.395 16.2598L328.992 16.3828L334.934 8.71875L338.045 11.127C337.623 11.7598 337.16 12.3516 336.656 12.9023L335.162 14.5371C334.646 15.0645 334.143 15.5508 333.65 15.9961L332.174 17.2793C332.326 17.4199 332.566 17.6602 332.895 18C335.918 21.2578 337.945 23.8242 338.977 25.6992L335.514 28.1602L329.467 19.0371L328.254 19.6172L327.955 26.8594L324.246 27.1406L324.176 1.91602ZM350.385 26.1387C349.811 26.0215 349.459 25.5117 349.33 24.6094C349.119 23.0859 349.014 21.4688 349.014 19.7578C349.014 16.8867 349.254 14.1914 349.734 11.6719C349.852 11.0625 350.145 10.6758 350.613 10.5117L352.371 10.0898C354.258 9.63281 356.08 9.29297 357.838 9.07031V1.86328L361.916 1.10742L362.021 9.21094L361.652 21.5684L357.943 21.9199L357.803 12.8848C356.385 12.9902 355.055 13.2773 353.812 13.7461C353.473 15.8438 353.303 17.5781 353.303 18.9492C353.303 20.9062 353.35 22.2246 353.443 22.9043C354.908 23.291 356.654 23.6191 358.682 23.8887C360.721 24.1582 362.121 24.3574 362.883 24.4863L361.793 28.2656C357.246 27.5508 354.439 27.082 353.373 26.8594C352.318 26.6367 351.322 26.3965 350.385 26.1387ZM368.947 26.8242C368.631 26.7891 368.285 26.5605 367.91 26.1387C367.301 25.4941 366.984 24.8848 366.961 24.3105L366.609 9.86133L370.723 9.42188L371.145 23.0273C371.543 23.2266 371.977 23.3262 372.445 23.3262C373.125 23.3262 374.209 22.9688 375.697 22.2539L376.102 9.68555H380.162L379.898 26.8242L376.98 27.1758L376.225 24.3633L372.551 26.9648L368.947 26.8242ZM384.803 10.1953L388.547 9.7207L389.162 12.3926L392.256 9.7207H396.58C396.803 9.7207 397.113 9.89062 397.512 10.2305C398.18 10.7812 398.514 11.2734 398.514 11.707L397.898 27.0352L393.979 27.3516L393.908 13.7812C393.768 13.7344 393.574 13.7109 393.328 13.7109C393.082 13.7109 392.854 13.7227 392.643 13.7461C392.443 13.7695 392.227 13.8047 391.992 13.8516C391.441 13.9453 390.99 14.0566 390.639 14.1855L389.338 14.6602L388.863 26.8594L385.119 27.1406L384.803 10.1953ZM407.795 0.544922C407.924 1.00195 407.988 1.51758 407.988 2.0918C407.988 2.6543 407.971 3.13477 407.936 3.5332C407.9 3.91992 407.859 4.2832 407.812 4.62305C407.695 5.36133 407.561 5.86523 407.408 6.13477L403.365 5.95898C403.564 4.92773 403.664 3.28125 403.664 1.01953L407.795 0.544922ZM407.654 9.4043C407.713 10.6113 407.742 11.625 407.742 12.4453C407.742 13.2656 407.725 14.2266 407.689 15.3281L407.285 27L403.541 27.3164L403.189 9.9668L407.654 9.4043ZM424.283 28.2656C419.455 27.7734 415.67 27.041 412.928 26.0684C412.424 25.8809 412.09 24.8027 411.926 22.834C411.785 21.0293 411.938 19.4648 412.383 18.1406C412.57 17.5898 412.793 17.2852 413.051 17.2266C414.152 16.9336 415.312 16.7227 416.531 16.5938L420.188 16.1895L420.117 13.7109C418.84 13.4648 417.568 13.2715 416.303 13.1309C415.049 12.9785 413.801 12.8027 412.559 12.6035L413.49 8.75391L416.461 9.19336C419.18 9.5918 421.342 10.0781 422.947 10.6523C423.721 10.9336 424.107 11.502 424.107 12.3574L424.178 21.9902L420.434 22.3594L420.328 19.3535L419.326 19.5469C418.201 19.7344 417.129 19.9688 416.109 20.25C415.98 20.8711 415.916 21.3867 415.916 21.7969C415.916 22.3945 415.939 22.8574 415.986 23.1855C417.639 23.5605 420.188 23.9414 423.633 24.3281L425.074 24.4863L424.283 28.2656ZM447.416 11.6719C447.123 9.9375 446.783 8.61914 446.396 7.7168L442.723 8.41992C442.477 9.4043 442.342 10.6055 442.318 12.0234C443.115 12.4922 443.971 12.9609 444.885 13.4297L447.697 14.8359L453.41 17.5078L451.318 21.2695C448.951 20.0859 447.533 19.3711 447.064 19.125L444.41 17.6484C443.988 17.4023 443.602 17.1621 443.25 16.9277C442.945 17.2793 442.67 17.6367 442.424 18L441.844 18.8262C441.715 19.0254 441.609 19.1777 441.527 19.2832C441.586 20.3262 441.814 21.4453 442.213 22.6406C443.479 23.0625 445.482 23.2734 448.225 23.2734C448.869 23.2734 449.537 23.2559 450.229 23.2207L449.965 27.1055C449.086 27.2344 448.207 27.2988 447.328 27.2988C446.461 27.2988 445.582 27.2461 444.691 27.1406C443.812 27.0352 443.004 26.9062 442.266 26.7539C440.824 26.4609 439.863 26.1855 439.383 25.9277C438.914 25.6582 438.592 25.4121 438.416 25.1895C438.24 24.9551 438.059 24.5098 437.871 23.8535C437.426 22.2246 437.203 20.5898 437.203 18.9492C437.203 18.6211 437.426 18.1875 437.871 17.6484C438.75 16.5469 439.67 15.7559 440.631 15.2754V14.8359L439.875 14.3438C438.633 13.5352 438.012 12.9492 438.012 12.5859C438.012 9.96094 438.176 8.19141 438.504 7.27734C438.75 6.59766 439.078 6.15234 439.488 5.94141C441.422 4.74609 443.877 3.9668 446.854 3.60352C447.369 3.60352 447.932 3.80273 448.541 4.20117C449.631 4.91602 450.234 5.43164 450.352 5.74805C450.48 6.06445 450.604 6.42187 450.721 6.82031C450.85 7.20703 450.973 7.61719 451.09 8.05078C451.312 8.91797 451.494 9.76758 451.635 10.5996L447.416 11.6719ZM465.434 1.91602L469.688 1.10742L469.758 12.7266L469.652 16.2598L470.25 16.3828L476.191 8.71875L479.303 11.127C478.881 11.7598 478.418 12.3516 477.914 12.9023L476.42 14.5371C475.904 15.0645 475.4 15.5508 474.908 15.9961L473.432 17.2793C473.584 17.4199 473.824 17.6602 474.152 18C477.176 21.2578 479.203 23.8242 480.234 25.6992L476.771 28.1602L470.725 19.0371L469.512 19.6172L469.213 26.8594L465.504 27.1406L465.434 1.91602ZM482.713 13.3594L482.678 10.1074L486.422 9.7207L487.037 12.3926L489.727 9.43945H491.818L492.697 13.5527C492.697 13.5527 491.777 13.752 489.938 14.1504C489.059 14.3379 488.15 14.543 487.213 14.7656L486.967 26.7891L482.994 27.1406L482.713 13.3594ZM494.719 15.293C494.719 13.7227 494.883 12.8145 495.211 12.5684C495.539 12.3223 495.908 12.0762 496.318 11.8301C496.729 11.5723 497.18 11.3203 497.672 11.0742C498.164 10.8281 498.674 10.5938 499.201 10.3711C499.74 10.1484 500.268 9.94922 500.783 9.77344C501.885 9.39844 502.705 9.21094 503.244 9.21094C503.795 9.21094 504.24 9.24023 504.58 9.29883C504.92 9.3457 505.23 9.42773 505.512 9.54492C506.156 9.81445 506.52 10.207 506.602 10.7227C506.988 13.1719 507.182 16.0898 507.182 19.4766V20.5137L498.762 20.6191V22.9043C499.676 23.127 500.766 23.332 502.031 23.5195L505.055 24.0117C505.828 24.1289 506.619 24.2637 507.428 24.416L506.391 28.2656C503.168 27.7617 499.746 26.9473 496.125 25.8223C495.293 25.5527 494.865 25.0664 494.842 24.3633L494.719 15.293ZM503.227 16.7344C503.227 15.6328 503.115 14.4727 502.893 13.2539C502.424 13.2539 502.049 13.2773 501.768 13.3242C501.486 13.3711 501.205 13.4355 500.924 13.5176C500.643 13.5996 500.355 13.6934 500.062 13.7988C499.371 14.0449 498.914 14.2559 498.691 14.4316V17.5957L503.227 17.1035V16.7344ZM523.494 28.2656C518.666 27.7734 514.881 27.041 512.139 26.0684C511.635 25.8809 511.301 24.8027 511.137 22.834C510.996 21.0293 511.148 19.4648 511.594 18.1406C511.781 17.5898 512.004 17.2852 512.262 17.2266C513.363 16.9336 514.523 16.7227 515.742 16.5938L519.398 16.1895L519.328 13.7109C518.051 13.4648 516.779 13.2715 515.514 13.1309C514.26 12.9785 513.012 12.8027 511.77 12.6035L512.701 8.75391L515.672 9.19336C518.391 9.5918 520.553 10.0781 522.158 10.6523C522.932 10.9336 523.318 11.502 523.318 12.3574L523.389 21.9902L519.645 22.3594L519.539 19.3535L518.537 19.5469C517.412 19.7344 516.34 19.9688 515.32 20.25C515.191 20.8711 515.127 21.3867 515.127 21.7969C515.127 22.3945 515.15 22.8574 515.197 23.1855C516.85 23.5605 519.398 23.9414 522.844 24.3281L524.285 24.4863L523.494 28.2656ZM527.748 5.53711L532.037 4.71094V10.2305L536.449 9.4043L536.783 13.3945L532.107 13.7461L531.773 23.2559C532.641 23.5254 533.391 23.7363 534.023 23.8887C535.605 24.2637 536.572 24.498 536.924 24.5918L535.992 28.2656C533.391 27.6914 531.111 27.0293 529.154 26.2793C528.357 25.9863 527.959 25.459 527.959 24.6973L527.748 5.53711ZM544.939 0.544922C545.068 1.00195 545.133 1.51758 545.133 2.0918C545.133 2.6543 545.115 3.13477 545.08 3.5332C545.045 3.91992 545.004 4.2832 544.957 4.62305C544.84 5.36133 544.705 5.86523 544.553 6.13477L540.51 5.95898C540.709 4.92773 540.809 3.28125 540.809 1.01953L544.939 0.544922ZM544.799 9.4043C544.857 10.6113 544.887 11.625 544.887 12.4453C544.887 13.2656 544.869 14.2266 544.834 15.3281L544.43 27L540.686 27.3164L540.334 9.9668L544.799 9.4043ZM549.527 27.2812C549.469 24.6914 549.41 22.4121 549.352 20.4434C549.305 18.4629 549.264 16.7461 549.229 15.293C549.229 15.293 549.199 14.0625 549.141 11.6016C549.117 10.6055 549.094 9.78516 549.07 9.14062C549.059 8.48438 549.047 7.98047 549.035 7.62891C549.035 7.27734 549.029 7.01953 549.018 6.85547C549.018 6.69141 549.018 6.59766 549.018 6.57422V6.52148C549.018 6.09961 549.158 5.71875 549.439 5.37891C549.721 5.02734 549.996 4.7168 550.266 4.44727C550.535 4.17773 550.84 3.84961 551.18 3.46289L553.342 1.03711L556.137 3.99023L553.307 7.13672L553.482 10.4414L557.121 9.68555L557.508 13.6758L553.482 13.9746L553.271 27L549.527 27.2812Z" fill="black"/>
</svg>
