<svg width="122" height="37" viewBox="0 0 122 37" fill="none" xmlns="http://www.w3.org/2000/svg">
<g filter="url(#filter0_d)">
<path d="M13.244 21.216C12.548 21.216 11.696 21.144 10.688 21C10.808 19.752 10.904 18.096 10.976 16.032C11.048 13.944 11.084 12 11.084 10.2C11.084 8.664 11.036 7.104 10.94 5.52C7.988 5.544 6.152 5.7 5.432 5.988C5.312 5.148 5.252 4.44 5.252 3.864C5.252 3.384 5.312 2.784 5.432 2.064C6.416 2.16 7.736 2.244 9.392 2.316C11.072 2.364 12.656 2.388 14.144 2.388C17.72 2.388 19.928 2.232 20.768 1.92C20.888 2.688 20.948 3.324 20.948 3.828C20.948 4.452 20.888 5.124 20.768 5.844C19.376 5.724 17.552 5.628 15.296 5.556C15.176 8.028 15.116 10.452 15.116 12.828C15.116 17.22 15.308 19.944 15.692 21C15.044 21.144 14.228 21.216 13.244 21.216ZM27.3298 21.396C25.2178 21.396 23.5978 20.772 22.4698 19.524C21.3418 18.252 20.7778 16.452 20.7778 14.124C20.7778 12.54 21.1138 11.136 21.7858 9.912C22.4578 8.664 23.3938 7.692 24.5938 6.996C25.8178 6.3 27.2098 5.952 28.7698 5.952C30.8098 5.952 32.3578 6.6 33.4138 7.896C34.4698 9.192 34.9978 11.112 34.9978 13.656C33.6778 13.968 32.1178 14.244 30.3178 14.484C28.5418 14.7 26.7898 14.82 25.0618 14.844C25.2538 15.9 25.6498 16.68 26.2498 17.184C26.8498 17.664 27.7018 17.904 28.8058 17.904C30.9418 17.904 32.6818 17.448 34.0258 16.536L34.4578 18.192C33.6898 19.152 32.6458 19.932 31.3258 20.532C30.0298 21.108 28.6978 21.396 27.3298 21.396ZM24.9178 13.224C25.9498 13.104 26.9698 12.924 27.9778 12.684C28.9858 12.444 29.8018 12.18 30.4258 11.892C30.3778 10.812 30.0418 9.912 29.4178 9.192C28.7938 8.448 28.0138 8.076 27.0778 8.076C26.4298 8.484 25.9138 9.156 25.5298 10.092C25.1458 11.028 24.9418 12.072 24.9178 13.224ZM41.9402 21.216C40.9322 21.216 40.0202 21.144 39.2042 21C39.3722 18.6 39.4562 16.044 39.4562 13.332C39.4562 12.012 39.4082 11.004 39.3122 10.308C39.2402 9.612 39.1082 9.06 38.9162 8.652C38.7482 8.244 38.4602 7.824 38.0522 7.392C38.5322 6.936 39.0602 6.612 39.6362 6.42C40.2122 6.204 40.7282 6.096 41.1842 6.096C42.5762 6.096 43.3682 6.804 43.5602 8.22C44.2082 7.5 44.9522 6.948 45.7922 6.564C46.6322 6.156 47.5082 5.952 48.4202 5.952C51.2282 5.952 52.6322 7.608 52.6322 10.92L52.5602 13.188L52.4882 15.6C52.4882 18.12 52.7282 19.92 53.2082 21C52.5362 21.144 51.6602 21.216 50.5802 21.216C49.8362 21.216 49.0442 21.144 48.2042 21C48.3722 18.384 48.4562 15.564 48.4562 12.54C48.4562 11.58 48.2762 10.896 47.9162 10.488C47.5562 10.056 46.9802 9.84 46.1882 9.84C45.1562 9.84 44.2922 10.08 43.5962 10.56L43.5602 11.604C43.5122 13.14 43.4882 14.472 43.4882 15.6C43.4882 18.12 43.7282 19.92 44.2082 21C43.5362 21.144 42.7802 21.216 41.9402 21.216ZM61.0067 21.324C59.9507 21.324 59.2067 21.084 58.7747 20.604C58.3427 20.1 58.1267 19.236 58.1267 18.012C58.1267 17.268 58.1507 16.128 58.1987 14.592C58.2467 12.864 58.2707 11.436 58.2707 10.308C58.2707 9.9 58.2467 9.504 58.1987 9.12C57.1907 9.12 56.5187 9.036 56.1827 8.868C55.8467 8.676 55.6787 8.304 55.6787 7.752C57.3347 6.936 58.9787 5.724 60.6107 4.116L62.1947 4.224C62.2907 5.04 62.3507 5.88 62.3747 6.744C63.9827 6.72 65.1587 6.624 65.9027 6.456C65.9027 7.056 65.8547 7.584 65.7587 8.04C65.6627 8.496 65.5067 8.964 65.2907 9.444C64.5947 9.18 63.5987 9.036 62.3027 9.012C62.2307 9.948 62.1947 10.92 62.1947 11.928C62.1947 14.616 62.3387 16.68 62.6267 18.12C63.5387 18.096 64.4627 17.988 65.3987 17.796L65.6147 19.092C65.1347 19.764 64.4627 20.304 63.5987 20.712C62.7587 21.12 61.8947 21.324 61.0067 21.324ZM70.9523 21.396C69.8723 21.396 69.0323 21.084 68.4323 20.46C67.8323 19.836 67.5323 19.02 67.5323 18.012C67.5323 16.5 68.2283 15.324 69.6203 14.484C71.0123 13.644 73.1363 13.116 75.9923 12.9C75.9443 11.796 75.6923 11.016 75.2363 10.56C74.8043 10.08 74.0723 9.84 73.0403 9.84C72.2483 9.84 71.4443 9.96 70.6283 10.2C69.8123 10.44 69.1043 10.764 68.5043 11.172L68.2163 9.516C68.9363 8.46 69.8843 7.608 71.0603 6.96C72.2603 6.288 73.4723 5.952 74.6963 5.952C76.4243 5.952 77.7443 6.372 78.6563 7.212C79.5683 8.028 80.0243 9.216 80.0243 10.776C80.0243 11.64 79.9643 12.612 79.8443 13.692C79.7483 14.844 79.7003 15.696 79.7003 16.248C79.7003 17.136 79.7963 17.844 79.9883 18.372C80.1803 18.876 80.5523 19.428 81.1043 20.028C80.0483 20.796 78.8363 21.252 77.4683 21.396C76.8203 20.94 76.3523 20.328 76.0643 19.56C75.2003 20.136 74.3123 20.592 73.4003 20.928C72.5123 21.24 71.6963 21.396 70.9523 21.396ZM72.7523 19.2C73.7603 19.08 74.7563 18.672 75.7403 17.976V17.688C75.7403 17.016 75.7763 16.38 75.8483 15.78L75.9563 14.448C74.6123 14.568 73.5803 14.868 72.8603 15.348C72.1403 15.828 71.7803 16.476 71.7803 17.292C71.7803 17.652 71.8643 18.012 72.0323 18.372C72.2243 18.732 72.4643 19.008 72.7523 19.2ZM87.8191 21.216C86.8111 21.216 85.8991 21.144 85.0831 21C85.2511 18.6 85.3351 16.044 85.3351 13.332C85.3351 12.012 85.2871 11.004 85.1911 10.308C85.1191 9.612 84.9871 9.06 84.7951 8.652C84.6271 8.244 84.3391 7.824 83.9311 7.392C84.4111 6.936 84.9391 6.612 85.5151 6.42C86.0911 6.204 86.6071 6.096 87.0631 6.096C88.4551 6.096 89.2471 6.804 89.4391 8.22C90.0871 7.5 90.8311 6.948 91.6711 6.564C92.5111 6.156 93.3871 5.952 94.2991 5.952C97.1071 5.952 98.5111 7.608 98.5111 10.92L98.4391 13.188L98.3671 15.6C98.3671 18.12 98.6071 19.92 99.0871 21C98.4151 21.144 97.5391 21.216 96.4591 21.216C95.7151 21.216 94.9231 21.144 94.0831 21C94.2511 18.384 94.3351 15.564 94.3351 12.54C94.3351 11.58 94.1551 10.896 93.7951 10.488C93.4351 10.056 92.8591 9.84 92.0671 9.84C91.0351 9.84 90.1711 10.08 89.4751 10.56L89.4391 11.604C89.3911 13.14 89.3671 14.472 89.3671 15.6C89.3671 18.12 89.6071 19.92 90.0871 21C89.4151 21.144 88.6591 21.216 87.8191 21.216ZM108.146 27.48C106.802 27.48 105.578 27.348 104.474 27.084C103.394 26.82 102.494 26.436 101.774 25.932C101.774 25.14 101.918 24.336 102.206 23.52C102.518 22.728 102.95 22.008 103.502 21.36C102.686 20.904 102.278 20.196 102.278 19.236C102.278 18.516 102.506 17.868 102.962 17.292C103.418 16.716 104.054 16.248 104.87 15.888C104.126 15.456 103.55 14.88 103.142 14.16C102.734 13.416 102.53 12.576 102.53 11.64C102.53 10.536 102.806 9.552 103.358 8.688C103.934 7.824 104.726 7.152 105.734 6.672C106.766 6.192 107.93 5.952 109.226 5.952C110.546 5.952 111.65 6.204 112.538 6.708C113.594 6.396 114.722 5.712 115.922 4.656C116.186 5.16 116.402 5.748 116.57 6.42C116.762 7.068 116.858 7.596 116.858 8.004C116.138 8.364 115.358 8.58 114.518 8.652C114.878 9.324 115.058 10.116 115.058 11.028C115.058 12.132 114.758 13.116 114.158 13.98C113.582 14.844 112.778 15.516 111.746 15.996C110.714 16.476 109.538 16.716 108.218 16.716C107.21 16.716 106.394 16.86 105.77 17.148C105.17 17.412 104.87 17.772 104.87 18.228L111.638 18.588C113.102 18.708 114.206 19.092 114.95 19.74C115.718 20.364 116.102 21.24 116.102 22.368C116.102 23.328 115.754 24.192 115.058 24.96C114.362 25.752 113.402 26.364 112.178 26.796C110.978 27.252 109.634 27.48 108.146 27.48ZM108.758 14.736C109.574 14.736 110.21 14.508 110.666 14.052C111.122 13.596 111.35 12.96 111.35 12.144C111.35 11.4 111.146 10.776 110.738 10.272C110.33 9.744 109.766 9.372 109.046 9.156C108.23 9.156 107.558 9.432 107.03 9.984C106.502 10.536 106.238 11.232 106.238 12.072C106.238 12.888 106.466 13.536 106.922 14.016C107.378 14.496 107.99 14.736 108.758 14.736ZM109.046 24.888C110.174 24.888 111.086 24.732 111.782 24.42C112.478 24.108 112.826 23.712 112.826 23.232C112.826 22.824 112.658 22.536 112.322 22.368C111.986 22.224 111.398 22.128 110.558 22.08L105.41 21.792C105.17 22.296 105.002 22.776 104.906 23.232C105.818 24.336 107.198 24.888 109.046 24.888Z" fill="#4BA3F3"/>
<path d="M10.688 21L9.69259 20.9043L9.60119 21.8549L10.5466 21.9899L10.688 21ZM10.976 16.032L11.9754 16.0669L11.9754 16.0665L10.976 16.032ZM10.94 5.52L11.9382 5.4595L11.8808 4.51232L10.9319 4.52003L10.94 5.52ZM5.432 5.988L4.44205 6.12942L4.622 7.38903L5.80339 6.91648L5.432 5.988ZM5.432 2.064L5.5291 1.06872L4.59921 0.978003L4.44561 1.8996L5.432 2.064ZM9.392 2.316L9.34856 3.31505L9.356 3.31538L9.36344 3.31559L9.392 2.316ZM20.768 1.92L21.756 1.76562L21.5671 0.556446L20.4198 0.982574L20.768 1.92ZM20.768 5.844L20.6821 6.8403L21.6025 6.91965L21.7544 6.0084L20.768 5.844ZM15.296 5.556L15.3279 4.55651L14.3449 4.52513L14.2972 5.50751L15.296 5.556ZM15.692 21L15.9089 21.9762L17.0212 21.729L16.6318 20.6583L15.692 21ZM13.244 20.216C12.6115 20.216 11.8099 20.1501 10.8294 20.0101L10.5466 21.9899C11.5821 22.1379 12.4845 22.216 13.244 22.216V20.216ZM11.6834 21.0957C11.8062 19.8188 11.9031 18.14 11.9754 16.0669L9.97661 15.9971C9.90493 18.052 9.80981 19.6852 9.69259 20.9043L11.6834 21.0957ZM11.9754 16.0665C12.0477 13.9688 12.084 12.0131 12.084 10.2H10.084C10.084 11.9869 10.0483 13.9192 9.97659 15.9975L11.9754 16.0665ZM12.084 10.2C12.084 8.64317 12.0353 7.06298 11.9382 5.4595L9.94183 5.58049C10.0367 7.14502 10.084 8.68483 10.084 10.2H12.084ZM10.9319 4.52003C9.44353 4.53213 8.21822 4.57754 7.26434 4.65859C6.34591 4.73663 5.57272 4.85468 5.06061 5.05952L5.80339 6.91648C6.01128 6.83332 6.51609 6.72937 7.43366 6.65141C8.31578 6.57646 9.48447 6.53187 10.9481 6.51997L10.9319 4.52003ZM6.42195 5.84658C6.30583 5.03371 6.252 4.37625 6.252 3.864H4.252C4.252 4.50375 4.31817 5.26229 4.44205 6.12942L6.42195 5.84658ZM6.252 3.864C6.252 3.45959 6.3033 2.91895 6.41839 2.2284L4.44561 1.8996C4.3207 2.64904 4.252 3.30841 4.252 3.864H6.252ZM5.3349 3.05927C6.34464 3.15779 7.68485 3.24272 9.34856 3.31505L9.43544 1.31694C7.78715 1.24528 6.48736 1.16221 5.5291 1.06872L5.3349 3.05927ZM9.36344 3.31559C11.0518 3.36383 12.6454 3.388 14.144 3.388V1.388C12.6666 1.388 11.0922 1.36417 9.42056 1.31641L9.36344 3.31559ZM14.144 3.388C15.9431 3.388 17.4153 3.34886 18.5525 3.26851C19.6526 3.19078 20.5465 3.06901 21.1162 2.85742L20.4198 0.982574C20.1495 1.08299 19.5194 1.19521 18.4115 1.27349C17.3407 1.34914 15.9209 1.388 14.144 1.388V3.388ZM19.78 2.07438C19.8958 2.81552 19.948 3.39548 19.948 3.828H21.948C21.948 3.25252 21.8802 2.56048 21.756 1.76562L19.78 2.07438ZM19.948 3.828C19.948 4.38859 19.894 5.00505 19.7816 5.6796L21.7544 6.0084C21.882 5.24295 21.948 4.5154 21.948 3.828H19.948ZM20.8539 4.84769C19.4365 4.7255 17.5924 4.62878 15.3279 4.55651L15.2641 6.55549C17.5116 6.62722 19.3155 6.7225 20.6821 6.8403L20.8539 4.84769ZM14.2972 5.50751C14.1764 7.995 14.116 10.4352 14.116 12.828H16.116C16.116 10.4688 16.1756 8.061 16.2948 5.60449L14.2972 5.50751ZM14.116 12.828C14.116 15.0352 14.1641 16.8403 14.2625 18.2353C14.3583 19.5954 14.5072 20.668 14.7522 21.3417L16.6318 20.6583C16.4928 20.276 16.3537 19.4586 16.2575 18.0947C16.1639 16.7657 16.116 15.0128 16.116 12.828H14.116ZM15.4751 20.0238C14.9235 20.1464 14.1864 20.216 13.244 20.216V22.216C14.2696 22.216 15.1645 22.1416 15.9089 21.9762L15.4751 20.0238ZM22.4698 19.524L21.7216 20.1875L21.728 20.1945L22.4698 19.524ZM21.7858 9.912L22.6625 10.3933L22.6663 10.3861L21.7858 9.912ZM24.5938 6.996L24.0995 6.12668L24.0921 6.13097L24.5938 6.996ZM33.4138 7.896L32.6386 8.52767L32.6386 8.52767L33.4138 7.896ZM34.9978 13.656L35.2279 14.6292L35.9978 14.4472V13.656H34.9978ZM30.3178 14.484L30.4386 15.4768L30.45 15.4752L30.3178 14.484ZM25.0618 14.844L25.048 13.8441L23.8666 13.8605L24.078 15.0229L25.0618 14.844ZM26.2498 17.184L25.6067 17.9497L25.6158 17.9574L25.6251 17.9649L26.2498 17.184ZM34.0258 16.536L34.9935 16.2836L34.636 14.9134L33.4643 15.7085L34.0258 16.536ZM34.4578 18.192L35.2387 18.8167L35.5521 18.425L35.4255 17.9396L34.4578 18.192ZM31.3258 20.532L31.732 21.4458L31.7396 21.4424L31.3258 20.532ZM24.9178 13.224L23.9181 13.2032L23.8942 14.3498L25.0333 14.2173L24.9178 13.224ZM27.9778 12.684L28.2095 13.6568L28.2095 13.6568L27.9778 12.684ZM30.4258 11.892L30.8449 12.8L31.4547 12.5185L31.4249 11.8476L30.4258 11.892ZM29.4178 9.192L28.6517 9.83461L28.6569 9.84081L28.6622 9.84693L29.4178 9.192ZM27.0778 8.076V7.076H26.7892L26.545 7.22977L27.0778 8.076ZM27.3298 20.396C25.4231 20.396 24.1038 19.8404 23.2117 18.8535L21.728 20.1945C23.0919 21.7036 25.0125 22.396 27.3298 22.396V20.396ZM23.218 18.8605C22.3038 17.8296 21.7778 16.2983 21.7778 14.124H19.7778C19.7778 16.6057 20.3799 18.6744 21.7217 20.1875L23.218 18.8605ZM21.7778 14.124C21.7778 12.6853 22.0818 11.4509 22.6624 10.3933L20.9093 9.43074C20.1459 10.8211 19.7778 12.3947 19.7778 14.124H21.7778ZM22.6663 10.3861C23.2527 9.29719 24.0592 8.46214 25.0956 7.86103L24.0921 6.13097C22.7285 6.92186 21.663 8.03081 20.9054 9.4379L22.6663 10.3861ZM25.0881 7.86529C26.1457 7.26395 27.364 6.952 28.7698 6.952V4.952C27.0557 4.952 25.49 5.33605 24.0995 6.12671L25.0881 7.86529ZM28.7698 6.952C30.5822 6.952 31.8142 7.51595 32.6386 8.52767L34.1891 7.26433C32.9014 5.68405 31.0375 4.952 28.7698 4.952V6.952ZM32.6386 8.52767C33.4904 9.57302 33.9978 11.2275 33.9978 13.656H35.9978C35.9978 10.9965 35.4493 8.81098 34.1891 7.26433L32.6386 8.52767ZM34.7678 12.6828C33.4888 12.9851 31.963 13.2558 30.1857 13.4928L30.45 15.4752C32.2727 15.2322 33.8669 14.9509 35.2279 14.6292L34.7678 12.6828ZM30.1971 13.4913C28.4553 13.7032 26.739 13.8206 25.048 13.8441L25.0757 15.8439C26.8407 15.8194 28.6284 15.6968 30.4386 15.4767L30.1971 13.4913ZM24.078 15.0229C24.2963 16.2238 24.7719 17.2486 25.6067 17.9497L26.893 16.4183C26.5277 16.1114 26.2114 15.5762 26.0457 14.6651L24.078 15.0229ZM25.6251 17.9649C26.4655 18.6372 27.5714 18.904 28.8058 18.904V16.904C27.8323 16.904 27.2342 16.6908 26.8745 16.4031L25.6251 17.9649ZM28.8058 18.904C31.0798 18.904 33.0327 18.4184 34.5873 17.3635L33.4643 15.7085C32.331 16.4776 30.8039 16.904 28.8058 16.904V18.904ZM33.0582 16.7884L33.4902 18.4444L35.4255 17.9396L34.9935 16.2836L33.0582 16.7884ZM33.677 17.5673C33.0233 18.3844 32.1145 19.0751 30.912 19.6216L31.7396 21.4424C33.1772 20.7889 34.3564 19.9196 35.2387 18.8167L33.677 17.5673ZM30.9197 19.6182C29.7468 20.1395 28.5528 20.396 27.3298 20.396V22.396C28.8429 22.396 30.3129 22.0765 31.732 21.4458L30.9197 19.6182ZM25.0333 14.2173C26.1043 14.0928 27.1631 13.9059 28.2095 13.6568L27.7462 11.7112C26.7766 11.9421 25.7954 12.1152 24.8023 12.2307L25.0333 14.2173ZM28.2095 13.6568C29.253 13.4083 30.1387 13.1259 30.8449 12.8L30.0068 10.984C29.465 11.2341 28.7187 11.4796 27.7462 11.7112L28.2095 13.6568ZM31.4249 11.8476C31.3683 10.5744 30.9648 9.45002 30.1735 8.53707L28.6622 9.84693C29.1189 10.374 29.3874 11.0496 29.4268 11.9364L31.4249 11.8476ZM30.184 8.54939C29.3782 7.58859 28.322 7.076 27.0778 7.076V9.076C27.7057 9.076 28.2095 9.3074 28.6517 9.83461L30.184 8.54939ZM26.545 7.22977C25.6721 7.77942 25.0426 8.64511 24.6047 9.71244L26.455 10.4716C26.7851 9.66689 27.1876 9.18858 27.6107 8.92223L26.545 7.22977ZM24.6047 9.71244C24.1679 10.7771 23.9443 11.945 23.9181 13.2032L25.9176 13.2448C25.9394 12.199 26.1238 11.2789 26.455 10.4716L24.6047 9.71244ZM39.2042 21L38.2067 20.9302L38.1438 21.8283L39.0304 21.9848L39.2042 21ZM39.3122 10.308L38.3175 10.4109L38.3193 10.4278L38.3216 10.4446L39.3122 10.308ZM38.9162 8.652L37.9915 9.03275L38.0009 9.05552L38.0114 9.0778L38.9162 8.652ZM38.0522 7.392L37.3635 6.667L36.6406 7.35374L37.3252 8.07862L38.0522 7.392ZM39.6362 6.42L39.9524 7.36868L39.97 7.36283L39.9873 7.35633L39.6362 6.42ZM43.5602 8.22L42.5693 8.35436L42.8594 10.4936L44.3035 8.88896L43.5602 8.22ZM45.7922 6.564L46.208 7.47347L46.2186 7.46861L46.2291 7.46351L45.7922 6.564ZM52.6322 10.92L53.6317 10.9517L53.6322 10.9359V10.92H52.6322ZM52.5602 13.188L51.5607 13.1563L51.5607 13.1582L52.5602 13.188ZM52.4882 15.6L51.4887 15.5702L51.4882 15.5851V15.6H52.4882ZM53.2082 21L53.4177 21.9778L54.6224 21.7197L54.122 20.5939L53.2082 21ZM48.2042 21L47.2063 20.9359L47.1486 21.8336L48.0353 21.9856L48.2042 21ZM47.9162 10.488L47.148 11.1282L47.157 11.139L47.1664 11.1496L47.9162 10.488ZM43.5962 10.56L43.0285 9.73679L42.6142 10.0225L42.5968 10.5255L43.5962 10.56ZM43.5602 11.604L42.5608 11.5695L42.5607 11.5728L43.5602 11.604ZM44.2082 21L44.4177 21.9778L45.6224 21.7197L45.122 20.5939L44.2082 21ZM41.9402 20.216C40.9785 20.216 40.1259 20.1472 39.378 20.0152L39.0304 21.9848C39.9145 22.1408 40.886 22.216 41.9402 22.216V20.216ZM40.2018 21.0698C40.3716 18.6439 40.4562 16.0644 40.4562 13.332H38.4562C38.4562 16.0236 38.3728 18.5561 38.2067 20.9302L40.2018 21.0698ZM40.4562 13.332C40.4562 11.9986 40.4083 10.9361 40.3028 10.1714L38.3216 10.4446C38.4081 11.0719 38.4562 12.0254 38.4562 13.332H40.4562ZM40.3069 10.2051C40.229 9.45193 40.0798 8.7761 39.821 8.2262L38.0114 9.0778C38.1366 9.3439 38.2514 9.77207 38.3175 10.4109L40.3069 10.2051ZM39.8409 8.27125C39.6132 7.71829 39.2439 7.19742 38.7792 6.70538L37.3252 8.07862C37.6765 8.45058 37.8832 8.76971 37.9915 9.03275L39.8409 8.27125ZM38.741 8.117C39.1244 7.75271 39.5277 7.51026 39.9524 7.36868L39.32 5.47132C38.5927 5.71374 37.94 6.11929 37.3635 6.667L38.741 8.117ZM39.9873 7.35633C40.4878 7.16866 40.8819 7.096 41.1842 7.096V5.096C40.5745 5.096 39.9367 5.23933 39.2851 5.48367L39.9873 7.35633ZM41.1842 7.096C41.7123 7.096 41.9939 7.22786 42.1558 7.37254C42.3211 7.52037 42.4942 7.80029 42.5693 8.35436L44.5512 8.08564C44.4343 7.22371 44.1153 6.44163 43.4887 5.88146C42.8585 5.31814 42.0481 5.096 41.1842 5.096V7.096ZM44.3035 8.88896C44.8645 8.26565 45.4985 7.7978 46.208 7.47347L45.3765 5.65452C44.4059 6.0982 43.5519 6.73435 42.8169 7.55103L44.3035 8.88896ZM46.2291 7.46351C46.9363 7.12 47.6633 6.952 48.4202 6.952V4.952C47.3532 4.952 46.3281 5.192 45.3553 5.66449L46.2291 7.46351ZM48.4202 6.952C49.6229 6.952 50.3571 7.29885 50.8165 7.84068C51.3026 8.41413 51.6322 9.38152 51.6322 10.92H53.6322C53.6322 9.14648 53.2598 7.62987 52.342 6.54731C51.3974 5.43315 50.0256 4.952 48.4202 4.952V6.952ZM51.6327 10.8883L51.5607 13.1563L53.5597 13.2197L53.6317 10.9517L51.6327 10.8883ZM51.5607 13.1582L51.4887 15.5702L53.4878 15.6298L53.5598 13.2178L51.5607 13.1582ZM51.4882 15.6C51.4882 18.1369 51.7229 20.1202 52.2944 21.4061L54.122 20.5939C53.7336 19.7198 53.4882 18.1031 53.4882 15.6H51.4882ZM52.9987 20.0222C52.423 20.1456 51.6249 20.216 50.5802 20.216V22.216C51.6956 22.216 52.6495 22.1424 53.4177 21.9778L52.9987 20.0222ZM50.5802 20.216C49.9003 20.216 49.1652 20.1502 48.3732 20.0144L48.0353 21.9856C48.9232 22.1378 49.7721 22.216 50.5802 22.216V20.216ZM49.2022 21.0641C49.3717 18.4238 49.4562 15.5822 49.4562 12.54H47.4562C47.4562 15.5458 47.3727 18.3442 47.2063 20.9359L49.2022 21.0641ZM49.4562 12.54C49.4562 11.505 49.2718 10.5129 48.6661 9.82638L47.1664 11.1496C47.2806 11.2791 47.4562 11.655 47.4562 12.54H49.4562ZM48.6844 9.84781C48.0661 9.10585 47.1506 8.84 46.1882 8.84V10.84C46.8099 10.84 47.0463 11.0061 47.148 11.1282L48.6844 9.84781ZM46.1882 8.84C44.9988 8.84 43.9252 9.11836 43.0285 9.73679L44.164 11.3832C44.6592 11.0416 45.3137 10.84 46.1882 10.84V8.84ZM42.5968 10.5255L42.5608 11.5695L44.5596 11.6385L44.5956 10.5945L42.5968 10.5255ZM42.5607 11.5728C42.5125 13.1157 42.4882 14.4586 42.4882 15.6H44.4882C44.4882 14.4854 44.5119 13.1643 44.5597 11.6352L42.5607 11.5728ZM42.4882 15.6C42.4882 18.1369 42.7229 20.1202 43.2944 21.4061L45.122 20.5939C44.7336 19.7198 44.4882 18.1031 44.4882 15.6H42.4882ZM43.9987 20.0222C43.4088 20.1486 42.7247 20.216 41.9402 20.216V22.216C42.8357 22.216 43.6637 22.1394 44.4177 21.9778L43.9987 20.0222ZM58.7747 20.604L58.0155 21.2548L58.0233 21.264L58.0314 21.273L58.7747 20.604ZM58.1987 14.592L59.1982 14.6232L59.1983 14.6198L58.1987 14.592ZM58.1987 9.12L59.191 8.99597L59.0815 8.12H58.1987V9.12ZM56.1827 8.868L55.6866 9.73624L55.7107 9.75001L55.7355 9.76243L56.1827 8.868ZM55.6787 7.752L55.2367 6.85499L54.6787 7.12994V7.752H55.6787ZM60.6107 4.116L60.6787 3.11832L60.2296 3.08769L59.9089 3.40367L60.6107 4.116ZM62.1947 4.224L63.1879 4.10716L63.0909 3.28278L62.2627 3.22632L62.1947 4.224ZM62.3747 6.744L61.3751 6.77177L61.4025 7.75862L62.3896 7.74389L62.3747 6.744ZM65.9027 6.456H66.9027V5.20502L65.6825 5.48056L65.9027 6.456ZM65.2907 9.444L64.9361 10.379L65.8163 10.7129L66.2026 9.85436L65.2907 9.444ZM62.3027 9.012L62.3212 8.01217L61.378 7.9947L61.3057 8.9353L62.3027 9.012ZM62.6267 18.12L61.6461 18.3161L61.8113 19.1418L62.653 19.1197L62.6267 18.12ZM65.3987 17.796L66.3851 17.6316L66.2145 16.6078L65.1978 16.8164L65.3987 17.796ZM65.6147 19.092L66.4285 19.6732L66.6692 19.3362L66.6011 18.9276L65.6147 19.092ZM63.5987 20.712L63.1717 19.8077L63.1618 19.8125L63.5987 20.712ZM61.0067 20.324C60.0597 20.324 59.6687 20.1024 59.518 19.935L58.0314 21.273C58.7448 22.0656 59.8418 22.324 61.0067 22.324V20.324ZM59.534 19.9532C59.3433 19.7308 59.1267 19.1754 59.1267 18.012H57.1267C57.1267 19.2966 57.3421 20.4692 58.0155 21.2548L59.534 19.9532ZM59.1267 18.012C59.1267 17.2844 59.1503 16.1573 59.1982 14.6232L57.1992 14.5608C57.1511 16.0987 57.1267 17.2516 57.1267 18.012H59.1267ZM59.1983 14.6198C59.2465 12.8868 59.2707 11.4487 59.2707 10.308H57.2707C57.2707 11.4233 57.247 12.8412 57.1991 14.5642L59.1983 14.6198ZM59.2707 10.308C59.2707 9.86076 59.2444 9.42326 59.191 8.99597L57.2064 9.24403C57.249 9.58474 57.2707 9.93924 57.2707 10.308H59.2707ZM58.1987 8.12C57.7183 8.12 57.343 8.09975 57.0628 8.06472C56.9234 8.0473 56.8176 8.02744 56.7403 8.00811C56.6602 7.9881 56.6292 7.97321 56.6299 7.97357L55.7355 9.76243C56.0557 9.92253 56.4414 10.0026 56.8147 10.0493C57.2064 10.0982 57.6712 10.12 58.1987 10.12V8.12ZM56.6789 7.99976C56.6862 8.00393 56.6974 8.01225 56.7079 8.02392C56.7179 8.03518 56.7195 8.0409 56.7161 8.03341C56.7072 8.01384 56.6787 7.93333 56.6787 7.752H54.6787C54.6787 8.49275 54.9151 9.2954 55.6866 9.73624L56.6789 7.99976ZM56.1207 8.64901C57.8926 7.77593 59.622 6.49404 61.3126 4.82832L59.9089 3.40367C58.3354 4.95396 56.7769 6.09607 55.2367 6.85499L56.1207 8.64901ZM60.5427 5.11368L62.1267 5.22168L62.2627 3.22632L60.6787 3.11832L60.5427 5.11368ZM61.2016 4.34084C61.2939 5.12578 61.3519 5.93601 61.3751 6.77177L63.3743 6.71623C63.3495 5.82399 63.2875 4.95422 63.1879 4.10716L61.2016 4.34084ZM62.3896 7.74389C64.0082 7.71973 65.2718 7.62365 66.123 7.43144L65.6825 5.48056C65.0457 5.62435 63.9572 5.72027 62.3598 5.74411L62.3896 7.74389ZM64.9027 6.456C64.9027 7.00542 64.8585 7.46182 64.7802 7.83399L66.7373 8.24601C66.8509 7.70618 66.9027 7.10658 66.9027 6.456H64.9027ZM64.7802 7.83399C64.7007 8.21131 64.569 8.61087 64.3788 9.03364L66.2026 9.85436C66.4444 9.31712 66.6247 8.78069 66.7373 8.24601L64.7802 7.83399ZM65.6454 8.509C64.7905 8.18475 63.6601 8.03696 62.3212 8.01217L62.2842 10.0118C63.5373 10.035 64.3989 10.1752 64.9361 10.379L65.6454 8.509ZM61.3057 8.9353C61.2316 9.89861 61.1947 10.8963 61.1947 11.928H63.1947C63.1947 10.9437 63.2299 9.99739 63.2998 9.0887L61.3057 8.9353ZM61.1947 11.928C61.1947 14.6372 61.3387 16.779 61.6461 18.3161L63.6073 17.9239C63.3387 16.581 63.1947 14.5948 63.1947 11.928H61.1947ZM62.653 19.1197C63.6264 19.094 64.6089 18.9788 65.5997 18.7756L65.1978 16.8164C64.3166 16.9972 63.451 17.098 62.6004 17.1203L62.653 19.1197ZM64.4123 17.9604L64.6283 19.2564L66.6011 18.9276L66.3851 17.6316L64.4123 17.9604ZM64.801 18.5108C64.4348 19.0234 63.9058 19.4611 63.1717 19.8078L64.0257 21.6162C65.0196 21.1469 65.8346 20.5046 66.4285 19.6732L64.801 18.5108ZM63.1618 19.8125C62.4508 20.1579 61.7355 20.324 61.0067 20.324V22.324C62.0539 22.324 63.0667 22.0821 64.0356 21.6115L63.1618 19.8125ZM68.4323 20.46L67.7114 21.1531L68.4323 20.46ZM69.6203 14.484L69.1036 13.6278L69.6203 14.484ZM75.9923 12.9L76.0677 13.8972L77.0334 13.8241L76.9913 12.8566L75.9923 12.9ZM75.2363 10.56L74.493 11.229L74.5106 11.2485L74.5292 11.2671L75.2363 10.56ZM68.5043 11.172L67.5191 11.3433L67.7847 12.8706L69.0666 11.9989L68.5043 11.172ZM68.2163 9.516L67.3901 8.95266L67.1616 9.28776L67.2311 9.68734L68.2163 9.516ZM71.0603 6.96L71.5429 7.83586L71.5489 7.83251L71.0603 6.96ZM78.6563 7.212L77.9788 7.94754L77.9841 7.95243L77.9895 7.95724L78.6563 7.212ZM79.8443 13.692L78.8504 13.5816L78.8489 13.5952L78.8477 13.609L79.8443 13.692ZM79.9883 18.372L79.0485 18.7137L79.0511 18.7209L79.0538 18.728L79.9883 18.372ZM81.1043 20.028L81.6925 20.8367L82.5999 20.1767L81.8402 19.3509L81.1043 20.028ZM77.4683 21.396L76.8928 22.2138L77.1997 22.4298L77.573 22.3905L77.4683 21.396ZM76.0643 19.56L77.0006 19.2089L76.5581 18.0289L75.5096 18.7279L76.0643 19.56ZM73.4003 20.928L73.7318 21.8715L73.7389 21.869L73.746 21.8663L73.4003 20.928ZM72.7523 19.2L72.1976 20.0321L72.5044 20.2366L72.8705 20.193L72.7523 19.2ZM75.7403 17.976L76.3177 18.7924L76.7403 18.4935V17.976H75.7403ZM75.8483 15.78L76.8412 15.8991L76.8435 15.88L76.845 15.8608L75.8483 15.78ZM75.9563 14.448L76.953 14.5288L77.0489 13.3465L75.8673 13.452L75.9563 14.448ZM72.8603 15.348L72.3056 14.5159L72.3056 14.5159L72.8603 15.348ZM72.0323 18.372L71.1261 18.7949L71.1374 18.8191L71.1499 18.8426L72.0323 18.372ZM70.9523 20.396C70.0727 20.396 69.5201 20.1486 69.1531 19.7669L67.7114 21.1531C68.5445 22.0194 69.6719 22.396 70.9523 22.396V20.396ZM69.1531 19.7669C68.7615 19.3597 68.5323 18.8072 68.5323 18.012H66.5323C66.5323 19.2328 66.903 20.3123 67.7114 21.1531L69.1531 19.7669ZM68.5323 18.012C68.5323 16.8811 69.0176 16.0157 70.1369 15.3402L69.1036 13.6278C67.439 14.6323 66.5323 16.1189 66.5323 18.012H68.5323ZM70.1369 15.3402C71.3286 14.6211 73.2659 14.1091 76.0677 13.8972L75.9169 11.9028C73.0067 12.1229 70.6959 12.6669 69.1036 13.6278L70.1369 15.3402ZM76.9913 12.8566C76.9396 11.6671 76.6657 10.5752 75.9434 9.85289L74.5292 11.2671C74.7188 11.4568 74.9489 11.9249 74.9932 12.9434L76.9913 12.8566ZM75.9796 9.89103C75.2698 9.10238 74.1898 8.84 73.0403 8.84V10.84C73.9547 10.84 74.3388 11.0576 74.493 11.229L75.9796 9.89103ZM73.0403 8.84C72.146 8.84 71.247 8.97567 70.3461 9.24063L70.9104 11.1594C71.6416 10.9443 72.3506 10.84 73.0403 10.84V8.84ZM70.3461 9.24063C69.4472 9.50503 68.6412 9.86958 67.942 10.3451L69.0666 11.9989C69.5673 11.6584 70.1774 11.375 70.9104 11.1594L70.3461 9.24063ZM69.4895 11.0007L69.2015 9.34466L67.2311 9.68734L67.5191 11.3433L69.4895 11.0007ZM69.0425 10.0793C69.6696 9.15961 70.4972 8.41203 71.5429 7.83584L70.5777 6.08416C69.2714 6.80397 68.203 7.76039 67.3901 8.95266L69.0425 10.0793ZM71.5489 7.83251C72.6184 7.23358 73.6637 6.952 74.6963 6.952V4.952C73.2809 4.952 71.9022 5.34242 70.5717 6.08749L71.5489 7.83251ZM74.6963 6.952C76.2725 6.952 77.3133 7.33462 77.9788 7.94754L79.3338 6.47645C78.1752 5.40938 76.5761 4.952 74.6963 4.952V6.952ZM77.9895 7.95724C78.6343 8.53419 79.0243 9.41699 79.0243 10.776H81.0243C81.0243 9.01501 80.5023 7.52181 79.3231 6.46676L77.9895 7.95724ZM79.0243 10.776C79.0243 11.5951 78.9673 12.5294 78.8504 13.5816L80.8382 13.8024C80.9613 12.6946 81.0243 11.6849 81.0243 10.776H79.0243ZM78.8477 13.609C78.7514 14.7656 78.7003 15.6521 78.7003 16.248H80.7003C80.7003 15.7399 80.7452 14.9224 80.8408 13.775L78.8477 13.609ZM78.7003 16.248C78.7003 17.1929 78.8004 18.0315 79.0485 18.7137L80.9281 18.0303C80.7922 17.6565 80.7003 17.0791 80.7003 16.248H78.7003ZM79.0538 18.728C79.308 19.3952 79.77 20.0547 80.3684 20.7051L81.8402 19.3509C81.3346 18.8013 81.0526 18.3568 80.9228 18.016L79.0538 18.728ZM80.5161 19.2193C79.6099 19.8784 78.5666 20.2749 77.3636 20.4015L77.573 22.3905C79.1059 22.2291 80.4867 21.7136 81.6925 20.8367L80.5161 19.2193ZM78.0438 20.5782C77.5663 20.2422 77.2206 19.7956 77.0006 19.2089L75.128 19.9111C75.4839 20.8604 76.0743 21.6378 76.8928 22.2138L78.0438 20.5782ZM75.5096 18.7279C74.7064 19.2634 73.8881 19.6826 73.0546 19.9897L73.746 21.8663C74.7364 21.5014 75.6942 21.0086 76.619 20.3921L75.5096 18.7279ZM73.0688 19.9845C72.2603 20.2686 71.558 20.396 70.9523 20.396V22.396C71.8346 22.396 72.7642 22.2114 73.7318 21.8715L73.0688 19.9845ZM72.8705 20.193C74.0723 20.0499 75.2232 19.5666 76.3177 18.7924L75.1628 17.1596C74.2894 17.7774 73.4483 18.1101 72.6341 18.207L72.8705 20.193ZM76.7403 17.976V17.688H74.7403V17.976H76.7403ZM76.7403 17.688C76.7403 17.0515 76.7744 16.4555 76.8412 15.8991L74.8554 15.6609C74.7782 16.3045 74.7403 16.9805 74.7403 17.688H76.7403ZM76.845 15.8608L76.953 14.5288L74.9596 14.3672L74.8516 15.6992L76.845 15.8608ZM75.8673 13.452C74.4413 13.5793 73.2214 13.9054 72.3056 14.5159L73.415 16.1801C73.9392 15.8306 74.7832 15.5567 76.0452 15.444L75.8673 13.452ZM72.3056 14.5159C71.3274 15.1681 70.7803 16.1183 70.7803 17.292H72.7803C72.7803 16.8337 72.9531 16.4879 73.415 16.1801L72.3056 14.5159ZM70.7803 17.292C70.7803 17.8127 70.9028 18.3163 71.1261 18.7949L72.9385 17.9491C72.8258 17.7077 72.7803 17.4913 72.7803 17.292H70.7803ZM71.1499 18.8426C71.4057 19.3222 71.7496 19.7334 72.1976 20.0321L73.307 18.3679C73.179 18.2826 73.0428 18.1418 72.9146 17.9014L71.1499 18.8426ZM85.0831 21L84.0856 20.9302L84.0227 21.8283L84.9093 21.9848L85.0831 21ZM85.1911 10.308L84.1964 10.4109L84.1982 10.4278L84.2005 10.4446L85.1911 10.308ZM84.7951 8.652L83.8704 9.03275L83.8798 9.05552L83.8903 9.0778L84.7951 8.652ZM83.9311 7.392L83.2424 6.667L82.5195 7.35374L83.2041 8.07862L83.9311 7.392ZM85.5151 6.42L85.8314 7.36868L85.8489 7.36283L85.8662 7.35633L85.5151 6.42ZM89.4391 8.22L88.4482 8.35436L88.7383 10.4936L90.1824 8.88896L89.4391 8.22ZM91.6711 6.564L92.0869 7.47347L92.0975 7.46861L92.108 7.46351L91.6711 6.564ZM98.5111 10.92L99.5106 10.9517L99.5111 10.9359V10.92H98.5111ZM98.4391 13.188L97.4396 13.1563L97.4396 13.1582L98.4391 13.188ZM98.3671 15.6L97.3676 15.5702L97.3671 15.5851V15.6H98.3671ZM99.0871 21L99.2967 21.9778L100.501 21.7197L100.001 20.5939L99.0871 21ZM94.0831 21L93.0852 20.9359L93.0275 21.8336L93.9142 21.9856L94.0831 21ZM93.7951 10.488L93.0269 11.1282L93.0359 11.139L93.0453 11.1496L93.7951 10.488ZM89.4751 10.56L88.9074 9.73679L88.4931 10.0225L88.4757 10.5255L89.4751 10.56ZM89.4391 11.604L88.4397 11.5695L88.4396 11.5728L89.4391 11.604ZM90.0871 21L90.2967 21.9778L91.5013 21.7197L91.0009 20.5939L90.0871 21ZM87.8191 20.216C86.8574 20.216 86.0048 20.1472 85.2569 20.0152L84.9093 21.9848C85.7934 22.1408 86.7649 22.216 87.8191 22.216V20.216ZM86.0807 21.0698C86.2505 18.6439 86.3351 16.0644 86.3351 13.332H84.3351C84.3351 16.0236 84.2518 18.5561 84.0856 20.9302L86.0807 21.0698ZM86.3351 13.332C86.3351 11.9986 86.2872 10.9361 86.1817 10.1714L84.2005 10.4446C84.287 11.0719 84.3351 12.0254 84.3351 13.332H86.3351ZM86.1858 10.2051C86.1079 9.45193 85.9587 8.7761 85.6999 8.2262L83.8903 9.0778C84.0155 9.3439 84.1303 9.77207 84.1964 10.4109L86.1858 10.2051ZM85.7198 8.27125C85.4921 7.71829 85.1228 7.19742 84.6581 6.70538L83.2041 8.07862C83.5554 8.45058 83.7621 8.76971 83.8704 9.03275L85.7198 8.27125ZM84.6199 8.117C85.0033 7.75271 85.4066 7.51026 85.8314 7.36868L85.1989 5.47132C84.4716 5.71374 83.8189 6.11929 83.2424 6.667L84.6199 8.117ZM85.8662 7.35633C86.3667 7.16866 86.7608 7.096 87.0631 7.096V5.096C86.4534 5.096 85.8156 5.23933 85.164 5.48367L85.8662 7.35633ZM87.0631 7.096C87.5912 7.096 87.8728 7.22786 88.0347 7.37254C88.2 7.52037 88.3731 7.80029 88.4482 8.35436L90.4301 8.08564C90.3132 7.22371 89.9942 6.44163 89.3676 5.88146C88.7374 5.31814 87.927 5.096 87.0631 5.096V7.096ZM90.1824 8.88896C90.7434 8.26565 91.3774 7.7978 92.0869 7.47347L91.2554 5.65452C90.2848 6.0982 89.4308 6.73435 88.6958 7.55103L90.1824 8.88896ZM92.108 7.46351C92.8152 7.12 93.5422 6.952 94.2991 6.952V4.952C93.2321 4.952 92.207 5.192 91.2342 5.66449L92.108 7.46351ZM94.2991 6.952C95.5018 6.952 96.236 7.29885 96.6954 7.84068C97.1816 8.41413 97.5111 9.38152 97.5111 10.92H99.5111C99.5111 9.14648 99.1387 7.62987 98.2209 6.54731C97.2763 5.43315 95.9045 4.952 94.2991 4.952V6.952ZM97.5116 10.8883L97.4396 13.1563L99.4386 13.2197L99.5106 10.9517L97.5116 10.8883ZM97.4396 13.1582L97.3676 15.5702L99.3667 15.6298L99.4387 13.2178L97.4396 13.1582ZM97.3671 15.6C97.3671 18.1369 97.6018 20.1202 98.1733 21.4061L100.001 20.5939C99.6125 19.7198 99.3671 18.1031 99.3671 15.6H97.3671ZM98.8776 20.0222C98.3019 20.1456 97.5038 20.216 96.4591 20.216V22.216C97.5745 22.216 98.5284 22.1424 99.2967 21.9778L98.8776 20.0222ZM96.4591 20.216C95.7792 20.216 95.0441 20.1502 94.2521 20.0144L93.9142 21.9856C94.8021 22.1378 95.651 22.216 96.4591 22.216V20.216ZM95.0811 21.0641C95.2506 18.4238 95.3351 15.5822 95.3351 12.54H93.3351C93.3351 15.5458 93.2516 18.3442 93.0852 20.9359L95.0811 21.0641ZM95.3351 12.54C95.3351 11.505 95.1507 10.5129 94.545 9.82638L93.0453 11.1496C93.1595 11.2791 93.3351 11.655 93.3351 12.54H95.3351ZM94.5633 9.84781C93.945 9.10585 93.0295 8.84 92.0671 8.84V10.84C92.6888 10.84 92.9252 11.0061 93.0269 11.1282L94.5633 9.84781ZM92.0671 8.84C90.8777 8.84 89.8041 9.11836 88.9074 9.73679L90.0429 11.3832C90.5381 11.0416 91.1926 10.84 92.0671 10.84V8.84ZM88.4757 10.5255L88.4397 11.5695L90.4385 11.6385L90.4745 10.5945L88.4757 10.5255ZM88.4396 11.5728C88.3914 13.1157 88.3671 14.4586 88.3671 15.6H90.3671C90.3671 14.4854 90.3909 13.1643 90.4386 11.6352L88.4396 11.5728ZM88.3671 15.6C88.3671 18.1369 88.6018 20.1202 89.1733 21.4061L91.0009 20.5939C90.6125 19.7198 90.3671 18.1031 90.3671 15.6H88.3671ZM89.8776 20.0222C89.2877 20.1486 88.6036 20.216 87.8191 20.216V22.216C88.7146 22.216 89.5426 22.1394 90.2967 21.9778L89.8776 20.0222ZM104.474 27.084L104.236 28.0554L104.241 28.0566L104.474 27.084ZM101.774 25.932H100.774V26.4527L101.2 26.7512L101.774 25.932ZM102.206 23.52L101.275 23.1535L101.269 23.1702L101.263 23.1872L102.206 23.52ZM103.502 21.36L104.263 22.0085L105.053 21.0812L103.989 20.4871L103.502 21.36ZM102.962 17.292L102.178 16.6713L102.178 16.6713L102.962 17.292ZM104.87 15.888L105.273 16.8029L107.071 16.0098L105.372 15.0232L104.87 15.888ZM103.142 14.16L102.265 14.6409L102.272 14.653L103.142 14.16ZM103.358 8.688L102.526 8.1333L102.52 8.1414L102.515 8.14961L103.358 8.688ZM105.734 6.672L105.312 5.76524L105.304 5.76914L105.734 6.672ZM112.538 6.708L112.044 7.57769L112.414 7.7874L112.821 7.66702L112.538 6.708ZM115.922 4.656L116.807 4.19199L116.217 3.06424L115.261 3.90529L115.922 4.656ZM116.57 6.42L115.599 6.66253L115.605 6.68343L115.611 6.70409L116.57 6.42ZM116.858 8.004L117.305 8.89843L117.858 8.62203V8.004H116.858ZM114.518 8.652L114.432 7.65565L112.919 7.78537L113.636 9.12422L114.518 8.652ZM114.158 13.98L113.336 13.4096L113.331 13.4174L113.326 13.4253L114.158 13.98ZM111.746 15.996L111.324 15.0893L111.324 15.0893L111.746 15.996ZM105.77 17.148L106.172 18.0633L106.181 18.0597L106.189 18.056L105.77 17.148ZM104.87 18.228H103.87V19.1762L104.817 19.2266L104.87 18.228ZM111.638 18.588L111.719 17.5913L111.705 17.5902L111.691 17.5894L111.638 18.588ZM114.95 19.74L114.293 20.4941L114.306 20.5053L114.319 20.5161L114.95 19.74ZM115.058 24.96L114.317 24.2885L114.312 24.2941L114.306 24.2999L115.058 24.96ZM112.178 26.796L111.845 25.853L111.834 25.857L111.822 25.8612L112.178 26.796ZM110.666 14.052L111.373 14.7591L111.373 14.7591L110.666 14.052ZM110.738 10.272L109.946 10.8834L109.953 10.8924L109.96 10.9012L110.738 10.272ZM109.046 9.156L109.333 8.19817L109.192 8.156H109.046V9.156ZM106.922 14.016L106.197 14.7047L106.197 14.7047L106.922 14.016ZM111.782 24.42L112.191 25.3325L112.191 25.3325L111.782 24.42ZM112.322 22.368L112.769 21.4736L112.743 21.4604L112.716 21.4489L112.322 22.368ZM110.558 22.08L110.615 21.0816L110.613 21.0816L110.558 22.08ZM105.41 21.792L105.465 20.7936L104.795 20.7561L104.507 21.3621L105.41 21.792ZM104.906 23.232L103.927 23.026L103.828 23.4974L104.135 23.8689L104.906 23.232ZM108.146 26.48C106.866 26.48 105.722 26.3542 104.706 26.1114L104.241 28.0566C105.434 28.3418 106.737 28.48 108.146 28.48V26.48ZM104.711 26.1126C103.721 25.8706 102.943 25.5296 102.347 25.1128L101.2 26.7512C102.045 27.3424 103.066 27.7694 104.236 28.0554L104.711 26.1126ZM102.774 25.932C102.774 25.2634 102.895 24.5718 103.149 23.8528L101.263 23.1872C100.94 24.1002 100.774 25.0166 100.774 25.932H102.774ZM103.136 23.8865C103.408 23.1972 103.782 22.5725 104.263 22.0085L102.74 20.7115C102.117 21.4435 101.628 22.2588 101.275 23.1535L103.136 23.8865ZM103.989 20.4871C103.716 20.3342 103.552 20.1638 103.45 19.9877C103.348 19.8102 103.278 19.5716 103.278 19.236H101.278C101.278 19.8604 101.411 20.4558 101.717 20.9863C102.024 21.5182 102.471 21.9298 103.014 22.2329L103.989 20.4871ZM103.278 19.236C103.278 18.7462 103.426 18.3159 103.746 17.9127L102.178 16.6713C101.585 17.4201 101.278 18.2858 101.278 19.236H103.278ZM103.746 17.9127C104.081 17.4888 104.575 17.1112 105.273 16.8029L104.466 14.9731C103.533 15.3848 102.754 15.9432 102.178 16.6713L103.746 17.9127ZM105.372 15.0232C104.775 14.6766 104.329 14.2264 104.012 13.667L102.272 14.653C102.771 15.5336 103.476 16.2354 104.367 16.7528L105.372 15.0232ZM104.018 13.6792C103.699 13.0973 103.53 12.4256 103.53 11.64H101.53C101.53 12.7264 101.768 13.7347 102.265 14.6408L104.018 13.6792ZM103.53 11.64C103.53 10.7115 103.759 9.9172 104.2 9.22639L102.515 8.14961C101.852 9.1868 101.53 10.3605 101.53 11.64H103.53ZM104.19 9.2427C104.658 8.54022 105.306 7.98328 106.164 7.57486L105.304 5.76914C104.145 6.32071 103.209 7.10778 102.526 8.1333L104.19 9.2427ZM106.155 7.57872C107.038 7.16815 108.055 6.952 109.226 6.952V4.952C107.804 4.952 106.493 5.21584 105.312 5.76528L106.155 7.57872ZM109.226 6.952C110.422 6.952 111.344 7.18057 112.044 7.57769L113.031 5.83831C111.955 5.22743 110.669 4.952 109.226 4.952V6.952ZM112.821 7.66702C114.065 7.29956 115.319 6.51873 116.582 5.40671L115.261 3.90529C114.125 4.90527 113.123 5.49244 112.254 5.74898L112.821 7.66702ZM115.036 5.12001C115.256 5.54055 115.447 6.05145 115.599 6.66253L117.54 6.17746C117.357 5.44455 117.115 4.77945 116.807 4.19199L115.036 5.12001ZM115.611 6.70409C115.791 7.31185 115.858 7.73448 115.858 8.004H117.858C117.858 7.45752 117.732 6.82415 117.528 6.13591L115.611 6.70409ZM116.41 7.10957C115.809 7.41038 115.152 7.59393 114.432 7.65565L114.603 9.64835C115.563 9.56607 116.466 9.31762 117.305 8.89843L116.41 7.10957ZM113.636 9.12422C113.904 9.62502 114.058 10.2486 114.058 11.028H116.058C116.058 9.98344 115.851 9.02298 115.399 8.17978L113.636 9.12422ZM114.058 11.028C114.058 11.9388 113.814 12.7217 113.336 13.4096L114.979 14.5504C115.701 13.5103 116.058 12.3252 116.058 11.028H114.058ZM113.326 13.4253C112.861 14.122 112.206 14.679 111.324 15.0893L112.167 16.9027C113.349 16.353 114.302 15.566 114.99 14.5347L113.326 13.4253ZM111.324 15.0893C110.444 15.4988 109.415 15.716 108.218 15.716V17.716C109.66 17.716 110.984 17.4532 112.167 16.9027L111.324 15.0893ZM108.218 15.716C107.127 15.716 106.153 15.8699 105.351 16.24L106.189 18.056C106.635 17.8501 107.292 17.716 108.218 17.716V15.716ZM105.367 16.2327C104.589 16.5751 103.87 17.2068 103.87 18.228H105.87C105.87 18.2259 105.87 18.2352 105.864 18.2491C105.859 18.2626 105.855 18.2652 105.863 18.2562C105.883 18.2326 105.961 18.1564 106.172 18.0633L105.367 16.2327ZM104.817 19.2266L111.585 19.5866L111.691 17.5894L104.923 17.2294L104.817 19.2266ZM111.556 19.5847C112.906 19.6953 113.771 20.0397 114.293 20.4941L115.606 18.9859C114.64 18.1443 113.297 17.7207 111.719 17.5913L111.556 19.5847ZM114.319 20.5161C114.819 20.9222 115.102 21.4937 115.102 22.368H117.102C117.102 20.9863 116.616 19.8058 115.58 18.9639L114.319 20.5161ZM115.102 22.368C115.102 23.0591 114.86 23.6885 114.317 24.2885L115.799 25.6315C116.647 24.6955 117.102 23.5969 117.102 22.368H115.102ZM114.306 24.2999C113.747 24.9368 112.944 25.4649 111.845 25.853L112.51 27.739C113.859 27.2631 114.977 26.5672 115.809 25.6201L114.306 24.2999ZM111.822 25.8612C110.752 26.2678 109.531 26.48 108.146 26.48V28.48C109.736 28.48 111.203 28.2362 112.533 27.7308L111.822 25.8612ZM108.758 15.736C109.765 15.736 110.683 15.4492 111.373 14.7591L109.959 13.3449C109.737 13.5668 109.382 13.736 108.758 13.736V15.736ZM111.373 14.7591C112.063 14.069 112.35 13.1512 112.35 12.144H110.35C110.35 12.7688 110.18 13.123 109.959 13.3449L111.373 14.7591ZM112.35 12.144C112.35 11.2065 112.088 10.3506 111.515 9.6428L109.96 10.9012C110.203 11.2014 110.35 11.5935 110.35 12.144H112.35ZM111.529 9.66055C110.977 8.94677 110.227 8.46626 109.333 8.19817L108.758 10.1138C109.305 10.2777 109.682 10.5412 109.946 10.8834L111.529 9.66055ZM109.046 8.156C107.977 8.156 107.038 8.52902 106.307 9.29278L107.752 10.6752C108.078 10.335 108.482 10.156 109.046 10.156V8.156ZM106.307 9.29278C105.583 10.0502 105.238 11.0025 105.238 12.072H107.238C107.238 11.4615 107.421 11.0218 107.752 10.6752L106.307 9.29278ZM105.238 12.072C105.238 13.0816 105.525 13.9979 106.197 14.7047L107.647 13.3273C107.406 13.0741 107.238 12.6944 107.238 12.072H105.238ZM106.197 14.7047C106.872 15.4157 107.763 15.736 108.758 15.736V13.736C108.216 13.736 107.883 13.5763 107.647 13.3273L106.197 14.7047ZM109.046 25.888C110.253 25.888 111.32 25.723 112.191 25.3325L111.373 23.5075C110.852 23.741 110.094 23.888 109.046 23.888V25.888ZM112.191 25.3325C113.011 24.9648 113.826 24.3114 113.826 23.232H111.826C111.826 23.228 111.827 23.2172 111.831 23.2071C111.835 23.1982 111.834 23.2058 111.813 23.2289C111.767 23.2822 111.644 23.386 111.373 23.5075L112.191 25.3325ZM113.826 23.232C113.826 22.8904 113.755 22.5339 113.563 22.2061C113.369 21.8735 113.088 21.6331 112.769 21.4736L111.874 23.2624C111.886 23.2681 111.882 23.2679 111.871 23.258C111.86 23.2475 111.847 23.2322 111.836 23.2139C111.831 23.2053 111.827 23.1978 111.825 23.192C111.823 23.1862 111.822 23.183 111.822 23.1831C111.822 23.1835 111.826 23.1983 111.826 23.232H113.826ZM112.716 21.4489C112.204 21.2295 111.459 21.1299 110.615 21.0816L110.501 23.0784C111.336 23.1261 111.768 23.2185 111.928 23.2871L112.716 21.4489ZM110.613 21.0816L105.465 20.7936L105.354 22.7904L110.502 23.0784L110.613 21.0816ZM104.507 21.3621C104.239 21.9239 104.042 22.4792 103.927 23.026L105.884 23.438C105.961 23.0728 106.1 22.6681 106.312 22.2219L104.507 21.3621ZM104.135 23.8689C105.289 25.2663 106.993 25.888 109.046 25.888V23.888C107.402 23.888 106.346 23.4057 105.677 22.5951L104.135 23.8689Z" fill="black"/>
</g>
<defs>
<filter id="filter0_d" x="0.251953" y="0.556458" width="121.606" height="35.9236" filterUnits="userSpaceOnUse" color-interpolation-filters="sRGB">
<feFlood flood-opacity="0" result="BackgroundImageFix"/>
<feColorMatrix in="SourceAlpha" type="matrix" values="0 0 0 0 0 0 0 0 0 0 0 0 0 0 0 0 0 0 127 0"/>
<feOffset dy="4"/>
<feGaussianBlur stdDeviation="2"/>
<feColorMatrix type="matrix" values="0 0 0 0 0 0 0 0 0 0 0 0 0 0 0 0 0 0 0.25 0"/>
<feBlend mode="normal" in2="BackgroundImageFix" result="effect1_dropShadow"/>
<feBlend mode="normal" in="SourceGraphic" in2="effect1_dropShadow" result="shape"/>
</filter>
</defs>
</svg>
